{
DisplayStrings = (
"HHH/eight.osf HHH\012ooo/eight.osf oooz\012o/one.osf/two.osf/three.osf/four.osf/five.osf/six.osf/seven.osf/eight.osf/nine.osf  /s.ss01 z\012/one.osf/two.osf o/five.osf/one.osf  Berlin",
"Stra\U00DFe\012Stra/germandbls.ss01 e",
"ABCDEFGHIJKLMNOPSTUVWYa\U00E4bcde\U00EBfghi\U00EFjklmno\U00F6pqrs\U00DFtu\U00FCvwxy/ydieresis z"
);
copyright = "Copyright (c) 2016 Dan Reynolds. ";
customParameters = (
{
name = license;
value = "This Font Software is licensed under the SIL Open Font License Version 1.1. This license is available with a FAQ at: http://scripts.sil.org/OFL";
},
{
name = licenseURL;
value = "http://scripts.sil.org/OFL";
},
{
name = vendorID;
value = toff;
},
{
name = fsType;
value = (
);
}
);
date = "2016-01-06 20:56:18 +0000";
designer = "Dan Reynolds";
designerURL = "https://github.com/typeoff/martel_sans";
familyName = "Moga";
featurePrefixes = (
{
automatic = 1;
code = "languagesystem DFLT dflt;\012languagesystem latn dflt;\012languagesystem gur2 dflt;\012languagesystem guru dflt;\012languagesystem latn ROM;\012languagesystem latn MOL;\012languagesystem latn KAZ;\012languagesystem latn TAT;\012languagesystem latn TRK;\012languagesystem latn CRT;\012languagesystem latn AZE;\012";
name = Languagesystems;
}
);
features = (
{
automatic = 1;
code = "feature ccmp;\012feature locl;\012feature salt;\012feature ss01;\012feature blwf;\012feature calt;\012";
name = aalt;
},
{
automatic = 1;
code = "lookup latn_comb1 {\012	script latn;\012@CombiningTopAccents = [acutecomb brevecomb caroncomb circumflexcomb commaturnedabovecomb dieresiscomb dotaccentcomb gravecomb hungarumlautcomb macroncomb ringcomb tildecomb];\012@CombiningNonTopAccents = [cedillacomb ogonekcomb slashlongcomb slashshortcomb strokelongcomb strokeshortcomb];\012	sub [i]' @CombiningTopAccents by [idotless];\012	sub [i]' @CombiningNonTopAccents @CombiningTopAccents by [idotless];\012} latn_comb1;\012";
name = ccmp;
},
{
automatic = 1;

glyphs = (
{
glyphname = A;
lastChange = "2016-01-18 14:26:23 +0000";
layers = (
{
layerId = "D34FCF88-AF1D-4520-8FB0-498E26D42FBC";
paths = (
{
closed = 1;
nodes = (
"59 -29 OFFCURVE",
"108 28 OFFCURVE",
"140 63 CURVE SMOOTH",
"284 225 OFFCURVE",
"353 377 OFFCURVE",
"370 499 CURVE",
"306 499 LINE",
"268 341 OFFCURVE",
"161 204 OFFCURVE",
"81 115 CURVE SMOOTH",
"29 57 OFFCURVE",
"-24 49 OFFCURVE",
"-24 11 CURVE SMOOTH",
"-24 -13 OFFCURVE",
"-3 -29 OFFCURVE",
"15 -29 CURVE SMOOTH"
);
},
{
closed = 1;
nodes = (
"377 72 OFFCURVE",
"403 81 OFFCURVE",
"452 102 CURVE",
"452 102 OFFCURVE",
"412 166 OFFCURVE",
"412 166 CURVE",
"380 152 OFFCURVE",
"357 149 OFFCURVE",
"335 149 CURVE SMOOTH",
"297 149 OFFCURVE",
"264 153 OFFCURVE",
"193 172 CURVE",
"193 172 OFFCURVE",
"147 105 OFFCURVE",
"147 105 CURVE",
"249 78 OFFCURVE",
"297 72 OFFCURVE",
"335 72 CURVE SMOOTH"
);
},
{
closed = 1;
nodes = (
"513 -28 OFFCURVE",
"536 -13 OFFCURVE",
"536 10 CURVE SMOOTH",
"536 39 OFFCURVE",
"509 62 OFFCURVE",
"477 134 CURVE SMOOTH",
"446 203 OFFCURVE",
"418 301 OFFCURVE",
"392 413 CURVE SMOOTH",
"377 475 OFFCURVE",
"404 592 OFFCURVE",
"339 592 CURVE SMOOTH",
"277 592 OFFCURVE",
"294 499 OFFCURVE",
"312 421 CURVE SMOOTH",
"333 332 OFFCURVE",
"365 211 OFFCURVE",
"403 110 CURVE SMOOTH",
"428 43 OFFCURVE",
"453 -28 OFFCURVE",
"495 -28 CURVE SMOOTH"
);
}
);
width = 570;
}
);
unicode = 0041;
},
{
glyphname = B;
lastChange = "2016-01-18 14:26:32 +0000";
layers = (
{
background = {
paths = (
{
closed = 1;
nodes = (
"232 495 OFFCURVE",
"151 477 OFFCURVE",
"114 453 CURVE",
"102 377 OFFCURVE",
"99 291 OFFCURVE",
"99 187 CURVE SMOOTH",
"99 109 OFFCURVE",
"110 28 OFFCURVE",
"121 -38 CURVE",
"204 -61 LINE",
"189 15 OFFCURVE",
"178 84 OFFCURVE",
"178 167 CURVE SMOOTH",
"178 245 OFFCURVE",
"179 323 OFFCURVE",
"184 401 CURVE",
"204 408 OFFCURVE",
"242 416 OFFCURVE",
"286 416 CURVE SMOOTH",
"349 416 OFFCURVE",
"410 386 OFFCURVE",
"410 312 CURVE SMOOTH",
"410 247 OFFCURVE",
"352 230 OFFCURVE",
"289 227 CURVE SMOOTH",
"239 227 OFFCURVE",
"189 230 OFFCURVE",
"139 242 CURVE",
"150 155 LINE",
"203 150 OFFCURVE",
"260 150 OFFCURVE",
"315 150 CURVE",
"388 150 OFFCURVE",
"491 210 OFFCURVE",
"491 312 CURVE SMOOTH",
"491 418 OFFCURVE",
"410 495 OFFCURVE",
"286 495 CURVE"
);
}
);
};
layerId = "D34FCF88-AF1D-4520-8FB0-498E26D42FBC";
paths = (
{
closed = 1;
nodes = (
"409 -31 OFFCURVE",
"490 46 OFFCURVE",
"490 152 CURVE SMOOTH",
"490 254 OFFCURVE",
"387 314 OFFCURVE",
"314 314 CURVE",
"259 314 OFFCURVE",
"202 314 OFFCURVE",
"149 309 CURVE",
"138 222 LINE",
"188 234 OFFCURVE",
"238 237 OFFCURVE",
"288 237 CURVE SMOOTH",
"351 234 OFFCURVE",
"409 217 OFFCURVE",
"409 152 CURVE SMOOTH",
"409 78 OFFCURVE",
"348 48 OFFCURVE",
"285 48 CURVE SMOOTH",
"241 48 OFFCURVE",
"205 56 OFFCURVE",
"185 63 CURVE",
"178 108 OFFCURVE",
"177 219 OFFCURVE",
"177 297 CURVE SMOOTH",
"177 380 OFFCURVE",
"188 449 OFFCURVE",
"203 525 CURVE",
"120 502 LINE",
"109 436 OFFCURVE",
"98 355 OFFCURVE",
"98 277 CURVE SMOOTH",
"98 173 OFFCURVE",
"101 87 OFFCURVE",
"113 11 CURVE",
"150 -13 OFFCURVE",
"231 -31 OFFCURVE",
"285 -31 CURVE"
);
},
{
closed = 1;
nodes = (
"374 312 OFFCURVE",
"422 360 OFFCURVE",
"422 445 CURVE SMOOTH",
"422 537 OFFCURVE",
"343 592 OFFCURVE",
"257 592 CURVE SMOOTH",
"222 592 OFFCURVE",
"184 589 OFFCURVE",
"150 577 CURVE SMOOTH",
"113 564 OFFCURVE",
"58 540 OFFCURVE",
"58 514 CURVE SMOOTH",
"58 486 OFFCURVE",
"94 460 OFFCURVE",
"128 449 CURVE",
"153 497 LINE",
"188 507 OFFCURVE",
"222 513 OFFCURVE",
"257 513 CURVE SMOOTH",
"314 513 OFFCURVE",
"341 487 OFFCURVE",
"341 445 CURVE SMOOTH",
"341 383 OFFCURVE",
"289 323 OFFCURVE",
"220 297 CURVE",
"276 255 LINE"
);
}
);
width = 560;
}
);
unicode = 0042;
},
{
glyphname = C;
lastChange = "2016-01-18 14:26:32 +0000";
layers = (
{
background = {
paths = (
{
closed = 1;
nodes = (
"455 -28 OFFCURVE",
"581 46 OFFCURVE",
"581 131 CURVE SMOOTH",
"581 141 OFFCURVE",
"578 162 OFFCURVE",
"565 162 CURVE SMOOTH",
"553 162 OFFCURVE",
"520 131 OFFCURVE",
"481 105 CURVE SMOOTH",
"437 76 OFFCURVE",
"387 51 OFFCURVE",
"324 51 CURVE SMOOTH",
"225 51 OFFCURVE",
"145 119 OFFCURVE",
"145 231 CURVE SMOOTH",
"145 370 OFFCURVE",
"248 513 OFFCURVE",
"353 513 CURVE SMOOTH",
"467 513 OFFCURVE",
"472 423 OFFCURVE",
"520 423 CURVE SMOOTH",
"539 423 OFFCURVE",
"561 434 OFFCURVE",
"561 467 CURVE SMOOTH",
"561 523 OFFCURVE",
"484 592 OFFCURVE",
"355 592 CURVE SMOOTH",
"178 592 OFFCURVE",
"64 379 OFFCURVE",
"64 231 CURVE SMOOTH",
"64 85 OFFCURVE",
"162 -28 OFFCURVE",
"326 -28 CURVE SMOOTH"
);
}
);
};
layerId = "D34FCF88-AF1D-4520-8FB0-498E26D42FBC";
paths = (
{
closed = 1;
nodes = (
"450 -28 OFFCURVE",
"571 46 OFFCURVE",
"571 131 CURVE SMOOTH",
"571 141 OFFCURVE",
"568 162 OFFCURVE",
"555 162 CURVE SMOOTH",
"543 162 OFFCURVE",
"512 131 OFFCURVE",
"474 105 CURVE SMOOTH",
"432 76 OFFCURVE",
"384 51 OFFCURVE",
"324 51 CURVE SMOOTH",
"225 51 OFFCURVE",
"145 119 OFFCURVE",
"145 231 CURVE SMOOTH",
"145 370 OFFCURVE",
"248 513 OFFCURVE",
"353 513 CURVE SMOOTH",
"460 513 OFFCURVE",
"462 423 OFFCURVE",
"510 423 CURVE SMOOTH",
"529 423 OFFCURVE",
"551 434 OFFCURVE",
"551 467 CURVE SMOOTH",
"551 523 OFFCURVE",
"478 592 OFFCURVE",
"355 592 CURVE SMOOTH",
"178 592 OFFCURVE",
"64 379 OFFCURVE",
"64 231 CURVE SMOOTH",
"64 85 OFFCURVE",
"162 -28 OFFCURVE",
"326 -28 CURVE SMOOTH"
);
}
);
width = 627;
}
);
unicode = 0043;
},
{
glyphname = D;
lastChange = "2016-01-18 14:26:32 +0000";
layers = (
{
background = {
paths = (
{
closed = 1;
nodes = (
"478 -26 OFFCURVE",
"590 85 OFFCURVE",
"590 232 CURVE SMOOTH",
"590 432 OFFCURVE",
"479 583 OFFCURVE",
"312 591 CURVE SMOOTH",
"246 594 LINE SMOOTH",
"137 599 OFFCURVE",
"64 562 OFFCURVE",
"64 540 CURVE SMOOTH",
"64 529 OFFCURVE",
"70 519 OFFCURVE",
"76 512 CURVE SMOOTH",
"91 498 OFFCURVE",
"114 486 OFFCURVE",
"112 455 CURVE SMOOTH",
"91 46 LINE",
"148 -9 OFFCURVE",
"214 -26 OFFCURVE",
"303 -26 CURVE"
);
},
{
closed = 1;
nodes = (
"191 294 LINE SMOOTH",
"194 388 OFFCURVE",
"206 463 OFFCURVE",
"219 547 CURVE",
"136 515 LINE",
"312 512 LINE SMOOTH",
"446 510 OFFCURVE",
"509 370 OFFCURVE",
"509 232 CURVE SMOOTH",
"509 119 OFFCURVE",
"425 77 OFFCURVE",
"344 57 CURVE SMOOTH",
"330 54 OFFCURVE",
"317 53 OFFCURVE",
"303 53 CURVE SMOOTH",
"241 53 OFFCURVE",
"185 67 OFFCURVE",
"110 109 CURVE",
"182 18 LINE"
);
}
);
};
layerId = "D34FCF88-AF1D-4520-8FB0-498E26D42FBC";
paths = (
{
closed = 1;
nodes = (
"478 -26 OFFCURVE",
"590 85 OFFCURVE",
"590 232 CURVE SMOOTH",
"590 442 OFFCURVE",
"479 583 OFFCURVE",
"312 591 CURVE SMOOTH",
"246 594 LINE SMOOTH",
"137 599 OFFCURVE",
"64 562 OFFCURVE",
"64 540 CURVE SMOOTH",
"64 529 OFFCURVE",
"70 519 OFFCURVE",
"76 512 CURVE SMOOTH",
"91 498 OFFCURVE",
"114 486 OFFCURVE",
"112 455 CURVE SMOOTH",
"90 26 LINE",
"144 -7 OFFCURVE",
"214 -26 OFFCURVE",
"303 -26 CURVE"
);
},
{
closed = 1;
nodes = (
"191 294 LINE SMOOTH",
"194 388 OFFCURVE",
"206 463 OFFCURVE",
"219 547 CURVE",
"136 515 LINE",
"292 512 LINE SMOOTH",
"447 509 OFFCURVE",
"509 370 OFFCURVE",
"509 232 CURVE SMOOTH",
"509 115 OFFCURVE",
"414 53 OFFCURVE",
"303 53 CURVE SMOOTH",
"241 53 OFFCURVE",
"185 67 OFFCURVE",
"110 109 CURVE",
"182 18 LINE"
);
}
);
width = 660;
}
);
unicode = 0044;
},
{
glyphname = E;
lastChange = "2016-01-18 14:26:45 +0000";
layers = (
{
background = {
paths = (
{
closed = 1;
nodes = (
"299 -28 OFFCURVE",
"364 -13 OFFCURVE",
"390 1 CURVE SMOOTH",
"407 10 OFFCURVE",
"416 22 OFFCURVE",
"416 40 CURVE SMOOTH",
"416 63 OFFCURVE",
"401 74 OFFCURVE",
"383 74 CURVE SMOOTH",
"349 74 OFFCURVE",
"308 51 OFFCURVE",
"253 51 CURVE SMOOTH",
"210 51 OFFCURVE",
"157 73 OFFCURVE",
"157 128 CURVE SMOOTH",
"157 151 OFFCURVE",
"160 185 OFFCURVE",
"165 210 CURVE SMOOTH",
"172 245 OFFCURVE",
"185 249 OFFCURVE",
"300 259 CURVE SMOOTH",
"333 262 OFFCURVE",
"349 276 OFFCURVE",
"349 299 CURVE SMOOTH",
"349 326 OFFCURVE",
"333 341 OFFCURVE",
"300 341 CURVE SMOOTH",
"265 341 OFFCURVE",
"221 334 OFFCURVE",
"177 324 CURVE",
"177 485 LINE SMOOTH",
"177 500 OFFCURVE",
"182 503 OFFCURVE",
"194 503 CURVE SMOOTH",
"359 498 LINE SMOOTH",
"385 497 OFFCURVE",
"399 517 OFFCURVE",
"399 536 CURVE SMOOTH",
"399 554 OFFCURVE",
"392 574 OFFCURVE",
"359 575 CURVE SMOOTH",
"163 580 LINE SMOOTH",
"125 580 OFFCURVE",
"88 578 OFFCURVE",
"88 529 CURVE",
"88 499 OFFCURVE",
"98 485 OFFCURVE",
"98 453 CURVE",
"98 286 LINE SMOOTH",
"98 245 OFFCURVE",
"76 197 OFFCURVE",
"76 108 CURVE SMOOTH",
"76 35 OFFCURVE",
"148 -28 OFFCURVE",
"253 -28 CURVE SMOOTH"
);
}
);
};
layerId = "D34FCF88-AF1D-4520-8FB0-498E26D42FBC";
paths = (
{
closed = 1;
nodes = (
"299 -28 OFFCURVE",
"364 -13 OFFCURVE",
"390 1 CURVE SMOOTH",
"407 10 OFFCURVE",
"416 22 OFFCURVE",
"416 40 CURVE SMOOTH",
"416 63 OFFCURVE",
"401 74 OFFCURVE",
"383 74 CURVE SMOOTH",
"349 74 OFFCURVE",
"308 51 OFFCURVE",
"253 51 CURVE SMOOTH",
"210 51 OFFCURVE",
"157 73 OFFCURVE",
"157 128 CURVE SMOOTH",
"157 151 OFFCURVE",
"160 185 OFFCURVE",
"165 210 CURVE SMOOTH",
"172 246 OFFCURVE",
"185 251 OFFCURVE",
"300 261 CURVE SMOOTH",
"333 264 OFFCURVE",
"349 277 OFFCURVE",
"349 299 CURVE SMOOTH",
"349 325 OFFCURVE",
"333 340 OFFCURVE",
"300 340 CURVE SMOOTH",
"265 340 OFFCURVE",
"221 333 OFFCURVE",
"177 323 CURVE",
"177 485 LINE SMOOTH",
"177 500 OFFCURVE",
"182 503 OFFCURVE",
"194 503 CURVE SMOOTH",
"359 498 LINE SMOOTH",
"385 497 OFFCURVE",
"399 517 OFFCURVE",
"399 536 CURVE SMOOTH",
"399 554 OFFCURVE",
"392 574 OFFCURVE",
"359 575 CURVE SMOOTH",
"163 580 LINE SMOOTH",
"125 580 OFFCURVE",
"88 578 OFFCURVE",
"88 529 CURVE",
"88 499 OFFCURVE",
"98 485 OFFCURVE",
"98 453 CURVE",
"98 286 LINE SMOOTH",
"98 245 OFFCURVE",
"76 197 OFFCURVE",
"76 108 CURVE SMOOTH",
"76 35 OFFCURVE",
"148 -28 OFFCURVE",
"253 -28 CURVE SMOOTH"
);
}
);
width = 471;
}
);
unicode = 0045;
},
{
color = 0;
glyphname = F;
lastChange = "2016-01-11 18:34:47 +0000";
layers = (
{
background = {
paths = (
{
closed = 1;
nodes = (
"299 -28 OFFCURVE",
"364 -13 OFFCURVE",
"390 1 CURVE SMOOTH",
"407 10 OFFCURVE",
"416 22 OFFCURVE",
"416 40 CURVE SMOOTH",
"416 63 OFFCURVE",
"401 74 OFFCURVE",
"383 74 CURVE SMOOTH",
"349 74 OFFCURVE",
"308 51 OFFCURVE",
"253 51 CURVE SMOOTH",
"210 51 OFFCURVE",
"157 73 OFFCURVE",
"157 128 CURVE SMOOTH",
"157 151 OFFCURVE",
"160 185 OFFCURVE",
"165 210 CURVE SMOOTH",
"172 245 OFFCURVE",
"185 249 OFFCURVE",
"300 259 CURVE SMOOTH",
"333 262 OFFCURVE",
"349 276 OFFCURVE",
"349 299 CURVE SMOOTH",
"349 326 OFFCURVE",
"333 341 OFFCURVE",
"300 341 CURVE SMOOTH",
"265 341 OFFCURVE",
"221 334 OFFCURVE",
"177 324 CURVE",
"177 485 LINE SMOOTH",
"177 500 OFFCURVE",
"182 503 OFFCURVE",
"194 503 CURVE SMOOTH",
"359 498 LINE SMOOTH",
"385 497 OFFCURVE",
"399 517 OFFCURVE",
"399 536 CURVE SMOOTH",
"399 554 OFFCURVE",
"392 574 OFFCURVE",
"359 575 CURVE SMOOTH",
"163 580 LINE SMOOTH",
"125 580 OFFCURVE",
"88 578 OFFCURVE",
"88 529 CURVE",
"88 499 OFFCURVE",
"98 485 OFFCURVE",
"98 453 CURVE",
"98 286 LINE SMOOTH",
"98 245 OFFCURVE",
"76 197 OFFCURVE",
"76 108 CURVE SMOOTH",
"76 35 OFFCURVE",
"148 -28 OFFCURVE",
"253 -28 CURVE SMOOTH"
);
}
);
};
layerId = "D34FCF88-AF1D-4520-8FB0-498E26D42FBC";
paths = (
{
closed = 1;
nodes = (
"161 -19 OFFCURVE",
"163 1 OFFCURVE",
"166 42 CURVE SMOOTH",
"176 276 LINE",
"183 520 LINE",
"134 495 LINE",
"389 495 LINE SMOOTH",
"402 495 OFFCURVE",
"409 504 OFFCURVE",
"409 513 CURVE SMOOTH",
"409 541 OFFCURVE",
"381 575 OFFCURVE",
"249 575 CURVE SMOOTH",
"196 575 LINE",
"158 575 OFFCURVE",
"103 567 OFFCURVE",
"77 560 CURVE SMOOTH",
"70 558 OFFCURVE",
"63 553 OFFCURVE",
"63 538 CURVE SMOOTH",
"63 511 OFFCURVE",
"97 504 OFFCURVE",
"97 442 CURVE SMOOTH",
"97 286 LINE SMOOTH",
"97 178 OFFCURVE",
"74 73 OFFCURVE",
"74 40 CURVE SMOOTH",
"74 11 OFFCURVE",
"101 -19 OFFCURVE",
"136 -19 CURVE SMOOTH"
);
},
{
closed = 1;
nodes = (
"288 231 LINE SMOOTH",
"348 238 OFFCURVE",
"364 244 OFFCURVE",
"364 264 CURVE SMOOTH",
"364 284 OFFCURVE",
"348 313 OFFCURVE",
"324 311 CURVE SMOOTH",
"237 303 LINE SMOOTH",
"199 300 OFFCURVE",
"171 304 OFFCURVE",
"145 311 CURVE",
"131 212 LINE"
);
}
);
width = 444;
}
);
unicode = 0046;
},
{
glyphname = G;
lastChange = "2016-01-18 14:26:51 +0000";
layers = (
{
background = {
paths = (
{
closed = 1;
nodes = (
"622 -22 OFFCURVE",
"652 -3 OFFCURVE",
"652 21 CURVE SMOOTH",
"653 68 OFFCURVE",
"640 116 OFFCURVE",
"639 168 CURVE SMOOTH",
"639 271 LINE SMOOTH",
"640 387 OFFCURVE",
"678 503 OFFCURVE",
"677 538 CURVE SMOOTH",
"677 562 OFFCURVE",
"660 587 OFFCURVE",
"631 587 CURVE SMOOTH",
"599 587 OFFCURVE",
"589 567 OFFCURVE",
"585 526 CURVE SMOOTH",
"560 276 LINE",
"555 43 LINE SMOOTH",
"554 7 OFFCURVE",
"569 -22 OFFCURVE",
"601 -22 CURVE SMOOTH"
);
},
{
closed = 1;
nodes = (
"251 -22 OFFCURVE",
"268 -1 OFFCURVE",
"268 43 CURVE SMOOTH",
"268 69 OFFCURVE",
"263 125 OFFCURVE",
"263 153 CURVE SMOOTH",
"263 273 LINE",
"273 513 LINE SMOOTH",
"275 560 OFFCURVE",
"259 572 OFFCURVE",
"227 572 CURVE SMOOTH",
"203 572 OFFCURVE",
"178 557 OFFCURVE",
"178 528 CURVE SMOOTH",
"183 337 LINE SMOOTH",
"183 318 OFFCURVE",
"169 306 OFFCURVE",
"169 284 CURVE SMOOTH",
"169 265 OFFCURVE",
"185 254 OFFCURVE",
"184 237 CURVE",
"168 21 LINE SMOOTH",
"166 -6 OFFCURVE",
"197 -22 OFFCURVE",
"221 -22 CURVE SMOOTH"
);
},
{
closed = 1;
nodes = (
"504 228 OFFCURVE",
"548 236 OFFCURVE",
"581 250 CURVE",
"581 250 OFFCURVE",
"591 331 OFFCURVE",
"591 331 CURVE",
"552 313 OFFCURVE",
"502 305 OFFCURVE",
"437 305 CURVE SMOOTH",
"410 305 OFFCURVE",
"297 314 OFFCURVE",
"243 323 CURVE",
"243 323 OFFCURVE",
"232 245 OFFCURVE",
"232 245 CURVE",
"298 235 OFFCURVE",
"417 228 OFFCURVE",
"460 228 CURVE SMOOTH"
);
}
);
};
layerId = "D34FCF88-AF1D-4520-8FB0-498E26D42FBC";
paths = (
{
closed = 1;
nodes = (
"407 -28 OFFCURVE",
"473 -11 OFFCURVE",
"510 5 CURVE SMOOTH",
"548 21 OFFCURVE",
"567 37 OFFCURVE",
"559 90 CURVE SMOOTH",
"529 292 LINE",
"494 239 LINE",
"541 248 OFFCURVE",
"575 263 OFFCURVE",
"575 291 CURVE SMOOTH",
"575 321 OFFCURVE",
"554 331 OFFCURVE",
"536 331 CURVE SMOOTH",
"511 331 OFFCURVE",
"476 309 OFFCURVE",
"437 309 CURVE SMOOTH",
"410 309 OFFCURVE",
"400 313 OFFCURVE",
"378 313 CURVE SMOOTH",
"340 313 OFFCURVE",
"327 294 OFFCURVE",
"327 275 CURVE SMOOTH",
"327 247 OFFCURVE",
"363 233 OFFCURVE",
"420 233 CURVE SMOOTH",
"446 233 OFFCURVE",
"477 235 OFFCURVE",
"510 240 CURVE",
"451 275 LINE",
"478 104 LINE SMOOTH",
"482 79 OFFCURVE",
"459 72 OFFCURVE",
"430 64 CURVE SMOOTH",
"404 57 OFFCURVE",
"374 51 OFFCURVE",
"354 51 CURVE SMOOTH",
"237 51 OFFCURVE",
"141 133 OFFCURVE",
"141 269 CURVE SMOOTH",
"141 381 OFFCURVE",
"246 513 OFFCURVE",
"333 513 CURVE SMOOTH",
"408 513 OFFCURVE",
"426 490 OFFCURVE",
"455 490 CURVE SMOOTH",
"473 490 OFFCURVE",
"494 501 OFFCURVE",
"494 533 CURVE SMOOTH",
"494 580 OFFCURVE",
"404 592 OFFCURVE",
"335 592 CURVE SMOOTH",
"192 592 OFFCURVE",
"60 410 OFFCURVE",
"60 269 CURVE SMOOTH",
"60 102 OFFCURVE",
"193 -28 OFFCURVE",
"356 -28 CURVE SMOOTH"
);
}
);
width = 626;
}
);
unicode = 0047;
},
{
glyphname = H;
lastChange = "2016-01-20 05:25:39 +0000";
layers = (
{
background = {
paths = (
{
closed = 1;
nodes = (
"515 579 CURVE SMOOTH",
"490 579 OFFCURVE",
"488 559 OFFCURVE",
"485 518 CURVE SMOOTH",
"475 279 LINE",
"468 40 LINE SMOOTH",
"467 4 OFFCURVE",
"490 -19 OFFCURVE",
"524 -19 CURVE SMOOTH",
"541 -19 OFFCURVE",
"565 -3 OFFCURVE",
"565 18 CURVE SMOOTH",
"565 65 OFFCURVE",
"554 119 OFFCURVE",
"554 171 CURVE SMOOTH",
"554 274 LINE SMOOTH",
"554 382 OFFCURVE",
"577 487 OFFCURVE",
"577 520 CURVE SMOOTH",
"577 549 OFFCURVE",
"550 579 OFFCURVE"
);
},
{
closed = 1;
nodes = (
"139 -19 CURVE SMOOTH",
"164 -19 OFFCURVE",
"166 1 OFFCURVE",
"169 42 CURVE SMOOTH",
"179 281 LINE",
"186 520 LINE SMOOTH",
"187 556 OFFCURVE",
"164 579 OFFCURVE",
"130 579 CURVE SMOOTH",
"113 579 OFFCURVE",
"89 563 OFFCURVE",
"89 542 CURVE SMOOTH",
"89 495 OFFCURVE",
"100 441 OFFCURVE",
"100 389 CURVE SMOOTH",
"100 286 LINE SMOOTH",
"100 178 OFFCURVE",
"77 73 OFFCURVE",
"77 40 CURVE SMOOTH",
"77 11 OFFCURVE",
"104 -19 OFFCURVE"
);
}
);
};
layerId = "D34FCF88-AF1D-4520-8FB0-498E26D42FBC";
paths = (
{
closed = 1;
nodes = (
"537 -19 OFFCURVE",
"567 0 OFFCURVE",
"567 24 CURVE SMOOTH",
"568 71 OFFCURVE",
"555 119 OFFCURVE",
"554 171 CURVE SMOOTH",
"554 274 LINE SMOOTH",
"555 390 OFFCURVE",
"593 506 OFFCURVE",
"592 541 CURVE SMOOTH",
"592 565 OFFCURVE",
"575 590 OFFCURVE",
"546 590 CURVE SMOOTH",
"514 590 OFFCURVE",
"504 570 OFFCURVE",
"500 529 CURVE SMOOTH",
"475 279 LINE",
"470 46 LINE SMOOTH",
"469 10 OFFCURVE",
"484 -19 OFFCURVE",
"516 -19 CURVE SMOOTH"
);
},
{
closed = 1;
nodes = (
"166 -19 OFFCURVE",
"183 2 OFFCURVE",
"183 46 CURVE SMOOTH",
"183 72 OFFCURVE",
"178 128 OFFCURVE",
"178 156 CURVE SMOOTH",
"178 276 LINE",
"188 516 LINE SMOOTH",
"190 563 OFFCURVE",
"174 575 OFFCURVE",
"142 575 CURVE SMOOTH",
"118 575 OFFCURVE",
"93 560 OFFCURVE",
"93 531 CURVE SMOOTH",
"98 340 LINE SMOOTH",
"98 321 OFFCURVE",
"84 309 OFFCURVE",
"84 287 CURVE SMOOTH",
"84 268 OFFCURVE",
"100 257 OFFCURVE",
"99 240 CURVE",
"83 24 LINE SMOOTH",
"81 -3 OFFCURVE",
"112 -19 OFFCURVE",
"136 -19 CURVE SMOOTH"
);
},
{
closed = 1;
nodes = (
"419 231 OFFCURVE",
"463 239 OFFCURVE",
"496 253 CURVE",
"496 253 OFFCURVE",
"506 334 OFFCURVE",
"506 334 CURVE",
"467 316 OFFCURVE",
"417 308 OFFCURVE",
"352 308 CURVE SMOOTH",
"325 308 OFFCURVE",
"212 317 OFFCURVE",
"158 326 CURVE",
"158 326 OFFCURVE",
"147 248 OFFCURVE",
"147 248 CURVE",
"213 238 OFFCURVE",
"332 231 OFFCURVE",
"375 231 CURVE SMOOTH"
);
}
);
width = 651;
}
);
unicode = 0048;
},
{
glyphname = I;
lastChange = "2016-01-18 14:27:06 +0000";
layers = (
{
layerId = "D34FCF88-AF1D-4520-8FB0-498E26D42FBC";
paths = (
{
closed = 1;
nodes = (
"157 -19 OFFCURVE",
"181 -3 OFFCURVE",
"181 18 CURVE SMOOTH",
"181 65 OFFCURVE",
"170 119 OFFCURVE",
"170 171 CURVE SMOOTH",
"170 274 LINE SMOOTH",
"170 382 OFFCURVE",
"193 487 OFFCURVE",
"193 520 CURVE SMOOTH",
"193 549 OFFCURVE",
"166 579 OFFCURVE",
"131 579 CURVE SMOOTH",
"106 579 OFFCURVE",
"104 559 OFFCURVE",
"101 518 CURVE SMOOTH",
"91 279 LINE",
"84 40 LINE SMOOTH",
"83 4 OFFCURVE",
"106 -19 OFFCURVE",
"140 -19 CURVE SMOOTH"
);
}
);
width = 265;
}
);
unicode = 0049;
},
{
glyphname = J;
lastChange = "2016-01-18 14:27:31 +0000";
layers = (
{
background = {
paths = (
{
closed = 1;
nodes = (
"46 50 OFFCURVE",
"94 -28 OFFCURVE",
"219 -28 CURVE SMOOTH",
"328 -28 OFFCURVE",
"393 51 OFFCURVE",
"393 115 CURVE SMOOTH",
"393 148 OFFCURVE",
"374 159 OFFCURVE",
"357 159 CURVE SMOOTH",
"297 159 OFFCURVE",
"313 51 OFFCURVE",
"217 51 CURVE SMOOTH",
"152 51 OFFCURVE",
"127 101 OFFCURVE",
"127 171 CURVE SMOOTH",
"127 518 LINE SMOOTH",
"127 559 OFFCURVE",
"122 579 OFFCURVE",
"97 579 CURVE SMOOTH",
"62 579 OFFCURVE",
"35 549 OFFCURVE",
"35 520 CURVE SMOOTH",
"35 487 OFFCURVE",
"46 381 OFFCURVE",
"46 274 CURVE SMOOTH",
"46 172 LINE"
);
}
);
};
layerId = "D34FCF88-AF1D-4520-8FB0-498E26D42FBC";
paths = (
{
closed = 1;
nodes = (
"389 274 LINE SMOOTH",
"389 381 OFFCURVE",
"400 487 OFFCURVE",
"400 520 CURVE SMOOTH",
"400 549 OFFCURVE",
"373 579 OFFCURVE",
"338 579 CURVE SMOOTH",
"313 579 OFFCURVE",
"311 559 OFFCURVE",
"308 518 CURVE SMOOTH",
"308 171 LINE SMOOTH",
"308 101 OFFCURVE",
"283 51 OFFCURVE",
"218 51 CURVE SMOOTH",
"191 51 OFFCURVE",
"176 58 OFFCURVE",
"162 68 CURVE SMOOTH",
"122 97 OFFCURVE",
"122 159 OFFCURVE",
"78 159 CURVE SMOOTH",
"61 159 OFFCURVE",
"42 148 OFFCURVE",
"42 115 CURVE SMOOTH",
"42 83 OFFCURVE",
"60 47 OFFCURVE",
"92 19 CURVE SMOOTH",
"122 -8 OFFCURVE",
"164 -28 OFFCURVE",
"216 -28 CURVE SMOOTH",
"341 -28 OFFCURVE",
"389 50 OFFCURVE",
"389 172 CURVE"
);
}
);
width = 484;
}
);
unicode = 004A;
},
{
glyphname = K;
lastChange = "2016-01-18 14:27:31 +0000";
layers = (
{
background = {
paths = (
{
closed = 1;
nodes = (
"389 23 LINE SMOOTH",
"415 -7 OFFCURVE",
"433 -19 OFFCURVE",
"463 -19 CURVE SMOOTH",
"486 -19 OFFCURVE",
"502 -7 OFFCURVE",
"502 1 CURVE SMOOTH",
"502 11 OFFCURVE",
"494 27 OFFCURVE",
"475 49 CURVE SMOOTH",
"378 159 LINE SMOOTH",
"356 184 OFFCURVE",
"332 218 OFFCURVE",
"319 241 CURVE",
"303 210 LINE",
"400 267 OFFCURVE",
"451 317 OFFCURVE",
"451 405 CURVE SMOOTH",
"451 522 OFFCURVE",
"349 592 OFFCURVE",
"237 592 CURVE SMOOTH",
"184 592 OFFCURVE",
"143 585 OFFCURVE",
"97 564 CURVE",
"97 279 LINE",
"94 40 LINE SMOOTH",
"94 4 OFFCURVE",
"115 -19 OFFCURVE",
"148 -19 CURVE SMOOTH",
"164 -19 OFFCURVE",
"187 -3 OFFCURVE",
"187 18 CURVE SMOOTH",
"187 65 OFFCURVE",
"176 119 OFFCURVE",
"176 171 CURVE SMOOTH",
"176 274 LINE",
"179 520 LINE",
"153 497 LINE",
"181 507 OFFCURVE",
"209 513 OFFCURVE",
"237 513 CURVE SMOOTH",
"327 513 OFFCURVE",
"370 472 OFFCURVE",
"370 405 CURVE SMOOTH",
"370 295 OFFCURVE",
"231 287 OFFCURVE",
"231 236 CURVE SMOOTH",
"231 216 OFFCURVE",
"274 160 OFFCURVE",
"311 116 CURVE SMOOTH"
);
},
{
closed = 1;
nodes = (
"606 -39 OFFCURVE",
"625 -25 OFFCURVE",
"625 -10 CURVE SMOOTH",
"625 4 OFFCURVE",
"609 26 OFFCURVE",
"558 74 CURVE SMOOTH",
"388 244 LINE SMOOTH",
"365 267 OFFCURVE",
"333 279 OFFCURVE",
"305 290 CURVE",
"306 254 LINE",
"418 377 LINE SMOOTH",
"457 419 OFFCURVE",
"488 473 OFFCURVE",
"488 521 CURVE SMOOTH",
"488 545 OFFCURVE",
"478 559 OFFCURVE",
"461 559 CURVE SMOOTH",
"440 559 OFFCURVE",
"431 546 OFFCURVE",
"415 523 CURVE SMOOTH",
"387 481 OFFCURVE",
"381 450 OFFCURVE",
"330 396 CURVE SMOOTH",
"238 298 LINE SMOOTH",
"226 285 OFFCURVE",
"213 273 OFFCURVE",
"213 258 CURVE SMOOTH",
"213 244 OFFCURVE",
"224 236 OFFCURVE",
"242 230 CURVE SMOOTH",
"286 215 LINE SMOOTH",
"314 205 OFFCURVE",
"341 176 OFFCURVE",
"374 142 CURVE SMOOTH",
"481 35 LINE SMOOTH",
"512 3 OFFCURVE",
"528 -39 OFFCURVE",
"579 -39 CURVE SMOOTH"
);
}
);
};
layerId = "D34FCF88-AF1D-4520-8FB0-498E26D42FBC";
paths = (
{
closed = 1;
nodes = (
"586 -19 OFFCURVE",
"605 -5 OFFCURVE",
"605 10 CURVE SMOOTH",
"605 24 OFFCURVE",
"588 44 OFFCURVE",
"538 94 CURVE SMOOTH",
"388 244 LINE SMOOTH",
"365 267 OFFCURVE",
"333 279 OFFCURVE",
"305 290 CURVE",
"306 254 LINE",
"436 397 LINE SMOOTH",
"474 439 OFFCURVE",
"506 493 OFFCURVE",
"506 541 CURVE SMOOTH",
"506 565 OFFCURVE",
"496 579 OFFCURVE",
"479 579 CURVE SMOOTH",
"458 579 OFFCURVE",
"449 566 OFFCURVE",
"433 543 CURVE SMOOTH",
"405 501 OFFCURVE",
"400 471 OFFCURVE",
"348 416 CURVE SMOOTH",
"238 298 LINE SMOOTH",
"227 286 OFFCURVE",
"213 273 OFFCURVE",
"213 258 CURVE SMOOTH",
"213 244 OFFCURVE",
"224 236 OFFCURVE",
"242 230 CURVE SMOOTH",
"286 215 LINE SMOOTH",
"314 205 OFFCURVE",
"340 176 OFFCURVE",
"374 142 CURVE SMOOTH",
"461 55 LINE SMOOTH",
"493 23 OFFCURVE",
"508 -19 OFFCURVE",
"559 -19 CURVE SMOOTH"
);
},
{
closed = 1;
nodes = (
"110 579 OFFCURVE",
"86 563 OFFCURVE",
"86 542 CURVE SMOOTH",
"86 495 OFFCURVE",
"97 441 OFFCURVE",
"97 389 CURVE SMOOTH",
"97 286 LINE SMOOTH",
"97 178 OFFCURVE",
"89 73 OFFCURVE",
"89 40 CURVE SMOOTH",
"89 11 OFFCURVE",
"116 -19 OFFCURVE",
"151 -19 CURVE SMOOTH",
"176 -19 OFFCURVE",
"182 2 OFFCURVE",
"181 42 CURVE SMOOTH",
"176 281 LINE",
"183 520 LINE SMOOTH",
"184 555 OFFCURVE",
"161 579 OFFCURVE",
"127 579 CURVE SMOOTH"
);
}
);
width = 617;
}
);
unicode = 004B;
},
{
glyphname = L;
lastChange = "2016-01-18 14:27:31 +0000";
layers = (
{
background = {
paths = (
{
closed = 1;
nodes = (
"299 -28 OFFCURVE",
"364 -13 OFFCURVE",
"390 1 CURVE SMOOTH",
"407 10 OFFCURVE",
"416 22 OFFCURVE",
"416 40 CURVE SMOOTH",
"416 63 OFFCURVE",
"401 74 OFFCURVE",
"383 74 CURVE SMOOTH",
"349 74 OFFCURVE",
"308 51 OFFCURVE",
"253 51 CURVE SMOOTH",
"210 51 OFFCURVE",
"157 73 OFFCURVE",
"157 128 CURVE SMOOTH",
"157 151 OFFCURVE",
"160 185 OFFCURVE",
"165 210 CURVE SMOOTH",
"172 245 OFFCURVE",
"185 249 OFFCURVE",
"300 259 CURVE SMOOTH",
"333 262 OFFCURVE",
"349 276 OFFCURVE",
"349 299 CURVE SMOOTH",
"349 326 OFFCURVE",
"333 341 OFFCURVE",
"300 341 CURVE SMOOTH",
"265 341 OFFCURVE",
"221 334 OFFCURVE",
"177 324 CURVE",
"177 485 LINE SMOOTH",
"177 500 OFFCURVE",
"182 503 OFFCURVE",
"194 503 CURVE SMOOTH",
"359 498 LINE SMOOTH",
"385 497 OFFCURVE",
"399 517 OFFCURVE",
"399 536 CURVE SMOOTH",
"399 554 OFFCURVE",
"392 574 OFFCURVE",
"359 575 CURVE SMOOTH",
"163 580 LINE SMOOTH",
"125 580 OFFCURVE",
"88 578 OFFCURVE",
"88 529 CURVE",
"88 499 OFFCURVE",
"98 485 OFFCURVE",
"98 453 CURVE",
"98 286 LINE SMOOTH",
"98 245 OFFCURVE",
"76 197 OFFCURVE",
"76 108 CURVE SMOOTH",
"76 35 OFFCURVE",
"148 -28 OFFCURVE",
"253 -28 CURVE SMOOTH"
);
}
);
};
layerId = "D34FCF88-AF1D-4520-8FB0-498E26D42FBC";
paths = (
{
closed = 1;
nodes = (
"89 166 OFFCURVE",
"77 108 OFFCURVE",
"77 61 CURVE SMOOTH",
"77 12 OFFCURVE",
"145 -11 OFFCURVE",
"168 -11 CURVE SMOOTH",
"195 -11 OFFCURVE",
"238 0 OFFCURVE",
"268 0 CURVE SMOOTH",
"350 0 LINE SMOOTH",
"371 0 OFFCURVE",
"388 16 OFFCURVE",
"388 27 CURVE SMOOTH",
"388 42 OFFCURVE",
"373 77 OFFCURVE",
"345 77 CURVE SMOOTH",
"255 77 LINE",
"143 67 LINE",
"170 18 LINE",
"170 274 LINE SMOOTH",
"170 382 OFFCURVE",
"183 487 OFFCURVE",
"183 520 CURVE SMOOTH",
"183 549 OFFCURVE",
"162 579 OFFCURVE",
"141 579 CURVE SMOOTH",
"99 579 OFFCURVE",
"91 520 OFFCURVE",
"91 488 CURVE SMOOTH",
"91 279 LINE"
);
}
);
width = 425;
}
);
unicode = 004C;
},
{
glyphname = M;
lastChange = "2016-01-18 14:27:31 +0000";
layers = (
{
background = {
paths = (
{
closed = 1;
nodes = (
"92 12 OFFCURVE",
"103 -19 OFFCURVE",
"139 -19 CURVE SMOOTH",
"166 -19 OFFCURVE",
"176 5 OFFCURVE",
"179 23 CURVE SMOOTH",
"212 197 LINE",
"239 463 LINE",
"192 469 LINE",
"359 196 LINE SMOOTH",
"385 154 OFFCURVE",
"410 128 OFFCURVE",
"442 128 CURVE SMOOTH",
"470 128 OFFCURVE",
"498 164 OFFCURVE",
"522 205 CURVE SMOOTH",
"621 376 LINE",
"602 487 LINE",
"605 403 OFFCURVE",
"617 297 OFFCURVE",
"642 207 CURVE SMOOTH",
"669 114 OFFCURVE",
"694 53 OFFCURVE",
"715 16 CURVE SMOOTH",
"733 -16 OFFCURVE",
"758 -23 OFFCURVE",
"782 -23 CURVE SMOOTH",
"799 -23 OFFCURVE",
"820 -16 OFFCURVE",
"820 7 CURVE SMOOTH",
"820 27 OFFCURVE",
"779 90 OFFCURVE",
"748 153 CURVE SMOOTH",
"724 205 OFFCURVE",
"705 253 OFFCURVE",
"700 288 CURVE SMOOTH",
"664 554 LINE SMOOTH",
"661 579 OFFCURVE",
"646 593 OFFCURVE",
"626 593 CURVE SMOOTH",
"602 593 OFFCURVE",
"596 579 OFFCURVE",
"589 540 CURVE SMOOTH",
"582 501 OFFCURVE",
"570 443 OFFCURVE",
"544 391 CURVE SMOOTH",
"515 321 OFFCURVE",
"474 257 OFFCURVE",
"420 197 CURVE",
"466 203 LINE",
"428 246 OFFCURVE",
"398 293 OFFCURVE",
"364 350 CURVE",
"249 529 LINE SMOOTH",
"228 563 OFFCURVE",
"210 576 OFFCURVE",
"190 576 CURVE SMOOTH",
"175 576 OFFCURVE",
"161 569 OFFCURVE",
"154 561 CURVE",
"144 268 LINE",
"98 44 LINE"
);
}
);
};
guideLines = (
{
position = "{741, 325}";
}
);
layerId = "D34FCF88-AF1D-4520-8FB0-498E26D42FBC";
paths = (
{
closed = 1;
nodes = (
"92 12 OFFCURVE",
"103 -19 OFFCURVE",
"139 -19 CURVE SMOOTH",
"166 -19 OFFCURVE",
"176 5 OFFCURVE",
"179 23 CURVE SMOOTH",
"212 197 LINE",
"239 463 LINE",
"192 469 LINE",
"359 196 LINE SMOOTH",
"385 154 OFFCURVE",
"410 128 OFFCURVE",
"442 128 CURVE SMOOTH",
"470 128 OFFCURVE",
"498 164 OFFCURVE",
"522 205 CURVE SMOOTH",
"621 376 LINE",
"602 487 LINE",
"605 403 OFFCURVE",
"617 297 OFFCURVE",
"642 207 CURVE SMOOTH",
"669 114 OFFCURVE",
"694 53 OFFCURVE",
"715 16 CURVE SMOOTH",
"732 -16 OFFCURVE",
"750 -23 OFFCURVE",
"777 -23 CURVE SMOOTH",
"796 -23 OFFCURVE",
"820 -16 OFFCURVE",
"820 7 CURVE SMOOTH",
"820 27 OFFCURVE",
"779 90 OFFCURVE",
"748 153 CURVE SMOOTH",
"724 205 OFFCURVE",
"705 253 OFFCURVE",
"700 288 CURVE SMOOTH",
"664 554 LINE SMOOTH",
"661 579 OFFCURVE",
"646 593 OFFCURVE",
"626 593 CURVE SMOOTH",
"602 593 OFFCURVE",
"596 579 OFFCURVE",
"589 540 CURVE SMOOTH",
"582 501 OFFCURVE",
"570 443 OFFCURVE",
"544 391 CURVE SMOOTH",
"515 321 OFFCURVE",
"474 257 OFFCURVE",
"420 197 CURVE",
"466 203 LINE",
"428 246 OFFCURVE",
"398 293 OFFCURVE",
"364 350 CURVE",
"249 529 LINE SMOOTH",
"228 563 OFFCURVE",
"210 576 OFFCURVE",
"190 576 CURVE SMOOTH",
"175 576 OFFCURVE",
"161 569 OFFCURVE",
"154 561 CURVE",
"144 268 LINE",
"98 44 LINE"
);
}
);
width = 865;
}
);
unicode = 004D;
},
{
glyphname = N;
lastChange = "2016-01-18 14:27:31 +0000";
layers = (
{
background = {
paths = (
{
closed = 1;
nodes = (
"113 575 OFFCURVE",
"92 556 OFFCURVE",
"92 536 CURVE",
"103 443 OFFCURVE",
"104 357 OFFCURVE",
"104 282 CURVE SMOOTH",
"104 174 OFFCURVE",
"81 69 OFFCURVE",
"81 36 CURVE SMOOTH",
"81 7 OFFCURVE",
"108 -23 OFFCURVE",
"143 -23 CURVE SMOOTH",
"167 -23 OFFCURVE",
"171 -3 OFFCURVE",
"173 38 CURVE SMOOTH",
"183 277 LINE",
"188 468 LINE",
"143 457 LINE",
"220 363 OFFCURVE",
"442 92 OFFCURVE",
"515 6 CURVE SMOOTH",
"526 -7 OFFCURVE",
"540 -19 OFFCURVE",
"564 -19 CURVE SMOOTH",
"584 -19 OFFCURVE",
"612 -6 OFFCURVE",
"611 25 CURVE SMOOTH",
"603 272 LINE",
"620 535 LINE SMOOTH",
"621 558 OFFCURVE",
"591 575 OFFCURVE",
"571 575 CURVE SMOOTH",
"539 575 OFFCURVE",
"520 560 OFFCURVE",
"520 507 CURVE SMOOTH",
"520 473 OFFCURVE",
"525 403 OFFCURVE",
"525 325 CURVE SMOOTH",
"524 237 OFFCURVE",
"520 141 OFFCURVE",
"517 70 CURVE",
"545 100 LINE",
"409 251 OFFCURVE",
"251 457 OFFCURVE",
"186 548 CURVE SMOOTH",
"173 566 OFFCURVE",
"159 575 OFFCURVE",
"136 575 CURVE"
);
}
);
};
layerId = "D34FCF88-AF1D-4520-8FB0-498E26D42FBC";
paths = (
{
closed = 1;
nodes = (
"591 -19 OFFCURVE",
"611 -4 OFFCURVE",
"611 20 CURVE SMOOTH",
"611 47 OFFCURVE",
"599 199 OFFCURVE",
"599 274 CURVE SMOOTH",
"599 382 OFFCURVE",
"622 487 OFFCURVE",
"622 520 CURVE SMOOTH",
"622 549 OFFCURVE",
"595 579 OFFCURVE",
"560 579 CURVE SMOOTH",
"536 579 OFFCURVE",
"532 559 OFFCURVE",
"530 518 CURVE SMOOTH",
"520 279 LINE",
"515 79 LINE",
"560 90 LINE",
"483 185 OFFCURVE",
"261 461 OFFCURVE",
"188 550 CURVE SMOOTH",
"177 563 OFFCURVE",
"163 575 OFFCURVE",
"139 575 CURVE SMOOTH",
"119 575 OFFCURVE",
"91 562 OFFCURVE",
"92 531 CURVE SMOOTH",
"100 284 LINE",
"83 21 LINE SMOOTH",
"82 -2 OFFCURVE",
"112 -19 OFFCURVE",
"132 -19 CURVE SMOOTH",
"164 -19 OFFCURVE",
"183 -4 OFFCURVE",
"183 49 CURVE SMOOTH",
"183 83 OFFCURVE",
"178 153 OFFCURVE",
"178 231 CURVE SMOOTH",
"179 319 OFFCURVE",
"183 415 OFFCURVE",
"186 486 CURVE",
"158 456 LINE",
"294 302 OFFCURVE",
"452 95 OFFCURVE",
"517 5 CURVE SMOOTH",
"530 -13 OFFCURVE",
"545 -19 OFFCURVE",
"567 -19 CURVE"
);
}
);
width = 707;
}
);
unicode = 004E;
},
{
glyphname = O;
lastChange = "2016-01-18 14:27:41 +0000";
layers = (
{
background = {
paths = (
{
closed = 1;
nodes = (
"160 592 OFFCURVE",
"65 400 OFFCURVE",
"65 269 CURVE SMOOTH",
"65 82 OFFCURVE",
"180 -28 OFFCURVE",
"363 -28 CURVE SMOOTH",
"506 -28 OFFCURVE",
"640 154 OFFCURVE",
"640 295 CURVE SMOOTH",
"640 482 OFFCURVE",
"520 592 OFFCURVE",
"342 592 CURVE"
);
},
{
closed = 1;
nodes = (
"469 514 OFFCURVE",
"559 442 OFFCURVE",
"559 295 CURVE SMOOTH",
"559 183 OFFCURVE",
"450 50 OFFCURVE",
"363 50 CURVE SMOOTH",
"226 50 OFFCURVE",
"146 112 OFFCURVE",
"146 269 CURVE SMOOTH",
"146 361 OFFCURVE",
"215 514 OFFCURVE",
"342 514 CURVE SMOOTH"
);
}
);
};
layerId = "D34FCF88-AF1D-4520-8FB0-498E26D42FBC";
paths = (
{
closed = 1;
nodes = (
"545 -28 OFFCURVE",
"640 164 OFFCURVE",
"640 295 CURVE SMOOTH",
"640 482 OFFCURVE",
"525 592 OFFCURVE",
"342 592 CURVE SMOOTH",
"199 592 OFFCURVE",
"65 410 OFFCURVE",
"65 269 CURVE SMOOTH",
"65 82 OFFCURVE",
"185 -28 OFFCURVE",
"363 -28 CURVE"
);
},
{
closed = 1;
nodes = (
"236 51 OFFCURVE",
"146 123 OFFCURVE",
"146 269 CURVE SMOOTH",
"146 381 OFFCURVE",
"255 513 OFFCURVE",
"342 513 CURVE SMOOTH",
"479 513 OFFCURVE",
"559 431 OFFCURVE",
"559 295 CURVE SMOOTH",
"559 203 OFFCURVE",
"490 51 OFFCURVE",
"363 51 CURVE SMOOTH"
);
}
);
width = 715;
}
);
unicode = 004F;
},
{
glyphname = P;
lastChange = "2016-01-18 14:27:41 +0000";
layers = (
{
background = {
paths = (
{
closed = 1;
nodes = (
"389 23 LINE SMOOTH",
"415 -7 OFFCURVE",
"433 -19 OFFCURVE",
"463 -19 CURVE SMOOTH",
"486 -19 OFFCURVE",
"502 -7 OFFCURVE",
"502 1 CURVE SMOOTH",
"502 11 OFFCURVE",
"494 27 OFFCURVE",
"475 49 CURVE SMOOTH",
"378 159 LINE SMOOTH",
"356 184 OFFCURVE",
"332 218 OFFCURVE",
"319 241 CURVE",
"303 210 LINE",
"400 267 OFFCURVE",
"451 317 OFFCURVE",
"451 405 CURVE SMOOTH",
"451 522 OFFCURVE",
"349 592 OFFCURVE",
"237 592 CURVE SMOOTH",
"184 592 OFFCURVE",
"143 585 OFFCURVE",
"97 564 CURVE",
"97 279 LINE",
"94 40 LINE SMOOTH",
"94 4 OFFCURVE",
"115 -19 OFFCURVE",
"148 -19 CURVE SMOOTH",
"164 -19 OFFCURVE",
"187 -3 OFFCURVE",
"187 18 CURVE SMOOTH",
"187 65 OFFCURVE",
"176 119 OFFCURVE",
"176 171 CURVE SMOOTH",
"176 274 LINE",
"179 520 LINE",
"153 497 LINE",
"181 507 OFFCURVE",
"209 513 OFFCURVE",
"237 513 CURVE SMOOTH",
"327 513 OFFCURVE",
"370 472 OFFCURVE",
"370 405 CURVE SMOOTH",
"370 295 OFFCURVE",
"231 287 OFFCURVE",
"231 236 CURVE SMOOTH",
"231 216 OFFCURVE",
"274 160 OFFCURVE",
"311 116 CURVE SMOOTH"
);
}
);
};
layerId = "D34FCF88-AF1D-4520-8FB0-498E26D42FBC";
paths = (
{
closed = 1;
nodes = (
"231 198 OFFCURVE",
"272 175 OFFCURVE",
"293 175 CURVE SMOOTH",
"341 175 OFFCURVE",
"467 249 OFFCURVE",
"467 385 CURVE SMOOTH",
"467 515 OFFCURVE",
"371 592 OFFCURVE",
"242 592 CURVE SMOOTH",
"174 592 OFFCURVE",
"72 571 OFFCURVE",
"72 535 CURVE SMOOTH",
"72 503 OFFCURVE",
"97 495 OFFCURVE",
"97 435 CURVE",
"97 279 LINE",
"97 180 OFFCURVE",
"86 80 OFFCURVE",
"86 40 CURVE SMOOTH",
"86 11 OFFCURVE",
"116 -19 OFFCURVE",
"153 -19 CURVE SMOOTH",
"171 -19 OFFCURVE",
"184 -3 OFFCURVE",
"184 18 CURVE SMOOTH",
"184 65 OFFCURVE",
"176 119 OFFCURVE",
"176 171 CURVE SMOOTH",
"176 274 LINE",
"179 520 LINE",
"153 497 LINE",
"183 507 OFFCURVE",
"212 513 OFFCURVE",
"242 513 CURVE SMOOTH",
"334 513 OFFCURVE",
"386 465 OFFCURVE",
"386 385 CURVE SMOOTH",
"386 261 OFFCURVE",
"231 223 OFFCURVE",
"231 211 CURVE"
);
}
);
width = 524;
}
);
unicode = 0050;
},
{
color = 0;
glyphname = Q;
lastChange = "2016-01-18 14:27:46 +0000";
layers = (
{
layerId = "D34FCF88-AF1D-4520-8FB0-498E26D42FBC";
paths = (
{
closed = 1;
nodes = (
"47 16 CURVE SMOOTH",
"47 13 OFFCURVE",
"49 2 OFFCURVE",
"49 2 CURVE SMOOTH",
"95 -74 OFFCURVE",
"186 -54 OFFCURVE",
"255 -86 CURVE SMOOTH",
"270 -93 OFFCURVE",
"388 -154 OFFCURVE",
"402 -161 CURVE SMOOTH",
"420 -168 OFFCURVE",
"482 -189 OFFCURVE",
"490 -190 CURVE SMOOTH",
"516 -192 OFFCURVE",
"566 -175 OFFCURVE",
"579 -145 CURVE",
"579 -144 OFFCURVE",
"580 -130 OFFCURVE",
"580 -125 CURVE SMOOTH",
"580 -109 OFFCURVE",
"579 -86 OFFCURVE",
"557 -86 CURVE SMOOTH",
"533 -86 OFFCURVE",
"514 -102 OFFCURVE",
"490 -102 CURVE SMOOTH",
"451 -102 OFFCURVE",
"404 -76 OFFCURVE",
"373 -57 CURVE",
"387 -34 OFFCURVE",
"433 -24 OFFCURVE",
"446 -13 CURVE SMOOTH",
"548 66 OFFCURVE",
"594 177 OFFCURVE",
"594 303 CURVE SMOOTH",
"594 351 OFFCURVE",
"599 372 OFFCURVE",
"579 413 CURVE SMOOTH",
"571 428 OFFCURVE",
"540 479 OFFCURVE",
"534 487 CURVE SMOOTH",
"469 569 OFFCURVE",
"391 619 OFFCURVE",
"284 619 CURVE SMOOTH",
"169 619 OFFCURVE",
"64 567 OFFCURVE",
"20 457 CURVE",
"20 457 OFFCURVE",
"19 452 OFFCURVE",
"19 451 CURVE SMOOTH",
"19 389 OFFCURVE",
"32 326 OFFCURVE",
"49 266 CURVE",
"53 255 OFFCURVE",
"63 223 OFFCURVE",
"64 222 CURVE SMOOTH",
"83 193 OFFCURVE",
"141 152 OFFCURVE",
"167 134 CURVE SMOOTH",
"179 125 OFFCURVE",
"209 105 OFFCURVE",
"211 105 CURVE SMOOTH",
"212 104 OFFCURVE",
"237 103 OFFCURVE",
"246 103 CURVE SMOOTH",
"263 103 OFFCURVE",
"300 98 OFFCURVE",
"300 126 CURVE SMOOTH",
"300 175 OFFCURVE",
"262 166 OFFCURVE",
"225 178 CURVE SMOOTH",
"190 190 OFFCURVE",
"157 223 OFFCURVE",
"138 251 CURVE SMOOTH",
"135 255 OFFCURVE",
"125 285 OFFCURVE",
"123 296 CURVE SMOOTH",
"121 303 OFFCURVE",
"111 365 OFFCURVE",
"108 384 CURVE",
"108 384 OFFCURVE",
"108 390 OFFCURVE",
"108 391 CURVE SMOOTH",
"108 394 OFFCURVE",
"108 398 OFFCURVE",
"108 398 CURVE",
"137 512 OFFCURVE",
"212 532 OFFCURVE",
"323 532 CURVE SMOOTH",
"355 532 OFFCURVE",
"377 537 OFFCURVE",
"402 516 CURVE SMOOTH",
"413 507 OFFCURVE",
"455 465 OFFCURVE",
"461 457 CURVE SMOOTH",
"472 443 OFFCURVE",
"504 391 OFFCURVE",
"505 384 CURVE SMOOTH",
"505 382 OFFCURVE",
"507 345 OFFCURVE",
"507 331 CURVE SMOOTH",
"507 284 OFFCURVE",
"508 252 OFFCURVE",
"490 207 CURVE SMOOTH",
"472 162 OFFCURVE",
"447 104 OFFCURVE",
"402 75 CURVE SMOOTH",
"384 63 OFFCURVE",
"302 23 OFFCURVE",
"284 16 CURVE",
"284 16 OFFCURVE",
"269 15 OFFCURVE",
"264 15 CURVE SMOOTH",
"210 15 OFFCURVE",
"163 47 OFFCURVE",
"109 47 CURVE SMOOTH",
"86 47 OFFCURVE",
"47 48 OFFCURVE"
);
}
);
width = 627;
}
);
unicode = 0051;
},
{
color = 0;
glyphname = R;
lastChange = "2016-01-11 12:00:07 +0000";
layers = (
{
background = {
paths = (
{
closed = 1;
nodes = (
"570 -77 OFFCURVE",
"576 -50 OFFCURVE",
"563 -34 CURVE SMOOTH",
"532 0 OFFCURVE",
"489 34 OFFCURVE",
"453 73 CURVE SMOOTH",
"386 149 LINE SMOOTH",
"313 231 OFFCURVE",
"261 324 OFFCURVE",
"239 349 CURVE SMOOTH",
"220 371 OFFCURVE",
"180 376 OFFCURVE",
"153 353 CURVE SMOOTH",
"134 335 OFFCURVE",
"147 319 OFFCURVE",
"172 288 CURVE SMOOTH",
"322 102 LINE",
"477 -82 LINE SMOOTH",
"499 -110 OFFCURVE",
"532 -113 OFFCURVE",
"558 -89 CURVE SMOOTH"
);
}
);
};
layerId = "D34FCF88-AF1D-4520-8FB0-498E26D42FBC";
paths = (
{
closed = 1;
nodes = (
"389 23 LINE SMOOTH",
"415 -7 OFFCURVE",
"433 -19 OFFCURVE",
"463 -19 CURVE SMOOTH",
"486 -19 OFFCURVE",
"502 -7 OFFCURVE",
"502 1 CURVE SMOOTH",
"502 11 OFFCURVE",
"494 27 OFFCURVE",
"475 49 CURVE SMOOTH",
"378 159 LINE SMOOTH",
"356 184 OFFCURVE",
"332 218 OFFCURVE",
"319 241 CURVE",
"303 210 LINE",
"400 267 OFFCURVE",
"451 317 OFFCURVE",
"451 405 CURVE SMOOTH",
"451 522 OFFCURVE",
"349 592 OFFCURVE",
"237 592 CURVE SMOOTH",
"184 592 OFFCURVE",
"143 585 OFFCURVE",
"97 564 CURVE",
"97 279 LINE",
"94 40 LINE SMOOTH",
"94 4 OFFCURVE",
"115 -19 OFFCURVE",
"148 -19 CURVE SMOOTH",
"164 -19 OFFCURVE",
"187 -3 OFFCURVE",
"187 18 CURVE SMOOTH",
"187 65 OFFCURVE",
"176 119 OFFCURVE",
"176 171 CURVE SMOOTH",
"176 274 LINE",
"179 520 LINE",
"153 497 LINE",
"181 507 OFFCURVE",
"209 513 OFFCURVE",
"237 513 CURVE SMOOTH",
"327 513 OFFCURVE",
"370 472 OFFCURVE",
"370 405 CURVE SMOOTH",
"370 295 OFFCURVE",
"231 287 OFFCURVE",
"231 236 CURVE SMOOTH",
"231 216 OFFCURVE",
"274 160 OFFCURVE",
"311 116 CURVE SMOOTH"
);
}
);
width = 546;
}
);
unicode = 0052;
},
{
glyphname = S;
lastChange = "2016-01-18 14:27:57 +0000";
layers = (
{
background = {
paths = (
{
closed = 1;
nodes = (
"444 -28 OFFCURVE",
"539 164 OFFCURVE",
"539 295 CURVE SMOOTH",
"539 482 OFFCURVE",
"424 592 OFFCURVE",
"241 592 CURVE SMOOTH",
"98 592 OFFCURVE",
"-36 410 OFFCURVE",
"-36 269 CURVE SMOOTH",
"-36 82 OFFCURVE",
"84 -28 OFFCURVE",
"262 -28 CURVE"
);
},
{
closed = 1;
nodes = (
"135 51 OFFCURVE",
"45 123 OFFCURVE",
"45 269 CURVE SMOOTH",
"45 381 OFFCURVE",
"154 513 OFFCURVE",
"241 513 CURVE SMOOTH",
"378 513 OFFCURVE",
"458 431 OFFCURVE",
"458 295 CURVE SMOOTH",
"458 203 OFFCURVE",
"389 51 OFFCURVE",
"262 51 CURVE SMOOTH"
);
}
);
};
guideLines = (
{
angle = 90;
position = "{54, 279}";
},
{
angle = 90;
position = "{462, 279}";
}
);
layerId = "D34FCF88-AF1D-4520-8FB0-498E26D42FBC";
paths = (
{
closed = 1;
nodes = (
"380 578 OFFCURVE",
"330 589 OFFCURVE",
"274 589 CURVE SMOOTH",
"172 589 OFFCURVE",
"80 534 OFFCURVE",
"80 428 CURVE SMOOTH",
"80 235 OFFCURVE",
"374 267 OFFCURVE",
"374 135 CURVE SMOOTH",
"374 62 OFFCURVE",
"301 46 OFFCURVE",
"253 46 CURVE SMOOTH",
"200 46 OFFCURVE",
"143 59 OFFCURVE",
"98 108 CURVE",
"98 108 OFFCURVE",
"132 14 OFFCURVE",
"132 14 CURVE",
"132 188 LINE SMOOTH",
"132 204 OFFCURVE",
"117 214 OFFCURVE",
"101 214 CURVE SMOOTH",
"77 214 OFFCURVE",
"47 183 OFFCURVE",
"47 128 CURVE SMOOTH",
"47 87 OFFCURVE",
"55 42 OFFCURVE",
"90 12 CURVE SMOOTH",
"124 -15 OFFCURVE",
"190 -33 OFFCURVE",
"253 -33 CURVE SMOOTH",
"376 -33 OFFCURVE",
"455 31 OFFCURVE",
"455 135 CURVE SMOOTH",
"455 335 OFFCURVE",
"161 310 OFFCURVE",
"161 428 CURVE SMOOTH",
"161 487 OFFCURVE",
"214 510 OFFCURVE",
"274 510 CURVE SMOOTH",
"332 510 OFFCURVE",
"370 497 OFFCURVE",
"396 477 CURVE",
"396 477 OFFCURVE",
"354 552 OFFCURVE",
"349 552 CURVE",
"367 408 LINE SMOOTH",
"371 375 OFFCURVE",
"382 366 OFFCURVE",
"402 366 CURVE SMOOTH",
"418 366 OFFCURVE",
"424 375 OFFCURVE",
"426 389 CURVE SMOOTH",
"447 553 LINE SMOOTH",
"451 588 OFFCURVE",
"432 605 OFFCURVE",
"405 605 CURVE SMOOTH",
"385 605 OFFCURVE",
"370 592 OFFCURVE",
"358 564 CURVE",
"358 564 OFFCURVE",
"419 565 OFFCURVE",
"419 565 CURVE"
);
}
);
width = 532;
}
);
unicode = 0053;
},
{
glyphname = T;
lastChange = "2016-01-18 14:27:57 +0000";
layers = (
{
background = {
paths = (
{
closed = 1;
nodes = (
"296 579 CURVE SMOOTH",
"271 579 OFFCURVE",
"269 559 OFFCURVE",
"266 518 CURVE SMOOTH",
"256 279 LINE",
"249 40 LINE SMOOTH",
"248 4 OFFCURVE",
"271 -19 OFFCURVE",
"305 -19 CURVE SMOOTH",
"322 -19 OFFCURVE",
"346 -3 OFFCURVE",
"346 18 CURVE SMOOTH",
"346 65 OFFCURVE",
"335 119 OFFCURVE",
"335 171 CURVE SMOOTH",
"335 274 LINE SMOOTH",
"335 382 OFFCURVE",
"358 487 OFFCURVE",
"358 520 CURVE SMOOTH",
"358 549 OFFCURVE",
"331 579 OFFCURVE"
);
}
);
};
layerId = "D34FCF88-AF1D-4520-8FB0-498E26D42FBC";
paths = (
{
closed = 1;
nodes = (
"256 518 LINE",
"256 279 LINE",
"249 40 LINE SMOOTH",
"248 4 OFFCURVE",
"271 -19 OFFCURVE",
"304 -19 CURVE SMOOTH",
"321 -19 OFFCURVE",
"346 -3 OFFCURVE",
"346 18 CURVE SMOOTH",
"346 65 OFFCURVE",
"335 119 OFFCURVE",
"335 171 CURVE SMOOTH",
"335 274 LINE SMOOTH",
"335 382 OFFCURVE",
"342 487 OFFCURVE",
"342 520 CURVE"
);
},
{
closed = 1;
nodes = (
"54 564 LINE SMOOTH",
"21 564 OFFCURVE",
"14 553 OFFCURVE",
"14 535 CURVE SMOOTH",
"14 516 OFFCURVE",
"47 487 OFFCURVE",
"73 487 CURVE SMOOTH",
"325 487 LINE",
"490 498 LINE SMOOTH",
"516 500 OFFCURVE",
"530 506 OFFCURVE",
"530 526 CURVE SMOOTH",
"530 544 OFFCURVE",
"514 577 OFFCURVE",
"480 575 CURVE SMOOTH",
"294 564 LINE"
);
}
);
width = 553;
}
);
unicode = 0054;
},
{
color = 0;
glyphname = U;
lastChange = "2016-01-18 14:24:28 +0000";
layers = (
{
anchors = (
{
name = top;
position = "{349, 407}";
}
);
background = {
paths = (
{
closed = 1;
nodes = (
"597 -19 OFFCURVE",
"617 -4 OFFCURVE",
"617 20 CURVE SMOOTH",
"617 47 OFFCURVE",
"605 199 OFFCURVE",
"605 274 CURVE SMOOTH",
"605 382 OFFCURVE",
"628 487 OFFCURVE",
"628 520 CURVE SMOOTH",
"628 549 OFFCURVE",
"601 579 OFFCURVE",
"566 579 CURVE SMOOTH",
"542 579 OFFCURVE",
"538 559 OFFCURVE",
"536 518 CURVE SMOOTH",
"526 279 LINE",
"521 79 LINE",
"566 90 LINE",
"489 185 OFFCURVE",
"268 462 OFFCURVE",
"194 550 CURVE SMOOTH",
"183 563 OFFCURVE",
"169 575 OFFCURVE",
"145 575 CURVE SMOOTH",
"125 575 OFFCURVE",
"97 562 OFFCURVE",
"98 531 CURVE SMOOTH",
"106 284 LINE",
"89 21 LINE SMOOTH",
"88 -2 OFFCURVE",
"118 -19 OFFCURVE",
"138 -19 CURVE SMOOTH",
"170 -19 OFFCURVE",
"189 -4 OFFCURVE",
"189 49 CURVE SMOOTH",
"189 83 OFFCURVE",
"184 153 OFFCURVE",
"184 231 CURVE SMOOTH",
"184 319 OFFCURVE",
"189 415 OFFCURVE",
"192 486 CURVE",
"164 456 LINE",
"300 302 OFFCURVE",
"458 95 OFFCURVE",
"523 5 CURVE SMOOTH",
"536 -13 OFFCURVE",
"551 -19 OFFCURVE",
"573 -19 CURVE"
);
}
);
};
layerId = "D34FCF88-AF1D-4520-8FB0-498E26D42FBC";
paths = (
{
closed = 1;
nodes = (
"532 40 LINE SMOOTH",
"535 13 OFFCURVE",
"558 -19 OFFCURVE",
"598 -19 CURVE SMOOTH",
"616 -19 OFFCURVE",
"629 -5 OFFCURVE",
"629 13 CURVE SMOOTH",
"629 56 OFFCURVE",
"587 199 OFFCURVE",
"587 274 CURVE SMOOTH",
"587 375 OFFCURVE",
"628 489 OFFCURVE",
"628 520 CURVE SMOOTH",
"628 549 OFFCURVE",
"601 579 OFFCURVE",
"576 579 CURVE SMOOTH",
"551 579 OFFCURVE",
"546 558 OFFCURVE",
"536 518 CURVE SMOOTH",
"448 184 OFFCURVE",
"357 51 OFFCURVE",
"257 51 CURVE SMOOTH",
"208 51 OFFCURVE",
"161 87 OFFCURVE",
"161 244 CURVE SMOOTH",
"161 357 OFFCURVE",
"204 485 OFFCURVE",
"204 520 CURVE SMOOTH",
"204 549 OFFCURVE",
"177 579 OFFCURVE",
"152 579 CURVE SMOOTH",
"121 579 OFFCURVE",
"78 427 OFFCURVE",
"78 247 CURVE SMOOTH",
"78 28 OFFCURVE",
"165 -28 OFFCURVE",
"257 -28 CURVE SMOOTH",
"416 -28 OFFCURVE",
"517 199 OFFCURVE",
"542 323 CURVE",
"505 274 LINE"
);
}
);
width = 706;
}
);
unicode = 0055;
},
{
glyphname = V;
lastChange = "2016-01-18 14:27:57 +0000";
layers = (
{
layerId = "D34FCF88-AF1D-4520-8FB0-498E26D42FBC";
paths = (
{
closed = 1;
nodes = (
"275 -28 OFFCURVE",
"304 -7 OFFCURVE",
"329 31 CURVE SMOOTH",
"415 163 LINE SMOOTH",
"494 283 OFFCURVE",
"550 401 OFFCURVE",
"559 522 CURVE SMOOTH",
"561 548 OFFCURVE",
"552 575 OFFCURVE",
"518 575 CURVE SMOOTH",
"496 575 OFFCURVE",
"482 559 OFFCURVE",
"478 531 CURVE SMOOTH",
"459 388 OFFCURVE",
"390 270 OFFCURVE",
"353 208 CURVE SMOOTH",
"290 111 LINE SMOOTH",
"284 102 OFFCURVE",
"276 94 OFFCURVE",
"270 94 CURVE SMOOTH",
"264 94 OFFCURVE",
"258 97 OFFCURVE",
"255 106 CURVE SMOOTH",
"233 163 LINE SMOOTH",
"219 199 OFFCURVE",
"201 241 OFFCURVE",
"188 278 CURVE SMOOTH",
"137 422 LINE SMOOTH",
"121 468 OFFCURVE",
"116 517 OFFCURVE",
"108 541 CURVE SMOOTH",
"96 573 OFFCURVE",
"64 575 OFFCURVE",
"49 575 CURVE SMOOTH",
"29 575 OFFCURVE",
"8 566 OFFCURVE",
"8 529 CURVE SMOOTH",
"8 513 OFFCURVE",
"26 471 OFFCURVE",
"44 420 CURVE SMOOTH",
"70 349 OFFCURVE",
"101 263 OFFCURVE",
"123 209 CURVE SMOOTH",
"197 25 LINE SMOOTH",
"206 2 OFFCURVE",
"232 -28 OFFCURVE",
"258 -28 CURVE SMOOTH"
);
}
);
width = 578;
}
);
unicode = 0056;
},
{
glyphname = W;
lastChange = "2016-01-18 14:27:57 +0000";
layers = (
{
background = {
paths = (
{
closed = 1;
nodes = (
"376 -28 OFFCURVE",
"391 -18 OFFCURVE",
"407 12 CURVE SMOOTH",
"523 287 LINE SMOOTH",
"543 335 OFFCURVE",
"569 368 OFFCURVE",
"592 409 CURVE",
"550 407 LINE",
"621 282 OFFCURVE",
"692 109 OFFCURVE",
"742 -17 CURVE",
"752 -23 OFFCURVE",
"764 -28 OFFCURVE",
"783 -28 CURVE SMOOTH",
"809 -28 OFFCURVE",
"830 -8 OFFCURVE",
"851 27 CURVE SMOOTH",
"948 191 OFFCURVE",
"997 401 OFFCURVE",
"997 504 CURVE SMOOTH",
"997 550 OFFCURVE",
"975 575 OFFCURVE",
"946 575 CURVE SMOOTH",
"930 575 OFFCURVE",
"917 572 OFFCURVE",
"903 563 CURVE",
"914 367 OFFCURVE",
"856 193 OFFCURVE",
"791 80 CURVE",
"813 50 LINE",
"687 319 LINE SMOOTH",
"664 368 OFFCURVE",
"626 462 OFFCURVE",
"618 533 CURVE SMOOTH",
"616 547 OFFCURVE",
"613 575 OFFCURVE",
"582 575 CURVE SMOOTH",
"563 575 OFFCURVE",
"541 565 OFFCURVE",
"527 544 CURVE",
"524 523 OFFCURVE",
"525 496 OFFCURVE",
"527 474 CURVE",
"469 342 OFFCURVE",
"410 218 OFFCURVE",
"352 105 CURVE",
"394 118 LINE",
"346 225 OFFCURVE",
"299 328 OFFCURVE",
"246 433 CURVE SMOOTH",
"215 495 OFFCURVE",
"166 575 OFFCURVE",
"143 575 CURVE SMOOTH",
"124 575 OFFCURVE",
"85 546 OFFCURVE",
"85 518 CURVE SMOOTH",
"85 500 OFFCURVE",
"135 455 OFFCURVE",
"156 422 CURVE SMOOTH",
"202 351 OFFCURVE",
"235 277 OFFCURVE",
"266 205 CURVE SMOOTH",
"296 134 OFFCURVE",
"315 54 OFFCURVE",
"325 -21 CURVE",
"334 -26 OFFCURVE",
"342 -28 OFFCURVE",
"352 -28 CURVE"
);
}
);
};
guideLines = (
{
position = "{435, 88}";
}
);
layerId = "D34FCF88-AF1D-4520-8FB0-498E26D42FBC";
paths = (
{
closed = 1;
nodes = (
"292 -28 OFFCURVE",
"307 -18 OFFCURVE",
"320 12 CURVE SMOOTH",
"436 287 LINE SMOOTH",
"456 335 OFFCURVE",
"476 369 OFFCURVE",
"505 409 CURVE",
"463 407 LINE",
"534 282 OFFCURVE",
"605 109 OFFCURVE",
"655 -17 CURVE",
"665 -23 OFFCURVE",
"677 -28 OFFCURVE",
"696 -28 CURVE SMOOTH",
"722 -28 OFFCURVE",
"743 -8 OFFCURVE",
"764 27 CURVE SMOOTH",
"861 191 OFFCURVE",
"910 401 OFFCURVE",
"910 504 CURVE SMOOTH",
"910 550 OFFCURVE",
"888 575 OFFCURVE",
"859 575 CURVE SMOOTH",
"843 575 OFFCURVE",
"830 572 OFFCURVE",
"816 563 CURVE",
"827 367 OFFCURVE",
"769 193 OFFCURVE",
"704 80 CURVE",
"726 50 LINE",
"600 319 LINE SMOOTH",
"577 368 OFFCURVE",
"539 462 OFFCURVE",
"531 533 CURVE SMOOTH",
"529 547 OFFCURVE",
"526 575 OFFCURVE",
"495 575 CURVE SMOOTH",
"476 575 OFFCURVE",
"454 565 OFFCURVE",
"440 544 CURVE",
"437 523 OFFCURVE",
"438 496 OFFCURVE",
"440 474 CURVE",
"382 342 OFFCURVE",
"318 198 OFFCURVE",
"269 85 CURVE",
"304 91 LINE",
"270 209 OFFCURVE",
"212 330 OFFCURVE",
"159 433 CURVE SMOOTH",
"127 495 OFFCURVE",
"79 575 OFFCURVE",
"56 575 CURVE SMOOTH",
"37 575 OFFCURVE",
"-2 546 OFFCURVE",
"-2 518 CURVE SMOOTH",
"-2 500 OFFCURVE",
"48 455 OFFCURVE",
"69 422 CURVE SMOOTH",
"115 351 OFFCURVE",
"148 277 OFFCURVE",
"179 205 CURVE SMOOTH",
"212 134 OFFCURVE",
"232 54 OFFCURVE",
"243 -21 CURVE",
"251 -26 OFFCURVE",
"260 -28 OFFCURVE",
"270 -28 CURVE"
);
}
);
width = 952;
}
);
unicode = 0057;
},
{
color = 0;
glyphname = X;
lastChange = "2016-01-18 14:28:12 +0000";
layers = (
{
layerId = "D34FCF88-AF1D-4520-8FB0-498E26D42FBC";
paths = (
{
closed = 1;
nodes = (
"105 13 CURVE",
"105 7 OFFCURVE",
"107 -8 OFFCURVE",
"108 -10 CURVE",
"112 -17 OFFCURVE",
"144 -37 OFFCURVE",
"152 -39 CURVE",
"167 -27 OFFCURVE",
"228 35 OFFCURVE",
"240 49 CURVE",
"247 57 OFFCURVE",
"293 128 OFFCURVE",
"299 138 CURVE",
"312 155 OFFCURVE",
"342 196 OFFCURVE",
"343 196 CURVE",
"373 181 LINE",
"505 34 LINE",
"517 21 OFFCURVE",
"547 16 OFFCURVE",
"564 16 CURVE",
"564 79 LINE",
"564 79 OFFCURVE",
"482 172 OFFCURVE",
"446 211 CURVE",
"442 216 OFFCURVE",
"405 250 OFFCURVE",
"402 255 CURVE",
"401 256 OFFCURVE",
"400 266 OFFCURVE",
"400 270 CURVE",
"400 272 OFFCURVE",
"401 283 OFFCURVE",
"402 284 CURVE",
"419 316 OFFCURVE",
"501 460 OFFCURVE",
"520 490 CURVE",
"521 494 OFFCURVE",
"547 516 OFFCURVE",
"549 520 CURVE",
"550 520 OFFCURVE",
"550 534 OFFCURVE",
"550 540 CURVE",
"550 569 OFFCURVE",
"546 595 OFFCURVE",
"512 595 CURVE",
"433 595 OFFCURVE",
"385 400 OFFCURVE",
"314 343 CURVE",
"288 371 OFFCURVE",
"165 494 OFFCURVE",
"138 520 CURVE",
"124 532 OFFCURVE",
"73 573 OFFCURVE",
"64 579 CURVE",
"63 579 OFFCURVE",
"54 580 OFFCURVE",
"50 580 CURVE",
"35 580 OFFCURVE",
"19 575 OFFCURVE",
"19 556 CURVE",
"19 537 OFFCURVE",
"38 517 OFFCURVE",
"49 505 CURVE",
"63 490 OFFCURVE",
"182 373 OFFCURVE",
"196 358 CURVE",
"219 333 OFFCURVE",
"271 271 OFFCURVE",
"270 270 CURVE",
"108 34 LINE",
"107 33 OFFCURVE",
"105 18 OFFCURVE"
);
}
);
width = 602;
}
);
unicode = 0058;
},
{
glyphname = Y;
lastChange = "2016-01-18 14:27:57 +0000";
layers = (
{
background = {
paths = (
{
closed = 1;
nodes = (
"667 28 OFFCURVE",
"684 44 OFFCURVE",
"681 59 CURVE",
"679 73 OFFCURVE",
"659 90 OFFCURVE",
"601 131 CURVE",
"428 254 LINE",
"402 272 OFFCURVE",
"334 315 OFFCURVE",
"339 286 CURVE SMOOTH",
"345 251 LINE",
"450 412 LINE",
"481 460 OFFCURVE",
"503 519 OFFCURVE",
"495 566 CURVE",
"492 590 OFFCURVE",
"480 602 OFFCURVE",
"463 599 CURVE",
"442 594 OFFCURVE",
"435 582 OFFCURVE",
"423 557 CURVE",
"401 511 OFFCURVE",
"402 480 OFFCURVE",
"360 417 CURVE",
"271 283 LINE",
"262 269 OFFCURVE",
"251 253 OFFCURVE",
"254 239 CURVE",
"256 225 OFFCURVE",
"268 220 OFFCURVE",
"286 216 CURVE",
"333 208 LINE",
"362 204 OFFCURVE",
"392 178 OFFCURVE",
"432 151 CURVE",
"532 80 LINE",
"568 54 OFFCURVE",
"590 14 OFFCURVE",
"640 23 CURVE"
);
}
);
};
layerId = "D34FCF88-AF1D-4520-8FB0-498E26D42FBC";
paths = (
{
closed = 1;
nodes = (
"321 -19 OFFCURVE",
"345 -3 OFFCURVE",
"345 18 CURVE SMOOTH",
"345 86 OFFCURVE",
"331 190 OFFCURVE",
"335 257 CURVE",
"324 223 LINE",
"342 247 OFFCURVE",
"368 285 OFFCURVE",
"420 366 CURVE SMOOTH",
"470 444 OFFCURVE",
"530 497 OFFCURVE",
"530 525 CURVE SMOOTH",
"530 555 OFFCURVE",
"509 579 OFFCURVE",
"490 579 CURVE SMOOTH",
"469 579 OFFCURVE",
"452 556 OFFCURVE",
"426 512 CURVE SMOOTH",
"378 430 OFFCURVE",
"299 315 OFFCURVE",
"293 315 CURVE SMOOTH",
"277 315 OFFCURVE",
"159 496 OFFCURVE",
"138 525 CURVE SMOOTH",
"116 555 OFFCURVE",
"99 579 OFFCURVE",
"69 579 CURVE SMOOTH",
"48 579 OFFCURVE",
"25 565 OFFCURVE",
"25 549 CURVE SMOOTH",
"25 532 OFFCURVE",
"60 486 OFFCURVE",
"96 436 CURVE SMOOTH",
"152 359 OFFCURVE",
"221 259 OFFCURVE",
"244 230 CURVE",
"249 176 OFFCURVE",
"249 148 OFFCURVE",
"248 40 CURVE SMOOTH",
"247 4 OFFCURVE",
"270 -19 OFFCURVE",
"304 -19 CURVE SMOOTH"
);
}
);
width = 578;
}
);
unicode = 0059;
},
{
color = 0;
glyphname = Z;
lastChange = "2016-01-18 14:28:12 +0000";
layers = (
{
layerId = "D34FCF88-AF1D-4520-8FB0-498E26D42FBC";
paths = (
{
closed = 1;
nodes = (
"225 15 CURVE",
"239 15 OFFCURVE",
"352 5 OFFCURVE",
"388 0 CURVE",
"394 -1 OFFCURVE",
"453 -14 OFFCURVE",
"461 -15 CURVE",
"462 -15 OFFCURVE",
"466 -15 OFFCURVE",
"469 -15 CURVE",
"469 -15 OFFCURVE",
"475 -15 OFFCURVE",
"475 -15 CURVE",
"495 -12 OFFCURVE",
"556 -2 OFFCURVE",
"564 0 CURVE",
"580 4 OFFCURVE",
"653 24 OFFCURVE",
"653 51 CURVE",
"653 68 OFFCURVE",
"636 103 OFFCURVE",
"616 103 CURVE",
"556 103 OFFCURVE",
"500 73 OFFCURVE",
"439 73 CURVE",
"371 73 OFFCURVE",
"293 97 OFFCURVE",
"225 103 CURVE",
"564 544 LINE",
"564 545 OFFCURVE",
"566 555 OFFCURVE",
"566 558 CURVE",
"566 592 OFFCURVE",
"538 604 OFFCURVE",
"509 604 CURVE",
"502 604 OFFCURVE",
"478 603 OFFCURVE",
"475 603 CURVE",
"461 602 OFFCURVE",
"343 589 OFFCURVE",
"329 588 CURVE",
"284 587 OFFCURVE",
"79 587 OFFCURVE",
"34 588 CURVE",
"30 588 OFFCURVE",
"20 578 OFFCURVE",
"20 573 CURVE",
"20 558 OFFCURVE",
"54 518 OFFCURVE",
"64 514 CURVE",
"90 504 OFFCURVE",
"132 499 OFFCURVE",
"165 499 CURVE",
"170 499 OFFCURVE",
"180 500 OFFCURVE",
"182 500 CURVE",
"217 502 OFFCURVE",
"381 512 OFFCURVE",
"417 514 CURVE",
"417 500 LINE",
"287 354 OFFCURVE",
"195 176 OFFCURVE",
"34 59 CURVE",
"34 57 OFFCURVE",
"34 47 OFFCURVE",
"34 44 CURVE",
"34 20 OFFCURVE",
"61 0 OFFCURVE",
"85 0 CURVE",
"87 0 OFFCURVE",
"93 0 OFFCURVE",
"93 0 CURVE",
"106 2 OFFCURVE",
"212 15 OFFCURVE"
);
}
);
width = 676;
}
);
unicode = 005A;
},
{
color = 0;
glyphname = Q.alt01;
lastChange = "2016-01-18 14:28:22 +0000";
layers = (
{
layerId = "D34FCF88-AF1D-4520-8FB0-498E26D42FBC";
paths = (
{
closed = 1;
nodes = (
"165 40 CURVE",
"165 -36 OFFCURVE",
"271 -4 OFFCURVE",
"314 -13 CURVE",
"316 -14 OFFCURVE",
"347 -34 OFFCURVE",
"358 -42 CURVE",
"367 -49 OFFCURVE",
"418 -90 OFFCURVE",
"431 -101 CURVE",
"433 -102 OFFCURVE",
"444 -115 OFFCURVE",
"446 -116 CURVE",
"455 -120 OFFCURVE",
"517 -141 OFFCURVE",
"534 -145 CURVE",
"535 -145 OFFCURVE",
"540 -146 OFFCURVE",
"542 -146 CURVE",
"589 -146 OFFCURVE",
"640 -107 OFFCURVE",
"666 -72 CURVE",
"666 -71 OFFCURVE",
"667 -66 OFFCURVE",
"667 -65 CURVE",
"667 -45 OFFCURVE",
"660 -26 OFFCURVE",
"639 -26 CURVE",
"598 -26 OFFCURVE",
"568 -58 OFFCURVE",
"527 -58 CURVE",
"477 -58 OFFCURVE",
"436 -15 OFFCURVE",
"402 17 CURVE",
"401 18 OFFCURVE",
"400 29 OFFCURVE",
"400 31 CURVE",
"400 34 OFFCURVE",
"401 45 OFFCURVE",
"402 46 CURVE",
"405 52 OFFCURVE",
"443 99 OFFCURVE",
"446 105 CURVE",
"491 177 OFFCURVE",
"521 272 OFFCURVE",
"521 357 CURVE",
"521 476 OFFCURVE",
"450 571 OFFCURVE",
"329 590 CURVE",
"326 590 OFFCURVE",
"290 592 OFFCURVE",
"277 592 CURVE",
"269 592 OFFCURVE",
"233 590 OFFCURVE",
"225 590 CURVE",
"225 585 OFFCURVE",
"214 564 OFFCURVE",
"211 560 CURVE",
"201 550 OFFCURVE",
"118 469 OFFCURVE",
"108 457 CURVE",
"52 396 OFFCURVE",
"33 338 OFFCURVE",
"33 257 CURVE",
"33 209 OFFCURVE",
"23 118 OFFCURVE",
"79 90 CURVE",
"93 105 LINE",
"94 131 OFFCURVE",
"105 255 OFFCURVE",
"108 281 CURVE",
"109 289 OFFCURVE",
"119 319 OFFCURVE",
"123 325 CURVE",
"135 345 OFFCURVE",
"197 427 OFFCURVE",
"211 443 CURVE",
"245 481 OFFCURVE",
"290 488 OFFCURVE",
"336 488 CURVE",
"344 488 OFFCURVE",
"380 488 OFFCURVE",
"388 487 CURVE",
"431 461 OFFCURVE",
"433 411 OFFCURVE",
"433 366 CURVE",
"433 355 OFFCURVE",
"432 326 OFFCURVE",
"431 325 CURVE",
"430 314 OFFCURVE",
"399 221 OFFCURVE",
"388 193 CURVE",
"383 182 OFFCURVE",
"362 141 OFFCURVE",
"358 134 CURVE",
"349 123 OFFCURVE",
"319 92 OFFCURVE",
"314 90 CURVE",
"303 86 OFFCURVE",
"208 78 OFFCURVE",
"196 75 CURVE",
"189 74 OFFCURVE",
"168 63 OFFCURVE",
"167 60 CURVE",
"167 60 OFFCURVE",
"165 46 OFFCURVE"
);
}
);
width = 681;
}
);
},
{
color = 0;
glyphname = M.alt02;
lastChange = "2016-01-18 14:28:22 +0000";
layers = (
{
layerId = "D34FCF88-AF1D-4520-8FB0-498E26D42FBC";
paths = (
{
closed = 1;
nodes = (
"510 353 CURVE",
"513 313 OFFCURVE",
"533 128 OFFCURVE",
"539 89 CURVE",
"543 52 OFFCURVE",
"555 -15 OFFCURVE",
"605 -15 CURVE",
"622 -15 OFFCURVE",
"627 -1 OFFCURVE",
"627 14 CURVE",
"627 17 OFFCURVE",
"627 28 OFFCURVE",
"627 30 CURVE",
"626 40 OFFCURVE",
"613 122 OFFCURVE",
"612 132 CURVE",
"611 190 OFFCURVE",
"611 457 OFFCURVE",
"612 514 CURVE",
"600 550 OFFCURVE",
"590 560 OFFCURVE",
"553 560 CURVE",
"550 560 OFFCURVE",
"529 559 OFFCURVE",
"524 559 CURVE",
"519 545 OFFCURVE",
"488 483 OFFCURVE",
"480 471 CURVE",
"462 441 OFFCURVE",
"369 307 OFFCURVE",
"348 280 CURVE",
"288 329 OFFCURVE",
"249 412 OFFCURVE",
"201 471 CURVE",
"167 511 OFFCURVE",
"131 559 OFFCURVE",
"76 559 CURVE",
"63 559 OFFCURVE",
"44 562 OFFCURVE",
"39 544 CURVE",
"41 491 OFFCURVE",
"41 244 OFFCURVE",
"39 191 CURVE",
"39 178 OFFCURVE",
"26 72 OFFCURVE",
"24 59 CURVE",
"24 59 OFFCURVE",
"24 53 OFFCURVE",
"24 50 CURVE",
"24 18 OFFCURVE",
"48 -2 OFFCURVE",
"77 -2 CURVE",
"83 -2 OFFCURVE",
"98 0 OFFCURVE",
"98 0 CURVE",
"103 3 OFFCURVE",
"114 24 OFFCURVE",
"112 30 CURVE",
"123 158 OFFCURVE",
"132 309 OFFCURVE",
"128 441 CURVE",
"130 439 OFFCURVE",
"140 429 OFFCURVE",
"142 426 CURVE",
"157 407 OFFCURVE",
"274 241 OFFCURVE",
"289 221 CURVE",
"306 198 OFFCURVE",
"333 176 OFFCURVE",
"362 176 CURVE",
"379 176 OFFCURVE",
"381 176 OFFCURVE",
"392 191 CURVE",
"400 204 OFFCURVE",
"471 311 OFFCURVE",
"480 323 CURVE",
"484 329 OFFCURVE",
"504 349 OFFCURVE"
);
}
);
width = 657;
}
);
},
{
color = 0;
glyphname = O.alt02;
lastChange = "2016-01-18 14:28:22 +0000";
layers = (
{
layerId = "D34FCF88-AF1D-4520-8FB0-498E26D42FBC";
paths = (
{
closed = 1;
nodes = (
"18 256 CURVE",
"18 243 OFFCURVE",
"19 209 OFFCURVE",
"20 208 CURVE",
"23 190 OFFCURVE",
"44 128 OFFCURVE",
"49 119 CURVE",
"62 102 OFFCURVE",
"134 29 OFFCURVE",
"152 17 CURVE",
"157 13 OFFCURVE",
"219 -8 OFFCURVE",
"240 -13 CURVE",
"246 -15 OFFCURVE",
"308 -24 OFFCURVE",
"329 -28 CURVE",
"329 -28 OFFCURVE",
"335 -28 OFFCURVE",
"336 -28 CURVE",
"423 -28 OFFCURVE",
"510 93 OFFCURVE",
"534 164 CURVE",
"535 179 OFFCURVE",
"536 251 OFFCURVE",
"536 267 CURVE",
"536 450 OFFCURVE",
"495 591 OFFCURVE",
"284 591 CURVE",
"150 591 OFFCURVE",
"83 485 OFFCURVE",
"34 369 CURVE",
"18 328 OFFCURVE",
"18 299 OFFCURVE"
);
},
{
closed = 1;
nodes = (
"108 164 CURVE",
"108 174 OFFCURVE",
"106 225 OFFCURVE",
"106 237 CURVE",
"106 256 OFFCURVE",
"108 307 OFFCURVE",
"108 310 CURVE",
"109 326 OFFCURVE",
"128 368 OFFCURVE",
"138 384 CURVE",
"177 451 OFFCURVE",
"232 503 OFFCURVE",
"313 503 CURVE",
"450 503 OFFCURVE",
"448 420 OFFCURVE",
"448 303 CURVE",
"448 255 OFFCURVE",
"452 190 OFFCURVE",
"417 149 CURVE",
"409 139 OFFCURVE",
"368 98 OFFCURVE",
"358 90 CURVE",
"331 67 OFFCURVE",
"304 74 OFFCURVE",
"270 74 CURVE",
"203 74 OFFCURVE",
"137 94 OFFCURVE"
);
}
);
width = 569;
}
);
},
{
color = 0;
glyphname = Q.alt02;
lastChange = "2016-01-18 14:28:22 +0000";
layers = (
{
layerId = "D34FCF88-AF1D-4520-8FB0-498E26D42FBC";
paths = (
{
closed = 1;
nodes = (
"342 16 CURVE",
"342 -28 OFFCURVE",
"407 -38 OFFCURVE",
"431 -57 CURVE",
"438 -62 OFFCURVE",
"484 -110 OFFCURVE",
"490 -115 CURVE",
"491 -117 OFFCURVE",
"512 -128 OFFCURVE",
"520 -131 CURVE",
"535 -137 OFFCURVE",
"587 -157 OFFCURVE",
"593 -160 CURVE",
"594 -160 OFFCURVE",
"598 -161 OFFCURVE",
"601 -161 CURVE",
"632 -161 OFFCURVE",
"712 -132 OFFCURVE",
"712 -96 CURVE",
"712 -89 OFFCURVE",
"715 -57 OFFCURVE",
"696 -57 CURVE",
"549 -57 LINE",
"505 -13 LINE",
"525 2 OFFCURVE",
"608 85 OFFCURVE",
"622 105 CURVE",
"634 121 OFFCURVE",
"676 203 OFFCURVE",
"681 222 CURVE",
"682 223 OFFCURVE",
"683 251 OFFCURVE",
"683 261 CURVE",
"683 474 OFFCURVE",
"498 635 OFFCURVE",
"291 635 CURVE",
"113 635 OFFCURVE",
"19 509 OFFCURVE",
"19 338 CURVE",
"19 232 OFFCURVE",
"132 28 OFFCURVE",
"252 28 CURVE",
"252 102 OFFCURVE",
"168 131 OFFCURVE",
"138 193 CURVE",
"131 206 OFFCURVE",
"110 268 OFFCURVE",
"108 281 CURVE",
"108 284 OFFCURVE",
"106 319 OFFCURVE",
"106 332 CURVE",
"106 404 OFFCURVE",
"120 473 OFFCURVE",
"182 517 CURVE",
"193 524 OFFCURVE",
"234 545 OFFCURVE",
"240 546 CURVE",
"242 546 OFFCURVE",
"290 547 OFFCURVE",
"309 547 CURVE",
"416 547 OFFCURVE",
"491 525 OFFCURVE",
"549 428 CURVE",
"560 409 OFFCURVE",
"591 347 OFFCURVE",
"593 340 CURVE",
"594 338 OFFCURVE",
"595 308 OFFCURVE",
"595 297 CURVE",
"595 211 OFFCURVE",
"526 111 OFFCURVE",
"446 76 CURVE",
"438 72 OFFCURVE",
"366 50 OFFCURVE",
"358 46 CURVE",
"342 39 OFFCURVE",
"342 30 OFFCURVE"
);
}
);
width = 730;
}
);
},
{
color = 0;
glyphname = W.alt02;
lastChange = "2016-01-18 14:28:22 +0000";
layers = (
{
layerId = "D34FCF88-AF1D-4520-8FB0-498E26D42FBC";
paths = (
{
closed = 1;
nodes = (
"19 562 CURVE",
"19 559 OFFCURVE",
"19 554 OFFCURVE",
"20 554 CURVE",
"57 471 OFFCURVE",
"105 389 OFFCURVE",
"138 304 CURVE",
"139 299 OFFCURVE",
"151 251 OFFCURVE",
"152 245 CURVE",
"157 231 OFFCURVE",
"206 113 OFFCURVE",
"211 99 CURVE",
"213 92 OFFCURVE",
"222 31 OFFCURVE",
"225 24 CURVE",
"232 11 OFFCURVE",
"246 -5 OFFCURVE",
"262 -5 CURVE",
"279 -5 OFFCURVE",
"291 11 OFFCURVE",
"299 24 CURVE",
"303 31 OFFCURVE",
"325 91 OFFCURVE",
"329 99 CURVE",
"335 112 OFFCURVE",
"365 173 OFFCURVE",
"373 186 CURVE",
"377 194 OFFCURVE",
"413 252 OFFCURVE",
"417 260 CURVE",
"446 326 OFFCURVE",
"442 419 OFFCURVE",
"505 465 CURVE",
"533 402 OFFCURVE",
"569 333 OFFCURVE",
"608 274 CURVE",
"609 273 OFFCURVE",
"621 262 OFFCURVE",
"622 260 CURVE",
"631 238 OFFCURVE",
"662 145 OFFCURVE",
"666 128 CURVE",
"676 92 OFFCURVE",
"653 82 OFFCURVE",
"681 54 CURVE",
"695 41 OFFCURVE",
"709 38 OFFCURVE",
"726 38 CURVE",
"743 38 OFFCURVE",
"743 38 OFFCURVE",
"755 54 CURVE",
"797 112 OFFCURVE",
"829 183 OFFCURVE",
"858 245 CURVE",
"862 255 OFFCURVE",
"883 306 OFFCURVE",
"887 319 CURVE",
"903 365 OFFCURVE",
"945 488 OFFCURVE",
"946 495 CURVE",
"946 498 OFFCURVE",
"948 533 OFFCURVE",
"948 546 CURVE",
"948 554 OFFCURVE",
"946 590 OFFCURVE",
"946 598 CURVE",
"940 614 OFFCURVE",
"929 614 OFFCURVE",
"916 614 CURVE",
"877 614 OFFCURVE",
"880 551 OFFCURVE",
"872 524 CURVE",
"860 481 OFFCURVE",
"819 347 OFFCURVE",
"813 333 CURVE",
"812 329 OFFCURVE",
"792 287 OFFCURVE",
"784 274 CURVE",
"778 264 OFFCURVE",
"747 212 OFFCURVE",
"740 201 CURVE",
"737 203 OFFCURVE",
"727 213 OFFCURVE",
"725 216 CURVE",
"722 222 OFFCURVE",
"699 269 OFFCURVE",
"696 274 CURVE",
"687 291 OFFCURVE",
"646 363 OFFCURVE",
"637 378 CURVE",
"634 382 OFFCURVE",
"610 417 OFFCURVE",
"608 422 CURVE",
"600 436 OFFCURVE",
"542 554 OFFCURVE",
"534 569 CURVE",
"529 579 OFFCURVE",
"499 600 OFFCURVE",
"490 598 CURVE",
"451 589 OFFCURVE",
"446 499 OFFCURVE",
"431 465 CURVE",
"387 366 OFFCURVE",
"341 266 OFFCURVE",
"284 172 CURVE",
"283 169 OFFCURVE",
"273 158 OFFCURVE",
"270 157 CURVE",
"267 158 OFFCURVE",
"257 169 OFFCURVE",
"255 172 CURVE",
"202 304 OFFCURVE",
"165 443 OFFCURVE",
"93 569 CURVE",
"88 579 OFFCURVE",
"58 601 OFFCURVE",
"49 598 CURVE",
"46 597 OFFCURVE",
"25 576 OFFCURVE",
"20 569 CURVE",
"19 568 OFFCURVE",
"19 563 OFFCURVE"
);
}
);
width = 975;
}
);
},
{
color = 0;
glyphname = O.alt03;
lastChange = "2016-01-18 14:28:22 +0000";
layers = (
{
layerId = "D34FCF88-AF1D-4520-8FB0-498E26D42FBC";
paths = (
{
closed = 1;
nodes = (
"19 248 CURVE",
"19 75 OFFCURVE",
"128 -24 OFFCURVE",
"292 -24 CURVE",
"310 -24 OFFCURVE",
"355 -23 OFFCURVE",
"358 -23 CURVE",
"361 -23 OFFCURVE",
"381 -12 OFFCURVE",
"388 -8 CURVE",
"393 -4 OFFCURVE",
"439 33 OFFCURVE",
"446 36 CURVE",
"450 38 OFFCURVE",
"486 49 OFFCURVE",
"490 50 CURVE",
"495 54 OFFCURVE",
"516 63 OFFCURVE",
"520 66 CURVE",
"572 100 OFFCURVE",
"594 245 OFFCURVE",
"594 301 CURVE",
"594 442 OFFCURVE",
"520 526 OFFCURVE",
"388 565 CURVE",
"373 569 OFFCURVE",
"321 580 OFFCURVE",
"314 580 CURVE",
"305 580 OFFCURVE",
"243 569 OFFCURVE",
"225 565 CURVE",
"221 564 OFFCURVE",
"201 554 OFFCURVE",
"196 550 CURVE",
"91 472 OFFCURVE",
"19 386 OFFCURVE"
);
},
{
closed = 1;
nodes = (
"106 227 CURVE",
"106 246 OFFCURVE",
"108 297 OFFCURVE",
"108 300 CURVE",
"113 368 OFFCURVE",
"229 491 OFFCURVE",
"299 491 CURVE",
"306 491 OFFCURVE",
"367 482 OFFCURVE",
"388 477 CURVE",
"479 456 OFFCURVE",
"506 416 OFFCURVE",
"506 323 CURVE",
"506 266 OFFCURVE",
"488 158 OFFCURVE",
"431 125 CURVE",
"426 121 OFFCURVE",
"378 99 OFFCURVE",
"373 95 CURVE",
"368 92 OFFCURVE",
"333 68 OFFCURVE",
"329 66 CURVE",
"321 61 OFFCURVE",
"300 50 OFFCURVE",
"299 50 CURVE",
"295 50 OFFCURVE",
"243 61 OFFCURVE",
"225 66 CURVE",
"183 76 OFFCURVE",
"173 83 OFFCURVE",
"138 109 CURVE",
"99 139 OFFCURVE",
"106 183 OFFCURVE"
);
}
);
width = 622;
}
);
},
{
color = 0;
glyphname = D.alt05;
lastChange = "2016-01-18 14:28:22 +0000";
layers = (
{
layerId = "D34FCF88-AF1D-4520-8FB0-498E26D42FBC";
paths = (
{
closed = 1;
nodes = (
"69 539 CURVE",
"69 68 LINE",
"69 52 OFFCURVE",
"102 14 OFFCURVE",
"112 9 CURVE",
"117 8 OFFCURVE",
"168 -3 OFFCURVE",
"186 -5 CURVE",
"196 -7 OFFCURVE",
"289 -17 OFFCURVE",
"319 -20 CURVE",
"319 -20 OFFCURVE",
"325 -21 OFFCURVE",
"327 -21 CURVE",
"328 -21 OFFCURVE",
"333 -20 OFFCURVE",
"333 -20 CURVE",
"352 -15 OFFCURVE",
"413 6 OFFCURVE",
"421 9 CURVE",
"423 11 OFFCURVE",
"455 31 OFFCURVE",
"465 39 CURVE",
"482 50 OFFCURVE",
"524 82 OFFCURVE",
"524 83 CURVE",
"530 90 OFFCURVE",
"571 162 OFFCURVE",
"583 186 CURVE",
"587 194 OFFCURVE",
"597 225 OFFCURVE",
"598 230 CURVE",
"598 233 OFFCURVE",
"599 300 OFFCURVE",
"599 326 CURVE",
"599 375 OFFCURVE",
"607 451 OFFCURVE",
"569 495 CURVE",
"556 507 OFFCURVE",
"495 569 OFFCURVE",
"480 582 CURVE",
"411 644 OFFCURVE",
"308 643 OFFCURVE",
"222 643 CURVE",
"177 643 OFFCURVE",
"79 643 OFFCURVE",
"39 612 CURVE",
"34 608 OFFCURVE",
"23 587 OFFCURVE",
"24 582 CURVE",
"28 573 OFFCURVE",
"60 543 OFFCURVE"
);
},
{
closed = 1;
nodes = (
"157 495 LINE",
"171 553 LINE",
"173 554 OFFCURVE",
"216 556 OFFCURVE",
"235 556 CURVE",
"332 556 OFFCURVE",
"435 556 OFFCURVE",
"495 465 CURVE",
"517 433 OFFCURVE",
"511 381 OFFCURVE",
"511 348 CURVE",
"511 329 OFFCURVE",
"510 277 OFFCURVE",
"510 274 CURVE",
"509 269 OFFCURVE",
"499 238 OFFCURVE",
"495 230 CURVE",
"444 129 OFFCURVE",
"395 99 OFFCURVE",
"289 68 CURVE",
"289 68 OFFCURVE",
"284 68 OFFCURVE",
"282 68 CURVE",
"265 68 OFFCURVE",
"157 69 OFFCURVE",
"157 98 CURVE"
);
}
);
width = 627;
}
);
},
{
glyphname = A.ss01;
lastChange = "2016-01-18 14:28:36 +0000";
layers = (
{
anchors = (
{
name = top;
position = "{319, 407}";
}
);
background = {
paths = (
{
closed = 1;
nodes = (
"305 588 OFFCURVE",
"287 563 OFFCURVE",
"262 525 CURVE SMOOTH",
"176 393 LINE SMOOTH",
"94 268 OFFCURVE",
"32 118 OFFCURVE",
"21 24 CURVE SMOOTH",
"17 -11 OFFCURVE",
"32 -29 OFFCURVE",
"56 -29 CURVE SMOOTH",
"78 -29 OFFCURVE",
"107 -15 OFFCURVE",
"111 15 CURVE SMOOTH",
"131 164 OFFCURVE",
"201 291 OFFCURVE",
"238 348 CURVE SMOOTH",
"301 445 LINE",
"351 516 LINE",
"309 521 LINE",
"358 393 LINE SMOOTH",
"372 356 OFFCURVE",
"390 315 OFFCURVE",
"403 278 CURVE SMOOTH",
"454 134 LINE SMOOTH",
"470 88 OFFCURVE",
"475 39 OFFCURVE",
"483 15 CURVE SMOOTH",
"494 -17 OFFCURVE",
"527 -19 OFFCURVE",
"542 -19 CURVE SMOOTH",
"562 -19 OFFCURVE",
"583 -10 OFFCURVE",
"583 27 CURVE SMOOTH",
"583 43 OFFCURVE",
"565 85 OFFCURVE",
"547 136 CURVE SMOOTH",
"522 207 OFFCURVE",
"490 293 OFFCURVE",
"468 347 CURVE SMOOTH",
"394 531 LINE SMOOTH",
"377 572 OFFCURVE",
"359 588 OFFCURVE",
"333 588 CURVE SMOOTH"
);
},
{
closed = 1;
nodes = (
"392 140 OFFCURVE",
"436 148 OFFCURVE",
"469 162 CURVE",
"469 162 OFFCURVE",
"479 243 OFFCURVE",
"479 243 CURVE",
"440 225 OFFCURVE",
"390 217 OFFCURVE",
"325 217 CURVE SMOOTH",
"298 217 OFFCURVE",
"185 226 OFFCURVE",
"131 235 CURVE",
"131 235 OFFCURVE",
"120 157 OFFCURVE",
"120 157 CURVE",
"186 147 OFFCURVE",
"305 140 OFFCURVE",
"348 140 CURVE SMOOTH"
);
}
);
};
layerId = "D34FCF88-AF1D-4520-8FB0-498E26D42FBC";
paths = (
{
closed = 1;
nodes = (
"308 579 OFFCURVE",
"290 554 OFFCURVE",
"265 516 CURVE SMOOTH",
"179 384 LINE SMOOTH",
"94 261 OFFCURVE",
"35 109 OFFCURVE",
"24 15 CURVE SMOOTH",
"20 -20 OFFCURVE",
"35 -38 OFFCURVE",
"59 -38 CURVE SMOOTH",
"81 -38 OFFCURVE",
"110 -24 OFFCURVE",
"114 6 CURVE SMOOTH",
"133 155 OFFCURVE",
"203 282 OFFCURVE",
"241 339 CURVE SMOOTH",
"304 436 LINE",
"354 507 LINE",
"312 512 LINE",
"361 384 LINE SMOOTH",
"375 347 OFFCURVE",
"393 306 OFFCURVE",
"406 269 CURVE SMOOTH",
"457 125 LINE SMOOTH",
"471 82 OFFCURVE",
"475 38 OFFCURVE",
"483 15 CURVE SMOOTH",
"492 -11 OFFCURVE",
"518 -19 OFFCURVE",
"540 -19 CURVE SMOOTH",
"562 -19 OFFCURVE",
"586 -12 OFFCURVE",
"586 17 CURVE SMOOTH",
"586 35 OFFCURVE",
"568 76 OFFCURVE",
"550 127 CURVE SMOOTH",
"524 198 OFFCURVE",
"493 284 OFFCURVE",
"471 338 CURVE SMOOTH",
"397 522 LINE SMOOTH",
"380 563 OFFCURVE",
"362 579 OFFCURVE",
"336 579 CURVE SMOOTH"
);
},
{
closed = 1;
nodes = (
"395 131 OFFCURVE",
"439 139 OFFCURVE",
"472 153 CURVE",
"472 153 OFFCURVE",
"482 234 OFFCURVE",
"482 234 CURVE",
"443 216 OFFCURVE",
"393 208 OFFCURVE",
"328 208 CURVE SMOOTH",
"301 208 OFFCURVE",
"188 217 OFFCURVE",
"134 226 CURVE",
"134 226 OFFCURVE",
"123 148 OFFCURVE",
"123 148 CURVE",
"189 138 OFFCURVE",
"308 131 OFFCURVE",
"351 131 CURVE SMOOTH"
);
}
);
width = 627;
}
);
},
{
glyphname = M.ss01;
lastChange = "2016-01-18 14:28:36 +0000";
layers = (
{
background = {
paths = (
{
closed = 1;
nodes = (
"659 575 OFFCURVE",
"652 573 OFFCURVE",
"642 567 CURVE",
"584 414 OFFCURVE",
"492 202 OFFCURVE",
"410 50 CURVE",
"459 48 LINE",
"424 152 OFFCURVE",
"328 411 OFFCURVE",
"280 535 CURVE SMOOTH",
"268 566 OFFCURVE",
"250 575 OFFCURVE",
"225 575 CURVE SMOOTH",
"215 575 OFFCURVE",
"207 573 OFFCURVE",
"198 568 CURVE",
"186 416 OFFCURVE",
"148 255 OFFCURVE",
"99 125 CURVE SMOOTH",
"84 85 OFFCURVE",
"49 31 OFFCURVE",
"49 9 CURVE SMOOTH",
"49 -22 OFFCURVE",
"87 -38 OFFCURVE",
"106 -38 CURVE SMOOTH",
"164 -38 OFFCURVE",
"203 228 OFFCURVE",
"259 429 CURVE",
"217 442 LINE",
"288 306 OFFCURVE",
"337 175 OFFCURVE",
"370 13 CURVE SMOOTH",
"376 -16 OFFCURVE",
"407 -28 OFFCURVE",
"436 -28 CURVE SMOOTH",
"459 -28 OFFCURVE",
"471 -19 OFFCURVE",
"481 5 CURVE SMOOTH",
"511 78 OFFCURVE",
"567 226 OFFCURVE",
"706 477 CURVE",
"667 487 LINE",
"675 408 OFFCURVE",
"688 300 OFFCURVE",
"718 207 CURVE SMOOTH",
"773 35 OFFCURVE",
"789 -19 OFFCURVE",
"854 -19 CURVE SMOOTH",
"877 -19 OFFCURVE",
"893 -7 OFFCURVE",
"893 1 CURVE SMOOTH",
"893 20 OFFCURVE",
"853 90 OFFCURVE",
"823 153 CURVE SMOOTH",
"798 206 OFFCURVE",
"780 262 OFFCURVE",
"775 288 CURVE SMOOTH",
"745 442 OFFCURVE",
"735 575 OFFCURVE",
"675 575 CURVE"
);
}
);
};
layerId = "D34FCF88-AF1D-4520-8FB0-498E26D42FBC";
paths = (
{
closed = 1;
nodes = (
"660 575 OFFCURVE",
"650 573 OFFCURVE",
"642 567 CURVE",
"584 414 OFFCURVE",
"492 202 OFFCURVE",
"410 50 CURVE",
"459 48 LINE",
"424 152 OFFCURVE",
"329 411 OFFCURVE",
"280 535 CURVE SMOOTH",
"268 566 OFFCURVE",
"250 575 OFFCURVE",
"225 575 CURVE SMOOTH",
"215 575 OFFCURVE",
"207 573 OFFCURVE",
"198 568 CURVE",
"186 416 OFFCURVE",
"148 255 OFFCURVE",
"99 125 CURVE SMOOTH",
"84 85 OFFCURVE",
"49 31 OFFCURVE",
"49 9 CURVE SMOOTH",
"49 -22 OFFCURVE",
"87 -38 OFFCURVE",
"106 -38 CURVE SMOOTH",
"164 -38 OFFCURVE",
"203 228 OFFCURVE",
"259 429 CURVE",
"217 442 LINE",
"288 306 OFFCURVE",
"337 175 OFFCURVE",
"370 13 CURVE SMOOTH",
"377 -16 OFFCURVE",
"407 -28 OFFCURVE",
"436 -28 CURVE SMOOTH",
"459 -28 OFFCURVE",
"471 -19 OFFCURVE",
"481 5 CURVE SMOOTH",
"510 78 OFFCURVE",
"567 226 OFFCURVE",
"706 477 CURVE",
"667 487 LINE",
"675 408 OFFCURVE",
"688 300 OFFCURVE",
"718 207 CURVE SMOOTH",
"773 35 OFFCURVE",
"789 -19 OFFCURVE",
"854 -19 CURVE SMOOTH",
"877 -19 OFFCURVE",
"893 -7 OFFCURVE",
"893 1 CURVE SMOOTH",
"893 20 OFFCURVE",
"852 90 OFFCURVE",
"823 153 CURVE SMOOTH",
"798 206 OFFCURVE",
"780 262 OFFCURVE",
"775 288 CURVE SMOOTH",
"751 406 OFFCURVE",
"748 513 OFFCURVE",
"714 555 CURVE SMOOTH",
"702 570 OFFCURVE",
"690 575 OFFCURVE",
"670 575 CURVE"
);
}
);
width = 938;
}
);
},
{
glyphname = N.ss01;
lastChange = "2016-01-18 14:28:36 +0000";
layers = (
{
background = {
paths = (
{
closed = 1;
nodes = (
"588 -49 OFFCURVE",
"608 -34 OFFCURVE",
"608 -10 CURVE SMOOTH",
"608 17 OFFCURVE",
"596 169 OFFCURVE",
"596 244 CURVE SMOOTH",
"596 352 OFFCURVE",
"619 457 OFFCURVE",
"619 490 CURVE SMOOTH",
"619 519 OFFCURVE",
"592 549 OFFCURVE",
"557 549 CURVE SMOOTH",
"533 549 OFFCURVE",
"529 529 OFFCURVE",
"527 488 CURVE SMOOTH",
"517 249 LINE",
"512 49 LINE",
"557 60 LINE",
"480 155 OFFCURVE",
"259 432 OFFCURVE",
"185 520 CURVE SMOOTH",
"174 533 OFFCURVE",
"160 545 OFFCURVE",
"136 545 CURVE SMOOTH",
"116 545 OFFCURVE",
"88 532 OFFCURVE",
"89 501 CURVE SMOOTH",
"97 254 LINE",
"80 -9 LINE SMOOTH",
"79 -32 OFFCURVE",
"109 -49 OFFCURVE",
"129 -49 CURVE SMOOTH",
"161 -49 OFFCURVE",
"180 -34 OFFCURVE",
"180 19 CURVE SMOOTH",
"180 53 OFFCURVE",
"175 123 OFFCURVE",
"175 201 CURVE SMOOTH",
"175 289 OFFCURVE",
"180 385 OFFCURVE",
"183 456 CURVE",
"155 426 LINE",
"291 272 OFFCURVE",
"449 65 OFFCURVE",
"514 -25 CURVE SMOOTH",
"527 -43 OFFCURVE",
"542 -49 OFFCURVE",
"564 -49 CURVE"
);
}
);
};
layerId = "D34FCF88-AF1D-4520-8FB0-498E26D42FBC";
paths = (
{
closed = 1;
nodes = (
"103 579 OFFCURVE",
"85 560 OFFCURVE",
"87 540 CURVE SMOOTH",
"96 446 OFFCURVE",
"99 361 OFFCURVE",
"99 286 CURVE SMOOTH",
"99 178 OFFCURVE",
"76 73 OFFCURVE",
"76 40 CURVE SMOOTH",
"76 11 OFFCURVE",
"103 -19 OFFCURVE",
"138 -19 CURVE SMOOTH",
"162 -19 OFFCURVE",
"166 1 OFFCURVE",
"168 42 CURVE SMOOTH",
"178 281 LINE SMOOTH",
"181 342 OFFCURVE",
"177 392 OFFCURVE",
"168 447 CURVE",
"141 436 LINE",
"218 312 OFFCURVE",
"438 58 OFFCURVE",
"510 0 CURVE SMOOTH",
"519 -7 OFFCURVE",
"532 -15 OFFCURVE",
"556 -15 CURVE SMOOTH",
"578 -15 OFFCURVE",
"607 -2 OFFCURVE",
"606 29 CURVE SMOOTH",
"598 276 LINE",
"615 539 LINE SMOOTH",
"616 562 OFFCURVE",
"586 579 OFFCURVE",
"566 579 CURVE SMOOTH",
"534 579 OFFCURVE",
"515 564 OFFCURVE",
"515 511 CURVE SMOOTH",
"515 477 OFFCURVE",
"520 407 OFFCURVE",
"520 329 CURVE SMOOTH",
"519 241 OFFCURVE",
"515 145 OFFCURVE",
"512 74 CURVE",
"535 94 LINE",
"422 197 OFFCURVE",
"244 396 OFFCURVE",
"181 547 CURVE SMOOTH",
"173 566 OFFCURVE",
"161 579 OFFCURVE",
"131 579 CURVE"
);
}
);
width = 707;
}
);
},
{
glyphname = a;
lastChange = "2016-01-19 20:28:34 +0000";
layers = (
{
anchors = (
{
name = top;
position = "{230, 407}";
}
);
background = {
paths = (
{
closed = 1;
nodes = (
"407 -19 OFFCURVE",
"494 98 OFFCURVE",
"494 219 CURVE SMOOTH",
"494 328 OFFCURVE",
"408 428 OFFCURVE",
"289 428 CURVE SMOOTH",
"171 428 OFFCURVE",
"65 320 OFFCURVE",
"65 199 CURVE SMOOTH",
"65 158 OFFCURVE",
"72 120 OFFCURVE",
"96 81 CURVE SMOOTH",
"127 30 OFFCURVE",
"178 -19 OFFCURVE",
"264 -19 CURVE SMOOTH"
);
},
{
closed = 1;
nodes = (
"206 58 OFFCURVE",
"144 122 OFFCURVE",
"144 199 CURVE SMOOTH",
"144 277 OFFCURVE",
"214 351 OFFCURVE",
"289 351 CURVE SMOOTH",
"369 351 OFFCURVE",
"415 270 OFFCURVE",
"415 219 CURVE SMOOTH",
"415 140 OFFCURVE",
"360 58 OFFCURVE",
"264 58 CURVE SMOOTH"
);
}
);
};
guideLines = (
{
angle = 90;
position = "{58, 245}";
}
);
layerId = "D34FCF88-AF1D-4520-8FB0-498E26D42FBC";
paths = (
{
closed = 1;
nodes = (
"449 -19 OFFCURVE",
"485 -6 OFFCURVE",
"485 26 CURVE SMOOTH",
"485 53 OFFCURVE",
"467 63 OFFCURVE",
"451 63 CURVE SMOOTH",
"434 63 OFFCURVE",
"430 58 OFFCURVE",
"414 58 CURVE SMOOTH",
"398 58 OFFCURVE",
"389 71 OFFCURVE",
"389 105 CURVE SMOOTH",
"389 266 LINE SMOOTH",
"389 373 OFFCURVE",
"321 428 OFFCURVE",
"230 428 CURVE SMOOTH",
"199 428 OFFCURVE",
"163 419 OFFCURVE",
"136 407 CURVE SMOOTH",
"94 388 OFFCURVE",
"65 357 OFFCURVE",
"65 331 CURVE SMOOTH",
"65 305 OFFCURVE",
"87 288 OFFCURVE",
"110 288 CURVE SMOOTH",
"153 288 OFFCURVE",
"171 356 OFFCURVE",
"230 356 CURVE SMOOTH",
"284 356 OFFCURVE",
"312 321 OFFCURVE",
"312 266 CURVE SMOOTH",
"312 105 LINE SMOOTH",
"312 64 OFFCURVE",
"330 -19 OFFCURVE",
"415 -19 CURVE SMOOTH"
);
},
{
closed = 1;
nodes = (
"248 -19 OFFCURVE",
"304 13 OFFCURVE",
"341 50 CURVE",
"325 112 LINE",
"286 66 OFFCURVE",
"240 53 OFFCURVE",
"196 53 CURVE SMOOTH",
"163 53 OFFCURVE",
"137 69 OFFCURVE",
"137 102 CURVE SMOOTH",
"137 134 OFFCURVE",
"165 166 OFFCURVE",
"211 166 CURVE SMOOTH",
"254 166 OFFCURVE",
"295 153 OFFCURVE",
"326 120 CURVE",
"326 120 OFFCURVE",
"326 194 OFFCURVE",
"326 194 CURVE",
"296 219 OFFCURVE",
"248 238 OFFCURVE",
"211 238 CURVE SMOOTH",
"121 238 OFFCURVE",
"58 171 OFFCURVE",
"58 102 CURVE SMOOTH",
"58 6 OFFCURVE",
"144 -19 OFFCURVE",
"196 -19 CURVE SMOOTH"
);
}
);
width = 492;
}
);
unicode = 0061;
},
{
glyphname = b;
lastChange = "2016-01-19 20:18:52 +0000";
layers = (
{
background = {
paths = (
{
closed = 1;
nodes = (
"100 744 OFFCURVE",
"111 604 OFFCURVE",
"114 573 CURVE",
"144 534 OFFCURVE",
"173 553 OFFCURVE",
"200 543 CURVE",
"210 539 OFFCURVE",
"277 499 OFFCURVE",
"286 496 CURVE",
"299 490 OFFCURVE",
"361 480 OFFCURVE",
"370 482 CURVE",
"376 483 OFFCURVE",
"423 502 OFFCURVE",
"438 512 CURVE",
"510 556 OFFCURVE",
"509 664 OFFCURVE",
"509 732 CURVE",
"509 811 OFFCURVE",
"492 895 OFFCURVE",
"404 928 CURVE",
"393 932 OFFCURVE",
"357 944 OFFCURVE",
"354 944 CURVE",
"345 944 OFFCURVE",
"309 932 OFFCURVE",
"303 928 CURVE",
"288 919 OFFCURVE",
"228 877 OFFCURVE",
"217 866 CURVE",
"202 984 OFFCURVE",
"194 1072 OFFCURVE",
"192 1160 CURVE",
"192 1168 OFFCURVE",
"157 1201 OFFCURVE",
"148 1207 CURVE",
"147 1207 OFFCURVE",
"143 1207 OFFCURVE",
"140 1207 CURVE",
"129 1207 OFFCURVE",
"122 1203 OFFCURVE",
"114 1189 CURVE",
"111 1166 OFFCURVE",
"100 1076 OFFCURVE",
"99 1051 CURVE",
"97 1044 OFFCURVE",
"97 969 OFFCURVE",
"97 929 CURVE",
"97 889 OFFCURVE",
"97 781 OFFCURVE",
"99 774 CURVE"
);
},
{
closed = 1;
nodes = (
"280 573 OFFCURVE",
"233 603 OFFCURVE",
"233 650 CURVE",
"233 688 OFFCURVE",
"253 722 OFFCURVE",
"268 758 CURVE",
"284 796 OFFCURVE",
"316 827 OFFCURVE",
"354 851 CURVE",
"354 852 OFFCURVE",
"367 853 OFFCURVE",
"370 853 CURVE",
"375 853 OFFCURVE",
"386 852 OFFCURVE",
"387 851 CURVE",
"390 847 OFFCURVE",
"402 814 OFFCURVE",
"404 805 CURVE",
"405 802 OFFCURVE",
"405 753 OFFCURVE",
"405 736 CURVE",
"405 686 OFFCURVE",
"415 573 OFFCURVE",
"327 573 CURVE"
);
},
{
closed = 1;
nodes = (
"159 -238 OFFCURVE",
"172 -208 OFFCURVE",
"172 -173 CURVE SMOOTH",
"172 -147 OFFCURVE",
"172 -106 OFFCURVE",
"172 -73 CURVE SMOOTH",
"181 5 LINE",
"216 -10 OFFCURVE",
"258 -19 OFFCURVE",
"294 -19 CURVE SMOOTH",
"453 -19 OFFCURVE",
"496 107 OFFCURVE",
"496 250 CURVE SMOOTH",
"496 401 OFFCURVE",
"430 428 OFFCURVE",
"376 428 CURVE SMOOTH",
"306 428 OFFCURVE",
"233 332 OFFCURVE",
"176 219 CURVE",
"196 142 LINE",
"173 328 OFFCURVE",
"198 428 OFFCURVE",
"128 428 CURVE SMOOTH",
"107 428 OFFCURVE",
"86 409 OFFCURVE",
"86 385 CURVE SMOOTH",
"86 338 OFFCURVE",
"115 297 OFFCURVE",
"113 236 CURVE",
"106 50 LINE",
"96 -28 LINE SMOOTH",
"92 -81 OFFCURVE",
"80 -134 OFFCURVE",
"80 -175 CURVE SMOOTH",
"80 -205 OFFCURVE",
"121 -238 OFFCURVE",
"141 -238 CURVE SMOOTH"
);
},
{
closed = 1;
nodes = (
"247 58 OFFCURVE",
"213 71 OFFCURVE",
"187 88 CURVE",
"244 215 LINE SMOOTH",
"277 288 OFFCURVE",
"337 350 OFFCURVE",
"376 350 CURVE SMOOTH",
"397 350 OFFCURVE",
"417 337 OFFCURVE",
"417 253 CURVE SMOOTH",
"417 135 OFFCURVE",
"385 58 OFFCURVE",
"294 58 CURVE SMOOTH"
);
}
);
};
layerId = "D34FCF88-AF1D-4520-8FB0-498E26D42FBC";
paths = (
{
closed = 1;
nodes = (
"192 -19 OFFCURVE",
"202 11 OFFCURVE",
"202 46 CURVE",
"160 14 LINE",
"207 -9 OFFCURVE",
"256 -19 OFFCURVE",
"294 -19 CURVE SMOOTH",
"453 -19 OFFCURVE",
"496 107 OFFCURVE",
"496 250 CURVE SMOOTH",
"496 401 OFFCURVE",
"430 428 OFFCURVE",
"376 428 CURVE SMOOTH",
"306 428 OFFCURVE",
"233 337 OFFCURVE",
"176 242 CURVE",
"166 71 LINE",
"202 56 LINE",
"190 295 LINE",
"190 333 OFFCURVE",
"181 439 OFFCURVE",
"181 487 CURVE SMOOTH",
"181 549 OFFCURVE",
"197 597 OFFCURVE",
"197 644 CURVE SMOOTH",
"197 668 OFFCURVE",
"176 687 OFFCURVE",
"155 687 CURVE SMOOTH",
"128 687 OFFCURVE",
"109 667 OFFCURVE",
"109 622 CURVE SMOOTH",
"109 596 OFFCURVE",
"101 496 OFFCURVE",
"101 476 CURVE",
"101 424 OFFCURVE",
"114 314 OFFCURVE",
"114 261 CURVE",
"125 44 LINE SMOOTH",
"124 15 OFFCURVE",
"160 -19 OFFCURVE",
"177 -19 CURVE SMOOTH"
);
},
{
closed = 1;
nodes = (
"247 58 OFFCURVE",
"213 71 OFFCURVE",
"187 88 CURVE",
"196 139 LINE",
"213 177 OFFCURVE",
"228 204 OFFCURVE",
"242 226 CURVE SMOOTH",
"282 289 OFFCURVE",
"337 350 OFFCURVE",
"376 350 CURVE SMOOTH",
"397 350 OFFCURVE",
"417 337 OFFCURVE",
"417 253 CURVE SMOOTH",
"417 135 OFFCURVE",
"385 58 OFFCURVE",
"294 58 CURVE SMOOTH"
);
}
);
width = 556;
}
);
unicode = 0062;
},
{
glyphname = c;
lastChange = "2016-01-18 14:28:36 +0000";
layers = (
{
background = {
paths = (
{
closed = 1;
nodes = (
"387 -19 OFFCURVE",
"474 98 OFFCURVE",
"474 219 CURVE SMOOTH",
"474 328 OFFCURVE",
"388 428 OFFCURVE",
"269 428 CURVE SMOOTH",
"151 428 OFFCURVE",
"45 320 OFFCURVE",
"45 199 CURVE SMOOTH",
"45 158 OFFCURVE",
"52 120 OFFCURVE",
"76 81 CURVE SMOOTH",
"108 31 OFFCURVE",
"158 -19 OFFCURVE",
"244 -19 CURVE SMOOTH"
);
},
{
closed = 1;
nodes = (
"186 58 OFFCURVE",
"124 122 OFFCURVE",
"124 199 CURVE SMOOTH",
"124 277 OFFCURVE",
"194 351 OFFCURVE",
"269 351 CURVE SMOOTH",
"349 351 OFFCURVE",
"395 270 OFFCURVE",
"395 219 CURVE SMOOTH",
"395 140 OFFCURVE",
"340 58 OFFCURVE",
"244 58 CURVE SMOOTH"
);
}
);
};
layerId = "D34FCF88-AF1D-4520-8FB0-498E26D42FBC";
paths = (
{
closed = 1;
nodes = (
"372 -18 OFFCURVE",
"449 52 OFFCURVE",
"449 98 CURVE SMOOTH",
"449 119 OFFCURVE",
"437 138 OFFCURVE",
"412 138 CURVE SMOOTH",
"367 138 OFFCURVE",
"367 58 OFFCURVE",
"265 58 CURVE SMOOTH",
"191 58 OFFCURVE",
"139 122 OFFCURVE",
"139 199 CURVE SMOOTH",
"139 277 OFFCURVE",
"195 351 OFFCURVE",
"266 351 CURVE SMOOTH",
"338 351 OFFCURVE",
"338 308 OFFCURVE",
"378 308 CURVE SMOOTH",
"403 308 OFFCURVE",
"414 326 OFFCURVE",
"414 345 CURVE SMOOTH",
"414 369 OFFCURVE",
"393 389 OFFCURVE",
"365 404 CURVE SMOOTH",
"339 418 OFFCURVE",
"307 428 OFFCURVE",
"266 428 CURVE SMOOTH",
"152 428 OFFCURVE",
"60 320 OFFCURVE",
"60 199 CURVE SMOOTH",
"60 71 OFFCURVE",
"141 -20 OFFCURVE",
"265 -19 CURVE SMOOTH"
);
}
);
width = 486;
}
);
unicode = 0063;
},
{
glyphname = d;
lastChange = "2016-01-19 20:13:14 +0000";
layers = (
{
background = {
paths = (
{
closed = 1;
nodes = (
"365 59 OFFCURVE",
"357 82 OFFCURVE",
"357 158 CURVE SMOOTH",
"357 257 OFFCURVE",
"384 460 OFFCURVE",
"384 542 CURVE SMOOTH",
"384 562 OFFCURVE",
"379 596 OFFCURVE",
"379 622 CURVE SMOOTH",
"379 667 OFFCURVE",
"398 687 OFFCURVE",
"425 687 CURVE SMOOTH",
"446 687 OFFCURVE",
"477 668 OFFCURVE",
"477 644 CURVE SMOOTH",
"477 607 OFFCURVE",
"466 569 OFFCURVE",
"461 497 CURVE SMOOTH",
"451 359 LINE",
"442 118 LINE SMOOTH",
"438 16 OFFCURVE",
"511 95 OFFCURVE",
"511 24 CURVE SMOOTH",
"511 0 OFFCURVE",
"490 -19 OFFCURVE",
"463 -19 CURVE SMOOTH",
"441 -19 OFFCURVE",
"406 -12 OFFCURVE",
"384 26 CURVE SMOOTH"
);
}
);
};
layerId = "D34FCF88-AF1D-4520-8FB0-498E26D42FBC";
paths = (
{
closed = 1;
nodes = (
"250 -19 OFFCURVE",
"323 77 OFFCURVE",
"380 190 CURVE",
"360 201 LINE",
"373 106 LINE SMOOTH",
"386 8 OFFCURVE",
"426 -19 OFFCURVE",
"469 -19 CURVE SMOOTH",
"490 -19 OFFCURVE",
"511 0 OFFCURVE",
"511 24 CURVE SMOOTH",
"511 71 OFFCURVE",
"437 46 OFFCURVE",
"441 138 CURVE SMOOTH",
"450 359 LINE",
"460 497 LINE SMOOTH",
"464 550 OFFCURVE",
"476 597 OFFCURVE",
"476 644 CURVE SMOOTH",
"476 668 OFFCURVE",
"446 687 OFFCURVE",
"425 687 CURVE SMOOTH",
"398 687 OFFCURVE",
"379 667 OFFCURVE",
"379 622 CURVE SMOOTH",
"379 596 OFFCURVE",
"386 568 OFFCURVE",
"384 542 CURVE SMOOTH",
"375 404 LINE",
"340 419 OFFCURVE",
"298 428 OFFCURVE",
"262 428 CURVE SMOOTH",
"103 428 OFFCURVE",
"60 302 OFFCURVE",
"60 159 CURVE SMOOTH",
"60 8 OFFCURVE",
"126 -19 OFFCURVE",
"180 -19 CURVE SMOOTH"
);
},
{
closed = 1;
nodes = (
"159 59 OFFCURVE",
"139 72 OFFCURVE",
"139 156 CURVE SMOOTH",
"139 274 OFFCURVE",
"171 351 OFFCURVE",
"262 351 CURVE SMOOTH",
"309 351 OFFCURVE",
"343 338 OFFCURVE",
"369 321 CURVE",
"312 194 LINE SMOOTH",
"279 121 OFFCURVE",
"219 59 OFFCURVE",
"180 59 CURVE SMOOTH"
);
}
);
width = 556;
}
);
unicode = 0064;
},
{
glyphname = e;
lastChange = "2016-01-18 14:29:02 +0000";
layers = (
{
anchors = (
{
name = top;
position = "{261, 407}";
}
);
background = {
paths = (
{
closed = 1;
nodes = (
"366 -18 OFFCURVE",
"439 48 OFFCURVE",
"439 98 CURVE SMOOTH",
"439 119 OFFCURVE",
"427 138 OFFCURVE",
"402 138 CURVE SMOOTH",
"355 138 OFFCURVE",
"358 58 OFFCURVE",
"259 58 CURVE SMOOTH",
"193 58 OFFCURVE",
"139 122 OFFCURVE",
"139 199 CURVE SMOOTH",
"139 277 OFFCURVE",
"195 351 OFFCURVE",
"266 351 CURVE SMOOTH",
"298 351 OFFCURVE",
"318 320 OFFCURVE",
"320 279 CURVE",
"320 279 OFFCURVE",
"387 323 OFFCURVE",
"387 323 CURVE",
"387 404 OFFCURVE",
"320 428 OFFCURVE",
"266 428 CURVE SMOOTH",
"152 428 OFFCURVE",
"60 320 OFFCURVE",
"60 199 CURVE SMOOTH",
"60 71 OFFCURVE",
"143 -20 OFFCURVE",
"259 -19 CURVE SMOOTH"
);
},
{
closed = 1;
nodes = (
"252 147 OFFCURVE",
"344 194 OFFCURVE",
"425 258 CURVE SMOOTH",
"465 289 OFFCURVE",
"503 333 OFFCURVE",
"503 364 CURVE SMOOTH",
"503 388 OFFCURVE",
"489 400 OFFCURVE",
"473 400 CURVE SMOOTH",
"452 400 OFFCURVE",
"445 383 OFFCURVE",
"427 364 CURVE SMOOTH",
"340 272 OFFCURVE",
"232 215 OFFCURVE",
"97 193 CURVE",
"97 193 OFFCURVE",
"134 125 OFFCURVE",
"134 125 CURVE"
);
}
);
};
layerId = "D34FCF88-AF1D-4520-8FB0-498E26D42FBC";
paths = (
{
closed = 1;
nodes = (
"322 351 OFFCURVE",
"340 328 OFFCURVE",
"340 306 CURVE SMOOTH",
"340 261 OFFCURVE",
"242 221 OFFCURVE",
"97 203 CURVE",
"134 135 LINE",
"310 160 OFFCURVE",
"432 218 OFFCURVE",
"432 306 CURVE SMOOTH",
"432 367 OFFCURVE",
"368 429 OFFCURVE",
"281 428 CURVE SMOOTH",
"200 427 OFFCURVE",
"130 385 OFFCURVE",
"130 345 CURVE SMOOTH",
"130 328 OFFCURVE",
"139 311 OFFCURVE",
"158 311 CURVE SMOOTH",
"206 311 OFFCURVE",
"211 351 OFFCURVE",
"281 351 CURVE"
);
},
{
closed = 1;
nodes = (
"60 71 OFFCURVE",
"142 -20 OFFCURVE",
"265 -19 CURVE SMOOTH",
"372 -18 OFFCURVE",
"449 52 OFFCURVE",
"449 98 CURVE SMOOTH",
"449 119 OFFCURVE",
"437 138 OFFCURVE",
"412 138 CURVE SMOOTH",
"367 138 OFFCURVE",
"367 58 OFFCURVE",
"265 58 CURVE SMOOTH",
"192 58 OFFCURVE",
"139 115 OFFCURVE",
"139 199 CURVE SMOOTH",
"139 247 OFFCURVE",
"158 268 OFFCURVE",
"158 288 CURVE SMOOTH",
"158 313 OFFCURVE",
"139 325 OFFCURVE",
"119 325 CURVE SMOOTH",
"84 325 OFFCURVE",
"61 263 OFFCURVE",
"60 199 CURVE"
);
}
);
width = 499;
}
);
unicode = 0065;
},
{
glyphname = f;
lastChange = "2016-01-19 20:18:49 +0000";
layers = (
{
background = {
paths = (
{
closed = 1;
nodes = (
"192 240 OFFCURVE",
"210 323 OFFCURVE",
"210 364 CURVE SMOOTH",
"210 525 LINE SMOOTH",
"210 580 OFFCURVE",
"238 615 OFFCURVE",
"292 615 CURVE SMOOTH",
"351 615 OFFCURVE",
"369 547 OFFCURVE",
"412 547 CURVE SMOOTH",
"435 547 OFFCURVE",
"457 564 OFFCURVE",
"457 590 CURVE SMOOTH",
"457 616 OFFCURVE",
"428 647 OFFCURVE",
"386 666 CURVE SMOOTH",
"359 678 OFFCURVE",
"323 687 OFFCURVE",
"292 687 CURVE SMOOTH",
"201 687 OFFCURVE",
"133 632 OFFCURVE",
"133 525 CURVE SMOOTH",
"133 364 LINE SMOOTH",
"133 330 OFFCURVE",
"124 317 OFFCURVE",
"108 317 CURVE SMOOTH",
"92 317 OFFCURVE",
"88 322 OFFCURVE",
"71 322 CURVE SMOOTH",
"55 322 OFFCURVE",
"37 312 OFFCURVE",
"37 285 CURVE SMOOTH",
"37 253 OFFCURVE",
"73 240 OFFCURVE",
"107 240 CURVE SMOOTH"
);
}
);
};
layerId = "D34FCF88-AF1D-4520-8FB0-498E26D42FBC";
paths = (
{
closed = 1;
nodes = (
"200 324 OFFCURVE",
"256 329 OFFCURVE",
"320 340 CURVE SMOOTH",
"330 342 OFFCURVE",
"337 349 OFFCURVE",
"337 363 CURVE SMOOTH",
"337 386 OFFCURVE",
"326 407 OFFCURVE",
"311 407 CURVE SMOOTH",
"22 407 LINE SMOOTH",
"13 407 OFFCURVE",
"9 399 OFFCURVE",
"9 388 CURVE SMOOTH",
"9 373 OFFCURVE",
"16 350 OFFCURVE",
"29 345 CURVE SMOOTH",
"72 329 OFFCURVE",
"120 324 OFFCURVE",
"151 324 CURVE"
);
},
{
closed = 1;
nodes = (
"164 -238 OFFCURVE",
"179 -212 OFFCURVE",
"179 -189 CURVE SMOOTH",
"179 -100 OFFCURVE",
"192 6 OFFCURVE",
"192 95 CURVE SMOOTH",
"193 376 LINE SMOOTH",
"194 557 OFFCURVE",
"223 610 OFFCURVE",
"296 610 CURVE SMOOTH",
"332 610 OFFCURVE",
"342 596 OFFCURVE",
"364 596 CURVE SMOOTH",
"386 596 OFFCURVE",
"397 612 OFFCURVE",
"397 631 CURVE SMOOTH",
"397 654 OFFCURVE",
"382 666 OFFCURVE",
"362 674 CURVE SMOOTH",
"344 681 OFFCURVE",
"321 687 OFFCURVE",
"296 687 CURVE",
"241 687 OFFCURVE",
"206 671 OFFCURVE",
"180 648 CURVE SMOOTH",
"118 593 OFFCURVE",
"103 474 OFFCURVE",
"106 376 CURVE SMOOTH",
"115 95 LINE SMOOTH",
"117 23 OFFCURVE",
"88 -113 OFFCURVE",
"88 -175 CURVE SMOOTH",
"88 -205 OFFCURVE",
"129 -238 OFFCURVE",
"149 -238 CURVE SMOOTH"
);
}
);
width = 316;
}
);
unicode = 0066;
},
{
glyphname = g;
lastChange = "2016-01-19 20:30:15 +0000";
layers = (
{
background = {
anchors = (
{
name = top;
position = "{274, 407}";
}
);
paths = (
{
closed = 1;
nodes = (
"412 -19 OFFCURVE",
"499 98 OFFCURVE",
"499 219 CURVE SMOOTH",
"499 328 OFFCURVE",
"413 428 OFFCURVE",
"294 428 CURVE SMOOTH",
"176 428 OFFCURVE",
"70 320 OFFCURVE",
"70 199 CURVE SMOOTH",
"70 158 OFFCURVE",
"77 120 OFFCURVE",
"101 81 CURVE SMOOTH",
"132 30 OFFCURVE",
"183 -19 OFFCURVE",
"269 -19 CURVE SMOOTH"
);
},
{
closed = 1;
nodes = (
"211 58 OFFCURVE",
"149 122 OFFCURVE",
"149 199 CURVE SMOOTH",
"149 277 OFFCURVE",
"219 351 OFFCURVE",
"294 351 CURVE SMOOTH",
"374 351 OFFCURVE",
"420 270 OFFCURVE",
"420 219 CURVE SMOOTH",
"420 140 OFFCURVE",
"365 58 OFFCURVE",
"269 58 CURVE SMOOTH"
);
}
);
};
layerId = "D34FCF88-AF1D-4520-8FB0-498E26D42FBC";
paths = (
{
closed = 1;
nodes = (
"311 136 OFFCURVE",
"380 191 OFFCURVE",
"380 282 CURVE SMOOTH",
"380 373 OFFCURVE",
"321 428 OFFCURVE",
"220 428 CURVE SMOOTH",
"182 428 OFFCURVE",
"165 424 OFFCURVE",
"143 418 CURVE SMOOTH",
"93 404 OFFCURVE",
"70 345 OFFCURVE",
"70 282 CURVE SMOOTH",
"70 191 OFFCURVE",
"135 136 OFFCURVE",
"220 136 CURVE SMOOTH"
);
},
{
closed = 1;
nodes = (
"175 213 OFFCURVE",
"149 244 OFFCURVE",
"149 282 CURVE SMOOTH",
"149 306 OFFCURVE",
"157 327 OFFCURVE",
"173 343 CURVE SMOOTH",
"183 353 OFFCURVE",
"206 351 OFFCURVE",
"230 351 CURVE SMOOTH",
"254 351 OFFCURVE",
"274 344 OFFCURVE",
"288 332 CURVE SMOOTH",
"299 323 OFFCURVE",
"301 302 OFFCURVE",
"301 282 CURVE SMOOTH",
"301 244 OFFCURVE",
"271 213 OFFCURVE",
"220 213 CURVE SMOOTH"
);
},
{
closed = 1;
nodes = (
"60 0 OFFCURVE",
"121 -23 OFFCURVE",
"207 -23 CURVE SMOOTH",
"280 -23 LINE SMOOTH",
"323 -23 OFFCURVE",
"358 -26 OFFCURVE",
"358 -70 CURVE SMOOTH",
"358 -126 OFFCURVE",
"280 -167 OFFCURVE",
"208 -167 CURVE SMOOTH",
"166 -167 OFFCURVE",
"146 -155 OFFCURVE",
"135 -139 CURVE SMOOTH",
"114 -109 OFFCURVE",
"123 -64 OFFCURVE",
"89 -64 CURVE SMOOTH",
"70 -64 OFFCURVE",
"42 -89 OFFCURVE",
"42 -132 CURVE SMOOTH",
"42 -155 OFFCURVE",
"54 -180 OFFCURVE",
"78 -199 CURVE SMOOTH",
"108 -223 OFFCURVE",
"158 -238 OFFCURVE",
"208 -238 CURVE SMOOTH",
"331 -238 OFFCURVE",
"437 -173 OFFCURVE",
"437 -70 CURVE SMOOTH",
"437 38 OFFCURVE",
"368 56 OFFCURVE",
"280 56 CURVE SMOOTH",
"207 56 LINE SMOOTH",
"157 56 OFFCURVE",
"139 63 OFFCURVE",
"139 80 CURVE SMOOTH",
"139 102 OFFCURVE",
"170 133 OFFCURVE",
"211 156 CURVE",
"155 194 LINE",
"89 148 OFFCURVE",
"60 107 OFFCURVE",
"60 65 CURVE SMOOTH"
);
},
{
closed = 1;
nodes = (
"369 344 OFFCURVE",
"453 358 OFFCURVE",
"453 400 CURVE SMOOTH",
"453 430 OFFCURVE",
"432 440 OFFCURVE",
"414 440 CURVE SMOOTH",
"392 440 OFFCURVE",
"369 418 OFFCURVE",
"328 418 CURVE SMOOTH",
"313 418 OFFCURVE",
"289 419 OFFCURVE",
"266 423 CURVE",
"308 344 LINE"
);
}
);
width = 459;
}
);
unicode = 0067;
},
{
color = 1;
glyphname = h;
lastChange = "2016-01-19 20:35:18 +0000";
layers = (
{
background = {
paths = (
{
closed = 1;
nodes = (
"224 -19 OFFCURVE",
"277 351 OFFCURVE",
"364 351 CURVE SMOOTH",
"385 351 OFFCURVE",
"397 320 OFFCURVE",
"397 281 CURVE SMOOTH",
"397 105 LINE SMOOTH",
"397 20 OFFCURVE",
"433 -19 OFFCURVE",
"495 -19 CURVE SMOOTH",
"529 -19 OFFCURVE",
"565 -6 OFFCURVE",
"565 26 CURVE",
"565 50 OFFCURVE",
"551 62 OFFCURVE",
"535 62 CURVE",
"520 62 OFFCURVE",
"515 58 OFFCURVE",
"499 58 CURVE SMOOTH",
"483 58 OFFCURVE",
"474 71 OFFCURVE",
"474 105 CURVE SMOOTH",
"474 281 LINE SMOOTH",
"474 390 OFFCURVE",
"417 428 OFFCURVE",
"364 428 CURVE SMOOTH",
"270 428 OFFCURVE",
"204 238 OFFCURVE",
"177 132 CURVE",
"177 132 OFFCURVE",
"187 135 OFFCURVE",
"187 135 CURVE",
"182 322 OFFCURVE",
"138 428 OFFCURVE",
"83 428 CURVE SMOOTH",
"62 428 OFFCURVE",
"41 409 OFFCURVE",
"41 385 CURVE SMOOTH",
"41 338 OFFCURVE",
"113 276 OFFCURVE",
"113 206 CURVE SMOOTH",
"113 104 LINE SMOOTH",
"113 55 OFFCURVE",
"109 53 OFFCURVE",
"109 27 CURVE SMOOTH",
"109 -3 OFFCURVE",
"127 -19 OFFCURVE",
"148 -19 CURVE SMOOTH"
);
}
);
};
layerId = "D34FCF88-AF1D-4520-8FB0-498E26D42FBC";
paths = (
{
closed = 1;
nodes = (
"224 -19 OFFCURVE",
"277 351 OFFCURVE",
"364 351 CURVE SMOOTH",
"385 351 OFFCURVE",
"397 319 OFFCURVE",
"397 281 CURVE SMOOTH",
"397 85 LINE SMOOTH",
"397 14 OFFCURVE",
"429 -19 OFFCURVE",
"485 -19 CURVE SMOOTH",
"514 -19 OFFCURVE",
"545 -4 OFFCURVE",
"545 26 CURVE SMOOTH",
"545 50 OFFCURVE",
"531 62 OFFCURVE",
"515 62 CURVE SMOOTH",
"504 62 OFFCURVE",
"501 58 OFFCURVE",
"489 58 CURVE SMOOTH",
"479 58 OFFCURVE",
"474 65 OFFCURVE",
"474 85 CURVE SMOOTH",
"474 281 LINE SMOOTH",
"474 390 OFFCURVE",
"417 428 OFFCURVE",
"364 428 CURVE SMOOTH",
"270 428 OFFCURVE",
"204 238 OFFCURVE",
"177 132 CURVE",
"177 132 OFFCURVE",
"187 135 OFFCURVE",
"187 135 CURVE",
"189 295 LINE SMOOTH",
"189 333 OFFCURVE",
"180 439 OFFCURVE",
"180 487 CURVE SMOOTH",
"180 549 OFFCURVE",
"196 597 OFFCURVE",
"196 644 CURVE SMOOTH",
"196 668 OFFCURVE",
"175 687 OFFCURVE",
"154 687 CURVE SMOOTH",
"127 687 OFFCURVE",
"108 667 OFFCURVE",
"108 622 CURVE SMOOTH",
"108 596 OFFCURVE",
"100 496 OFFCURVE",
"100 476 CURVE",
"100 424 OFFCURVE",
"113 314 OFFCURVE",
"113 261 CURVE SMOOTH",
"113 104 LINE",
"113 55 OFFCURVE",
"109 53 OFFCURVE",
"109 27 CURVE SMOOTH",
"109 -3 OFFCURVE",
"127 -19 OFFCURVE",
"148 -19 CURVE SMOOTH"
);
}
);
width = 580;
}
);
unicode = 0068;
},
{
color = 1;
glyphname = i;
lastChange = "2016-01-21 11:05:34 +0000";
layers = (
{
background = {
paths = (
{
closed = 1;
nodes = (
"-91 -19 OFFCURVE",
"-38 351 OFFCURVE",
"49 351 CURVE SMOOTH",
"70 351 OFFCURVE",
"82 319 OFFCURVE",
"82 281 CURVE SMOOTH",
"82 85 LINE SMOOTH",
"82 14 OFFCURVE",
"114 -19 OFFCURVE",
"170 -19 CURVE SMOOTH",
"199 -19 OFFCURVE",
"230 -4 OFFCURVE",
"230 26 CURVE SMOOTH",
"230 50 OFFCURVE",
"216 62 OFFCURVE",
"200 62 CURVE SMOOTH",
"189 62 OFFCURVE",
"186 58 OFFCURVE",
"174 58 CURVE SMOOTH",
"164 58 OFFCURVE",
"159 65 OFFCURVE",
"159 85 CURVE SMOOTH",
"159 281 LINE SMOOTH",
"159 390 OFFCURVE",
"102 428 OFFCURVE",
"49 428 CURVE SMOOTH",
"-68 428 OFFCURVE",
"-138 132 OFFCURVE",
"-138 132 CURVE",
"-138 132 OFFCURVE",
"-128 135 OFFCURVE",
"-128 135 CURVE",
"-126 295 LINE SMOOTH",
"-126 333 OFFCURVE",
"-135 439 OFFCURVE",
"-135 487 CURVE SMOOTH",
"-135 549 OFFCURVE",
"-119 597 OFFCURVE",
"-119 644 CURVE SMOOTH",
"-119 668 OFFCURVE",
"-140 687 OFFCURVE",
"-161 687 CURVE SMOOTH",
"-188 687 OFFCURVE",
"-207 667 OFFCURVE",
"-207 622 CURVE SMOOTH",
"-207 596 OFFCURVE",
"-215 496 OFFCURVE",
"-215 476 CURVE",
"-215 424 OFFCURVE",
"-202 314 OFFCURVE",
"-202 261 CURVE SMOOTH",
"-202 104 LINE",
"-202 55 OFFCURVE",
"-206 53 OFFCURVE",
"-206 27 CURVE SMOOTH",
"-206 -3 OFFCURVE",
"-188 -19 OFFCURVE",
"-167 -19 CURVE SMOOTH"
);
}
);
};
layerId = "D34FCF88-AF1D-4520-8FB0-498E26D42FBC";
paths = (
{
closed = 1;
nodes = (
"219 -19 OFFCURVE",
"260 6 OFFCURVE",
"260 36 CURVE SMOOTH",
"260 60 OFFCURVE",
"246 72 OFFCURVE",
"230 72 CURVE SMOOTH",
"209 72 OFFCURVE",
"202 58 OFFCURVE",
"184 58 CURVE SMOOTH",
"168 58 OFFCURVE",
"159 74 OFFCURVE",
"159 100 CURVE SMOOTH",
"159 238 LINE SMOOTH",
"159 300 OFFCURVE",
"175 338 OFFCURVE",
"175 385 CURVE SMOOTH",
"175 409 OFFCURVE",
"144 428 OFFCURVE",
"123 428 CURVE SMOOTH",
"96 428 OFFCURVE",
"77 408 OFFCURVE",
"77 363 CURVE SMOOTH",
"77 337 OFFCURVE",
"82 303 OFFCURVE",
"82 283 CURVE SMOOTH",
"82 100 LINE SMOOTH",
"82 9 OFFCURVE",
"128 -19 OFFCURVE",
"180 -19 CURVE SMOOTH"
);
},
{
closed = 1;
nodes = (
"166 542 OFFCURVE",
"193 581 OFFCURVE",
"193 602 CURVE SMOOTH",
"193 643 OFFCURVE",
"147 676 OFFCURVE",
"119 676 CURVE SMOOTH",
"96 676 OFFCURVE",
"69 637 OFFCURVE",
"69 616 CURVE SMOOTH",
"69 575 OFFCURVE",
"115 542 OFFCURVE",
"143 542 CURVE"
);
}
);
width = 273;
}
);
unicode = 0069;
},
{
glyphname = idotless;
lastChange = "2016-01-18 13:52:01 +0000";
layers = (
{
anchors = (
{
name = top;
position = "{113, 407}";
}
);
background = {
paths = (
{
closed = 1;
nodes = (
"149 100 LINE SMOOTH",
"149 74 OFFCURVE",
"158 58 OFFCURVE",
"174 58 CURVE SMOOTH",
"192 58 OFFCURVE",
"199 72 OFFCURVE",
"220 72 CURVE SMOOTH",
"236 72 OFFCURVE",
"250 60 OFFCURVE",
"250 36 CURVE SMOOTH",
"250 6 OFFCURVE",
"209 -19 OFFCURVE",
"170 -19 CURVE SMOOTH",
"118 -19 OFFCURVE",
"72 9 OFFCURVE",
"72 100 CURVE SMOOTH",
"72 283 LINE SMOOTH",
"72 303 OFFCURVE",
"67 337 OFFCURVE",
"67 363 CURVE SMOOTH",
"67 408 OFFCURVE",
"86 428 OFFCURVE",
"113 428 CURVE SMOOTH",
"134 428 OFFCURVE",
"165 409 OFFCURVE",
"165 385 CURVE SMOOTH",
"165 338 OFFCURVE",
"149 300 OFFCURVE",
"149 238 CURVE SMOOTH"
);
},
{
closed = 1;
nodes = (
"59 616 CURVE SMOOTH",
"59 575 OFFCURVE",
"105 542 OFFCURVE",
"133 542 CURVE",
"156 542 OFFCURVE",
"183 581 OFFCURVE",
"183 602 CURVE SMOOTH",
"183 643 OFFCURVE",
"137 676 OFFCURVE",
"109 676 CURVE SMOOTH",
"86 676 OFFCURVE",
"59 637 OFFCURVE"
);
}
);
};
layerId = "D34FCF88-AF1D-4520-8FB0-498E26D42FBC";
paths = (
{
closed = 1;
nodes = (
"149 100 LINE SMOOTH",
"149 74 OFFCURVE",
"158 58 OFFCURVE",
"174 58 CURVE SMOOTH",
"192 58 OFFCURVE",
"199 72 OFFCURVE",
"220 72 CURVE SMOOTH",
"236 72 OFFCURVE",
"250 60 OFFCURVE",
"250 36 CURVE SMOOTH",
"250 6 OFFCURVE",
"209 -19 OFFCURVE",
"170 -19 CURVE SMOOTH",
"118 -19 OFFCURVE",
"72 9 OFFCURVE",
"72 100 CURVE SMOOTH",
"72 283 LINE SMOOTH",
"72 303 OFFCURVE",
"67 337 OFFCURVE",
"67 363 CURVE SMOOTH",
"67 408 OFFCURVE",
"86 428 OFFCURVE",
"113 428 CURVE SMOOTH",
"134 428 OFFCURVE",
"165 409 OFFCURVE",
"165 385 CURVE SMOOTH",
"165 338 OFFCURVE",
"149 300 OFFCURVE",
"149 238 CURVE SMOOTH"
);
}
);
width = 263;
}
);
unicode = 0131;
},
{
color = 0;
glyphname = j;
lastChange = "2016-01-19 20:18:58 +0000";
layers = (
{
background = {
paths = (
{
closed = 1;
nodes = (
"-21 -198 OFFCURVE",
"22 -228 OFFCURVE",
"51 -219 CURVE SMOOTH",
"90 -207 OFFCURVE",
"137 -180 OFFCURVE",
"187 -161 CURVE SMOOTH",
"258 -129 LINE",
"434 -68 LINE",
"492 -48 OFFCURVE",
"540 -64 OFFCURVE",
"585 -50 CURVE SMOOTH",
"608 -43 OFFCURVE",
"620 -18 OFFCURVE",
"614 2 CURVE SMOOTH",
"593 69 OFFCURVE",
"505 16 OFFCURVE",
"320 -16 CURVE",
"400 -12 LINE",
"491 75 OFFCURVE",
"562 173 OFFCURVE",
"541 240 CURVE SMOOTH",
"526 291 OFFCURVE",
"481 347 OFFCURVE",
"336 303 CURVE SMOOTH",
"199 261 OFFCURVE",
"91 183 OFFCURVE",
"138 31 CURVE SMOOTH",
"148 -3 OFFCURVE",
"169 -41 OFFCURVE",
"194 -70 CURVE",
"122 -101 LINE SMOOTH",
"90 -111 OFFCURVE",
"51 -123 OFFCURVE",
"26 -130 CURVE SMOOTH",
"-8 -141 OFFCURVE",
"-32 -162 OFFCURVE",
"-27 -179 CURVE SMOOTH"
);
},
{
closed = 1;
nodes = (
"185 141 OFFCURVE",
"249 194 OFFCURVE",
"362 228 CURVE SMOOTH",
"442 252 OFFCURVE",
"461 237 OFFCURVE",
"467 217 CURVE SMOOTH",
"478 180 OFFCURVE",
"436 104 OFFCURVE",
"376 51 CURVE SMOOTH",
"271 -40 LINE",
"247 -20 OFFCURVE",
"225 9 OFFCURVE",
"211 54 CURVE SMOOTH"
);
}
);
};
layerId = "D34FCF88-AF1D-4520-8FB0-498E26D42FBC";
paths = (
{
closed = 1;
nodes = (
"49 -221 OFFCURVE",
"73 -205 OFFCURVE",
"94 -186 CURVE SMOOTH",
"137 -147 OFFCURVE",
"170 -101 OFFCURVE",
"173 -15 CURVE SMOOTH",
"182 238 LINE SMOOTH",
"184 300 OFFCURVE",
"198 338 OFFCURVE",
"198 385 CURVE SMOOTH",
"198 409 OFFCURVE",
"167 428 OFFCURVE",
"146 428 CURVE SMOOTH",
"119 428 OFFCURVE",
"100 408 OFFCURVE",
"100 363 CURVE SMOOTH",
"100 337 OFFCURVE",
"106 303 OFFCURVE",
"105 283 CURVE SMOOTH",
"96 -15 LINE SMOOTH",
"94 -79 OFFCURVE",
"73 -105 OFFCURVE",
"19 -132 CURVE SMOOTH",
"-4 -143 OFFCURVE",
"-28 -150 OFFCURVE",
"-28 -177 CURVE SMOOTH",
"-28 -196 OFFCURVE",
"-4 -221 OFFCURVE",
"25 -221 CURVE SMOOTH"
);
},
{
closed = 1;
nodes = (
"116 676 OFFCURVE",
"89 637 OFFCURVE",
"89 616 CURVE SMOOTH",
"89 575 OFFCURVE",
"135 542 OFFCURVE",
"163 542 CURVE",
"186 542 OFFCURVE",
"213 581 OFFCURVE",
"213 602 CURVE SMOOTH",
"213 643 OFFCURVE",
"167 676 OFFCURVE",
"139 676 CURVE SMOOTH"
);
}
);
width = 268;
}
);
unicode = 006A;
},
{
color = 0;
glyphname = k;
lastChange = "2016-01-19 20:19:01 +0000";
layers = (
{
background = {
paths = (
{
closed = 1;
nodes = (
"171 -19 OFFCURVE",
"190 1 OFFCURVE",
"190 46 CURVE SMOOTH",
"190 72 OFFCURVE",
"185 106 OFFCURVE",
"185 126 CURVE SMOOTH",
"184 497 LINE SMOOTH",
"184 559 OFFCURVE",
"200 597 OFFCURVE",
"200 644 CURVE SMOOTH",
"200 668 OFFCURVE",
"169 687 OFFCURVE",
"148 687 CURVE SMOOTH",
"121 687 OFFCURVE",
"102 667 OFFCURVE",
"102 622 CURVE SMOOTH",
"102 596 OFFCURVE",
"107 562 OFFCURVE",
"107 542 CURVE SMOOTH",
"108 171 LINE SMOOTH",
"108 109 OFFCURVE",
"92 71 OFFCURVE",
"92 24 CURVE SMOOTH",
"92 0 OFFCURVE",
"123 -19 OFFCURVE",
"144 -19 CURVE SMOOTH"
);
},
{
closed = 1;
nodes = (
"481 -19 OFFCURVE",
"502 -4 OFFCURVE",
"502 12 CURVE SMOOTH",
"502 32 OFFCURVE",
"466 58 OFFCURVE",
"424 92 CURVE SMOOTH",
"381 127 LINE SMOOTH",
"359 145 OFFCURVE",
"322 170 OFFCURVE",
"290 184 CURVE",
"314 164 LINE",
"356 208 LINE SMOOTH",
"418 273 OFFCURVE",
"451 322 OFFCURVE",
"451 380 CURVE SMOOTH",
"451 410 OFFCURVE",
"435 428 OFFCURVE",
"409 428 CURVE SMOOTH",
"354 428 OFFCURVE",
"392 357 OFFCURVE",
"303 265 CURVE SMOOTH",
"248 208 LINE SMOOTH",
"236 196 OFFCURVE",
"228 184 OFFCURVE",
"228 170 CURVE SMOOTH",
"228 155 OFFCURVE",
"236 144 OFFCURVE",
"250 133 CURVE SMOOTH",
"335 65 LINE SMOOTH",
"383 23 OFFCURVE",
"400 -19 OFFCURVE",
"451 -19 CURVE SMOOTH"
);
}
);
};
layerId = "D34FCF88-AF1D-4520-8FB0-498E26D42FBC";
paths = (
{
closed = 1;
nodes = (
"481 -19 OFFCURVE",
"502 -4 OFFCURVE",
"502 12 CURVE SMOOTH",
"502 32 OFFCURVE",
"466 58 OFFCURVE",
"424 92 CURVE SMOOTH",
"381 127 LINE SMOOTH",
"352 151 OFFCURVE",
"307 186 OFFCURVE",
"265 204 CURVE",
"289 188 LINE",
"356 258 LINE SMOOTH",
"392 296 OFFCURVE",
"440 339 OFFCURVE",
"440 380 CURVE SMOOTH",
"440 410 OFFCURVE",
"424 428 OFFCURVE",
"398 428 CURVE SMOOTH",
"348 428 OFFCURVE",
"363 378 OFFCURVE",
"303 315 CURVE SMOOTH",
"248 258 LINE SMOOTH",
"224 233 OFFCURVE",
"201 218 OFFCURVE",
"201 193 CURVE SMOOTH",
"201 170 OFFCURVE",
"221 157 OFFCURVE",
"250 133 CURVE SMOOTH",
"335 65 LINE SMOOTH",
"391 20 OFFCURVE",
"400 -19 OFFCURVE",
"451 -19 CURVE SMOOTH"
);
},
{
closed = 1;
nodes = (
"171 -19 OFFCURVE",
"190 1 OFFCURVE",
"190 46 CURVE SMOOTH",
"190 72 OFFCURVE",
"185 106 OFFCURVE",
"185 126 CURVE SMOOTH",
"184 497 LINE SMOOTH",
"184 559 OFFCURVE",
"200 597 OFFCURVE",
"200 644 CURVE SMOOTH",
"200 668 OFFCURVE",
"169 687 OFFCURVE",
"148 687 CURVE SMOOTH",
"121 687 OFFCURVE",
"102 667 OFFCURVE",
"102 622 CURVE SMOOTH",
"102 596 OFFCURVE",
"107 562 OFFCURVE",
"107 542 CURVE SMOOTH",
"108 171 LINE SMOOTH",
"108 109 OFFCURVE",
"92 71 OFFCURVE",
"92 24 CURVE SMOOTH",
"92 0 OFFCURVE",
"123 -19 OFFCURVE",
"144 -19 CURVE SMOOTH"
);
}
);
width = 510;
}
);
unicode = 006B;
},
{
color = 1;
glyphname = l;
lastChange = "2016-01-19 20:19:04 +0000";
layers = (
{
background = {
paths = (
{
closed = 1;
nodes = (
"98 59 OFFCURVE",
"90 82 OFFCURVE",
"90 158 CURVE SMOOTH",
"90 257 OFFCURVE",
"117 460 OFFCURVE",
"117 542 CURVE SMOOTH",
"117 562 OFFCURVE",
"112 596 OFFCURVE",
"112 622 CURVE SMOOTH",
"112 667 OFFCURVE",
"131 687 OFFCURVE",
"158 687 CURVE SMOOTH",
"179 687 OFFCURVE",
"210 668 OFFCURVE",
"210 644 CURVE SMOOTH",
"210 597 OFFCURVE",
"194 559 OFFCURVE",
"194 497 CURVE",
"184 359 LINE",
"175 118 LINE SMOOTH",
"172 16 OFFCURVE",
"244 95 OFFCURVE",
"244 24 CURVE SMOOTH",
"244 0 OFFCURVE",
"223 -19 OFFCURVE",
"196 -19 CURVE SMOOTH",
"174 -19 OFFCURVE",
"139 -12 OFFCURVE",
"117 26 CURVE SMOOTH"
);
}
);
};
layerId = "D34FCF88-AF1D-4520-8FB0-498E26D42FBC";
paths = (
{
closed = 1;
nodes = (
"98 59 OFFCURVE",
"90 82 OFFCURVE",
"90 158 CURVE SMOOTH",
"90 257 OFFCURVE",
"117 460 OFFCURVE",
"117 542 CURVE SMOOTH",
"117 562 OFFCURVE",
"112 596 OFFCURVE",
"112 622 CURVE SMOOTH",
"112 667 OFFCURVE",
"131 687 OFFCURVE",
"158 687 CURVE SMOOTH",
"179 687 OFFCURVE",
"210 668 OFFCURVE",
"210 644 CURVE SMOOTH",
"210 607 OFFCURVE",
"199 569 OFFCURVE",
"194 497 CURVE SMOOTH",
"184 359 LINE",
"175 118 LINE SMOOTH",
"172 16 OFFCURVE",
"244 95 OFFCURVE",
"244 24 CURVE SMOOTH",
"244 0 OFFCURVE",
"223 -19 OFFCURVE",
"196 -19 CURVE SMOOTH",
"174 -19 OFFCURVE",
"139 -12 OFFCURVE",
"117 26 CURVE SMOOTH"
);
}
);
width = 289;
}
);
unicode = 006C;
},
{
color = 1;
glyphname = m;
lastChange = "2016-01-19 20:29:47 +0000";
layers = (
{
background = {
paths = (
{
closed = 1;
nodes = (
"226 -19 OFFCURVE",
"279 351 OFFCURVE",
"366 351 CURVE SMOOTH",
"387 351 OFFCURVE",
"399 320 OFFCURVE",
"399 281 CURVE SMOOTH",
"399 105 LINE SMOOTH",
"399 20 OFFCURVE",
"435 -19 OFFCURVE",
"497 -19 CURVE SMOOTH",
"531 -19 OFFCURVE",
"567 -6 OFFCURVE",
"567 26 CURVE",
"567 50 OFFCURVE",
"553 62 OFFCURVE",
"537 62 CURVE",
"522 62 OFFCURVE",
"517 58 OFFCURVE",
"501 58 CURVE SMOOTH",
"485 58 OFFCURVE",
"476 71 OFFCURVE",
"476 105 CURVE SMOOTH",
"476 281 LINE SMOOTH",
"476 390 OFFCURVE",
"419 428 OFFCURVE",
"366 428 CURVE SMOOTH",
"249 428 OFFCURVE",
"179 132 OFFCURVE",
"179 132 CURVE",
"179 132 OFFCURVE",
"189 135 OFFCURVE",
"189 135 CURVE",
"184 322 OFFCURVE",
"140 428 OFFCURVE",
"85 428 CURVE SMOOTH",
"64 428 OFFCURVE",
"43 409 OFFCURVE",
"43 385 CURVE SMOOTH",
"43 338 OFFCURVE",
"115 276 OFFCURVE",
"115 206 CURVE SMOOTH",
"115 104 LINE SMOOTH",
"115 55 OFFCURVE",
"111 53 OFFCURVE",
"111 27 CURVE SMOOTH",
"111 -3 OFFCURVE",
"129 -19 OFFCURVE",
"150 -19 CURVE SMOOTH"
);
}
);
};
layerId = "D34FCF88-AF1D-4520-8FB0-498E26D42FBC";
paths = (
{
closed = 1;
nodes = (
"207 -19 OFFCURVE",
"308 351 OFFCURVE",
"408 351 CURVE SMOOTH",
"419 351 OFFCURVE",
"422 337 OFFCURVE",
"417 281 CURVE SMOOTH",
"393 27 LINE SMOOTH",
"391 10 OFFCURVE",
"408 -19 OFFCURVE",
"440 -19 CURVE SMOOTH",
"487 -19 OFFCURVE",
"519 81 OFFCURVE",
"574 170 CURVE",
"609 224 OFFCURVE",
"689 351 OFFCURVE",
"725 351 CURVE SMOOTH",
"732 351 OFFCURVE",
"733 344 OFFCURVE",
"733 313 CURVE SMOOTH",
"733 105 LINE SMOOTH",
"733 24 OFFCURVE",
"767 -19 OFFCURVE",
"826 -19 CURVE SMOOTH",
"860 -19 OFFCURVE",
"896 -6 OFFCURVE",
"896 26 CURVE SMOOTH",
"896 50 OFFCURVE",
"882 62 OFFCURVE",
"866 62 CURVE SMOOTH",
"854 62 OFFCURVE",
"845 58 OFFCURVE",
"833 58 CURVE SMOOTH",
"817 58 OFFCURVE",
"810 76 OFFCURVE",
"810 105 CURVE SMOOTH",
"810 312 LINE SMOOTH",
"810 394 OFFCURVE",
"769 428 OFFCURVE",
"725 428 CURVE SMOOTH",
"662 428 OFFCURVE",
"544 256 OFFCURVE",
"493 166 CURVE SMOOTH",
"489 159 OFFCURVE",
"483 149 OFFCURVE",
"480 144 CURVE",
"467 144 LINE",
"467 144 OFFCURVE",
"472 94 OFFCURVE",
"472 94 CURVE",
"494 281 LINE SMOOTH",
"506 400 OFFCURVE",
"472 428 OFFCURVE",
"408 428 CURVE SMOOTH",
"291 428 OFFCURVE",
"181 142 OFFCURVE",
"181 142 CURVE",
"181 142 OFFCURVE",
"199 142 OFFCURVE",
"199 142 CURVE",
"176 328 OFFCURVE",
"201 428 OFFCURVE",
"131 428 CURVE SMOOTH",
"110 428 OFFCURVE",
"89 409 OFFCURVE",
"89 385 CURVE SMOOTH",
"89 338 OFFCURVE",
"118 297 OFFCURVE",
"116 236 CURVE SMOOTH",
"112 110 LINE SMOOTH",
"111 72 OFFCURVE",
"99 53 OFFCURVE",
"99 27 CURVE SMOOTH",
"99 -3 OFFCURVE",
"112 -19 OFFCURVE",
"133 -19 CURVE SMOOTH"
);
}
);
width = 916;
}
);
unicode = 006D;
},
{
color = 1;
glyphname = n;
lastChange = "2016-01-19 20:34:36 +0000";
layers = (
{
background = {
paths = (
{
closed = 1;
nodes = (
"224 -19 OFFCURVE",
"277 351 OFFCURVE",
"364 351 CURVE SMOOTH",
"385 351 OFFCURVE",
"397 320 OFFCURVE",
"397 281 CURVE SMOOTH",
"397 105 LINE SMOOTH",
"397 20 OFFCURVE",
"433 -19 OFFCURVE",
"495 -19 CURVE SMOOTH",
"529 -19 OFFCURVE",
"565 -6 OFFCURVE",
"565 26 CURVE",
"565 50 OFFCURVE",
"551 62 OFFCURVE",
"535 62 CURVE",
"520 62 OFFCURVE",
"515 58 OFFCURVE",
"499 58 CURVE SMOOTH",
"483 58 OFFCURVE",
"474 71 OFFCURVE",
"474 105 CURVE SMOOTH",
"474 281 LINE SMOOTH",
"474 390 OFFCURVE",
"417 428 OFFCURVE",
"364 428 CURVE SMOOTH",
"247 428 OFFCURVE",
"177 132 OFFCURVE",
"177 132 CURVE",
"177 132 OFFCURVE",
"187 135 OFFCURVE",
"187 135 CURVE",
"182 322 OFFCURVE",
"138 428 OFFCURVE",
"83 428 CURVE SMOOTH",
"62 428 OFFCURVE",
"41 409 OFFCURVE",
"41 385 CURVE SMOOTH",
"41 338 OFFCURVE",
"113 276 OFFCURVE",
"113 206 CURVE SMOOTH",
"113 104 LINE SMOOTH",
"113 55 OFFCURVE",
"109 53 OFFCURVE",
"109 27 CURVE SMOOTH",
"109 -3 OFFCURVE",
"127 -19 OFFCURVE",
"148 -19 CURVE SMOOTH"
);
}
);
};
layerId = "D34FCF88-AF1D-4520-8FB0-498E26D42FBC";
paths = (
{
closed = 1;
nodes = (
"224 -19 OFFCURVE",
"277 351 OFFCURVE",
"364 351 CURVE SMOOTH",
"385 351 OFFCURVE",
"397 320 OFFCURVE",
"397 281 CURVE SMOOTH",
"397 105 LINE SMOOTH",
"397 20 OFFCURVE",
"433 -19 OFFCURVE",
"495 -19 CURVE SMOOTH",
"529 -19 OFFCURVE",
"565 -6 OFFCURVE",
"565 26 CURVE",
"565 50 OFFCURVE",
"551 62 OFFCURVE",
"535 62 CURVE",
"520 62 OFFCURVE",
"515 58 OFFCURVE",
"499 58 CURVE SMOOTH",
"483 58 OFFCURVE",
"474 71 OFFCURVE",
"474 105 CURVE SMOOTH",
"474 281 LINE SMOOTH",
"474 390 OFFCURVE",
"417 428 OFFCURVE",
"364 428 CURVE SMOOTH",
"270 428 OFFCURVE",
"204 238 OFFCURVE",
"177 132 CURVE",
"177 132 OFFCURVE",
"187 135 OFFCURVE",
"187 135 CURVE",
"182 322 OFFCURVE",
"138 428 OFFCURVE",
"83 428 CURVE SMOOTH",
"62 428 OFFCURVE",
"41 409 OFFCURVE",
"41 385 CURVE SMOOTH",
"41 338 OFFCURVE",
"113 276 OFFCURVE",
"113 206 CURVE SMOOTH",
"113 104 LINE SMOOTH",
"113 55 OFFCURVE",
"109 53 OFFCURVE",
"109 27 CURVE SMOOTH",
"109 -3 OFFCURVE",
"127 -19 OFFCURVE",
"148 -19 CURVE SMOOTH"
);
}
);
width = 580;
}
);
unicode = 006E;
},
{
color = 1;
glyphname = o;
lastChange = "2016-01-19 20:16:53 +0000";
layers = (
{
anchors = (
{
name = top;
position = "{264, 407}";
}
);
background = {
paths = (
{
closed = 1;
nodes = (
"204 -19 OFFCURVE",
"257 351 OFFCURVE",
"344 351 CURVE SMOOTH",
"365 351 OFFCURVE",
"377 320 OFFCURVE",
"377 281 CURVE SMOOTH",
"377 105 LINE SMOOTH",
"377 20 OFFCURVE",
"413 -19 OFFCURVE",
"475 -19 CURVE SMOOTH",
"509 -19 OFFCURVE",
"545 -6 OFFCURVE",
"545 26 CURVE",
"545 50 OFFCURVE",
"531 62 OFFCURVE",
"515 62 CURVE",
"500 62 OFFCURVE",
"495 58 OFFCURVE",
"479 58 CURVE SMOOTH",
"463 58 OFFCURVE",
"454 71 OFFCURVE",
"454 105 CURVE SMOOTH",
"454 281 LINE SMOOTH",
"454 390 OFFCURVE",
"397 428 OFFCURVE",
"344 428 CURVE SMOOTH",
"227 428 OFFCURVE",
"157 132 OFFCURVE",
"157 132 CURVE",
"157 132 OFFCURVE",
"167 135 OFFCURVE",
"167 135 CURVE",
"162 322 OFFCURVE",
"118 428 OFFCURVE",
"63 428 CURVE SMOOTH",
"42 428 OFFCURVE",
"21 409 OFFCURVE",
"21 385 CURVE SMOOTH",
"21 338 OFFCURVE",
"93 276 OFFCURVE",
"93 206 CURVE SMOOTH",
"93 104 LINE SMOOTH",
"93 55 OFFCURVE",
"89 53 OFFCURVE",
"89 27 CURVE SMOOTH",
"89 -3 OFFCURVE",
"107 -19 OFFCURVE",
"128 -19 CURVE SMOOTH"
);
}
);
};
layerId = "D34FCF88-AF1D-4520-8FB0-498E26D42FBC";
paths = (
{
closed = 1;
nodes = (
"402 -19 OFFCURVE",
"489 98 OFFCURVE",
"489 219 CURVE SMOOTH",
"489 328 OFFCURVE",
"403 428 OFFCURVE",
"284 428 CURVE SMOOTH",
"166 428 OFFCURVE",
"60 320 OFFCURVE",
"60 199 CURVE SMOOTH",
"60 158 OFFCURVE",
"67 120 OFFCURVE",
"91 81 CURVE SMOOTH",
"122 30 OFFCURVE",
"173 -19 OFFCURVE",
"259 -19 CURVE SMOOTH"
);
},
{
closed = 1;
nodes = (
"201 58 OFFCURVE",
"139 122 OFFCURVE",
"139 199 CURVE SMOOTH",
"139 277 OFFCURVE",
"209 351 OFFCURVE",
"284 351 CURVE SMOOTH",
"364 351 OFFCURVE",
"410 270 OFFCURVE",
"410 219 CURVE SMOOTH",
"410 140 OFFCURVE",
"355 58 OFFCURVE",
"259 58 CURVE SMOOTH"
);
}
);
width = 549;
}
);
unicode = 006F;
},
{
color = 0;
glyphname = p;
lastChange = "2016-01-19 20:20:14 +0000";
layers = (
{
background = {
paths = (
{
closed = 1;
nodes = (
"84 -198 CURVE",
"89 -228 OFFCURVE",
"120 -247 OFFCURVE",
"143 -257 CURVE",
"146 -256 OFFCURVE",
"157 -245 OFFCURVE",
"158 -242 CURVE",
"160 -232 OFFCURVE",
"171 -160 OFFCURVE",
"172 -139 CURVE",
"173 -133 OFFCURVE",
"172 -86 OFFCURVE",
"172 -80 CURVE",
"174 -73 OFFCURVE",
"184 -21 OFFCURVE",
"188 -7 CURVE",
"191 8 OFFCURVE",
"197 42 OFFCURVE",
"217 52 CURVE",
"250 31 OFFCURVE",
"301 8 OFFCURVE",
"342 8 CURVE",
"356 8 OFFCURVE",
"366 11 OFFCURVE",
"379 22 CURVE",
"438 73 OFFCURVE",
"483 148 OFFCURVE",
"483 227 CURVE",
"483 277 OFFCURVE",
"479 340 OFFCURVE",
"438 375 CURVE",
"415 394 OFFCURVE",
"391 406 OFFCURVE",
"363 406 CURVE",
"360 406 OFFCURVE",
"350 405 OFFCURVE",
"349 404 CURVE",
"339 400 OFFCURVE",
"308 380 OFFCURVE",
"305 375 CURVE",
"172 170 LINE",
"172 404 LINE",
"129 449 LINE",
"99 420 LINE",
"96 416 OFFCURVE",
"85 313 OFFCURVE",
"84 272 CURVE",
"84 264 OFFCURVE",
"83 99 OFFCURVE",
"83 37 CURVE",
"83 2 OFFCURVE",
"84 -163 OFFCURVE"
);
},
{
closed = 1;
nodes = (
"245 141 CURVE",
"245 144 OFFCURVE",
"246 154 OFFCURVE",
"246 154 CURVE",
"267 208 OFFCURVE",
"337 280 OFFCURVE",
"379 316 CURVE",
"402 313 OFFCURVE",
"395 264 OFFCURVE",
"395 259 CURVE",
"395 199 OFFCURVE",
"376 130 OFFCURVE",
"320 96 CURVE",
"319 96 OFFCURVE",
"310 95 OFFCURVE",
"306 95 CURVE",
"279 95 OFFCURVE",
"245 111 OFFCURVE"
);
}
);
};
layerId = "D34FCF88-AF1D-4520-8FB0-498E26D42FBC";
paths = (
{
closed = 1;
nodes = (
"157 -238 OFFCURVE",
"170 -208 OFFCURVE",
"170 -173 CURVE SMOOTH",
"170 -147 OFFCURVE",
"170 -106 OFFCURVE",
"170 -73 CURVE SMOOTH",
"179 5 LINE",
"214 -10 OFFCURVE",
"256 -19 OFFCURVE",
"292 -19 CURVE SMOOTH",
"451 -19 OFFCURVE",
"494 107 OFFCURVE",
"494 250 CURVE SMOOTH",
"494 401 OFFCURVE",
"428 428 OFFCURVE",
"374 428 CURVE SMOOTH",
"304 428 OFFCURVE",
"231 332 OFFCURVE",
"174 219 CURVE",
"194 142 LINE",
"171 328 OFFCURVE",
"196 428 OFFCURVE",
"126 428 CURVE SMOOTH",
"105 428 OFFCURVE",
"84 409 OFFCURVE",
"84 385 CURVE SMOOTH",
"84 338 OFFCURVE",
"113 297 OFFCURVE",
"111 236 CURVE",
"104 50 LINE",
"94 -28 LINE SMOOTH",
"90 -81 OFFCURVE",
"78 -134 OFFCURVE",
"78 -175 CURVE SMOOTH",
"78 -205 OFFCURVE",
"119 -238 OFFCURVE",
"139 -238 CURVE SMOOTH"
);
},
{
closed = 1;
nodes = (
"245 58 OFFCURVE",
"211 71 OFFCURVE",
"185 88 CURVE",
"242 215 LINE SMOOTH",
"275 288 OFFCURVE",
"335 350 OFFCURVE",
"374 350 CURVE SMOOTH",
"395 350 OFFCURVE",
"415 337 OFFCURVE",
"415 253 CURVE SMOOTH",
"415 135 OFFCURVE",
"383 58 OFFCURVE",
"292 58 CURVE SMOOTH"
);
}
);
width = 554;
}
);
unicode = 0070;
},
{
color = 0;
glyphname = q;
lastChange = "2015-11-26 21:39:57 +0000";
layers = (
{
background = {
paths = (
{
closed = 1;
nodes = (
"256 -19 OFFCURVE",
"330 92 OFFCURVE",
"369 168 CURVE SMOOTH",
"401 230 OFFCURVE",
"466 321 OFFCURVE",
"466 392 CURVE SMOOTH",
"466 414 OFFCURVE",
"440 428 OFFCURVE",
"423 428 CURVE SMOOTH",
"402 428 OFFCURVE",
"345 389 OFFCURVE",
"345 312 CURVE SMOOTH",
"345 257 OFFCURVE",
"361 214 OFFCURVE",
"370 140 CURVE SMOOTH",
"374 106 LINE SMOOTH",
"384 19 OFFCURVE",
"422 -19 OFFCURVE",
"469 -19 CURVE SMOOTH",
"490 -19 OFFCURVE",
"511 0 OFFCURVE",
"511 24 CURVE SMOOTH",
"511 71 OFFCURVE",
"450 46 OFFCURVE",
"442 138 CURVE SMOOTH",
"432 249 LINE",
"432 249 OFFCURVE",
"438 354 OFFCURVE",
"438 354 CURVE",
"438 354 OFFCURVE",
"393 373 OFFCURVE",
"393 373 CURVE",
"312 194 LINE SMOOTH",
"279 120 OFFCURVE",
"219 58 OFFCURVE",
"180 58 CURVE SMOOTH",
"159 58 OFFCURVE",
"139 74 OFFCURVE",
"139 186 CURVE SMOOTH",
"139 286 OFFCURVE",
"163 377 OFFCURVE",
"163 409 CURVE SMOOTH",
"163 431 OFFCURVE",
"150 444 OFFCURVE",
"122 444 CURVE SMOOTH",
"75 444 OFFCURVE",
"60 327 OFFCURVE",
"60 189 CURVE SMOOTH",
"60 13 OFFCURVE",
"126 -19 OFFCURVE",
"180 -19 CURVE SMOOTH"
);
}
);
};
layerId = "D34FCF88-AF1D-4520-8FB0-498E26D42FBC";
paths = (
{
closed = 1;
nodes = (
"431 -238 OFFCURVE",
"443 -223 OFFCURVE",
"443 -190 CURVE SMOOTH",
"443 -167 OFFCURVE",
"437 -75 OFFCURVE",
"437 -57 CURVE",
"437 -5 OFFCURVE",
"442 79 OFFCURVE",
"442 148 CURVE SMOOTH",
"442 216 OFFCURVE",
"461 293 OFFCURVE",
"461 351 CURVE SMOOTH",
"461 392 OFFCURVE",
"427 418 OFFCURVE",
"406 418 CURVE SMOOTH",
"397 418 OFFCURVE",
"387 400 OFFCURVE",
"378 351 CURVE",
"312 204 LINE SMOOTH",
"279 129 OFFCURVE",
"223 59 OFFCURVE",
"185 59 CURVE SMOOTH",
"161 59 OFFCURVE",
"139 72 OFFCURVE",
"139 156 CURVE SMOOTH",
"139 264 OFFCURVE",
"191 351 OFFCURVE",
"262 351 CURVE SMOOTH",
"277 351 OFFCURVE",
"292 349 OFFCURVE",
"304 347 CURVE SMOOTH",
"333 342 OFFCURVE",
"352 357 OFFCURVE",
"352 381 CURVE SMOOTH",
"352 408 OFFCURVE",
"339 417 OFFCURVE",
"318 422 CURVE SMOOTH",
"299 426 OFFCURVE",
"280 428 OFFCURVE",
"262 428 CURVE SMOOTH",
"133 428 OFFCURVE",
"60 292 OFFCURVE",
"60 159 CURVE SMOOTH",
"60 18 OFFCURVE",
"129 -19 OFFCURVE",
"185 -19 CURVE SMOOTH",
"251 -19 OFFCURVE",
"328 67 OFFCURVE",
"372 170 CURVE",
"370 267 LINE",
"365 114 LINE",
"365 76 OFFCURVE",
"360 -20 OFFCURVE",
"360 -68 CURVE SMOOTH",
"360 -116 OFFCURVE",
"355 -154 OFFCURVE",
"355 -190 CURVE SMOOTH",
"355 -211 OFFCURVE",
"385 -238 OFFCURVE",
"409 -238 CURVE SMOOTH"
);
}
);
width = 541;
}
);
unicode = 0071;
},
{
color = 0;
glyphname = r;
lastChange = "2016-01-19 20:33:49 +0000";
layers = (
{
background = {
paths = (
{
closed = 1;
nodes = (
"229 -18 OFFCURVE",
"268 352 OFFCURVE",
"355 356 CURVE SMOOTH",
"376 357 OFFCURVE",
"389 326 OFFCURVE",
"391 287 CURVE SMOOTH",
"398 111 LINE SMOOTH",
"401 26 OFFCURVE",
"438 -11 OFFCURVE",
"500 -9 CURVE SMOOTH",
"534 -8 OFFCURVE",
"570 7 OFFCURVE",
"569 39 CURVE",
"568 62 OFFCURVE",
"553 74 OFFCURVE",
"537 73 CURVE",
"522 73 OFFCURVE",
"517 69 OFFCURVE",
"501 68 CURVE SMOOTH",
"485 67 OFFCURVE",
"476 80 OFFCURVE",
"475 114 CURVE SMOOTH",
"468 290 LINE SMOOTH",
"464 399 OFFCURVE",
"405 435 OFFCURVE",
"352 433 CURVE SMOOTH",
"236 429 OFFCURVE",
"177 130 OFFCURVE",
"177 130 CURVE",
"177 130 OFFCURVE",
"187 133 OFFCURVE",
"187 133 CURVE",
"175 320 OFFCURVE",
"127 425 OFFCURVE",
"72 422 CURVE SMOOTH",
"51 421 OFFCURVE",
"30 401 OFFCURVE",
"31 377 CURVE SMOOTH",
"33 330 OFFCURVE",
"107 271 OFFCURVE",
"110 201 CURVE SMOOTH",
"114 99 LINE SMOOTH",
"116 50 OFFCURVE",
"112 48 OFFCURVE",
"113 22 CURVE SMOOTH",
"114 -8 OFFCURVE",
"133 -23 OFFCURVE",
"154 -22 CURVE SMOOTH"
);
}
);
};
layerId = "D34FCF88-AF1D-4520-8FB0-498E26D42FBC";
paths = (
{
closed = 1;
nodes = (
"195 -19 OFFCURVE",
"208 0 OFFCURVE",
"216 27 CURVE SMOOTH",
"240 129 OFFCURVE",
"286 341 OFFCURVE",
"354 341 CURVE SMOOTH",
"381 341 OFFCURVE",
"377 303 OFFCURVE",
"412 303 CURVE SMOOTH",
"437 303 OFFCURVE",
"449 321 OFFCURVE",
"449 346 CURVE SMOOTH",
"449 390 OFFCURVE",
"407 428 OFFCURVE",
"354 428 CURVE SMOOTH",
"253 428 OFFCURVE",
"201 232 OFFCURVE",
"177 130 CURVE",
"177 130 OFFCURVE",
"185 135 OFFCURVE",
"185 135 CURVE",
"180 322 OFFCURVE",
"138 428 OFFCURVE",
"83 428 CURVE SMOOTH",
"62 428 OFFCURVE",
"41 409 OFFCURVE",
"41 385 CURVE SMOOTH",
"41 338 OFFCURVE",
"110 288 OFFCURVE",
"113 210 CURVE SMOOTH",
"120 27 LINE SMOOTH",
"121 -1 OFFCURVE",
"141 -19 OFFCURVE",
"168 -19 CURVE SMOOTH"
);
}
);
width = 468;
}
);
unicode = 0072;
},
{
color = 1;
glyphname = s;
lastChange = "2015-11-25 18:41:58 +0000";
layers = (
{
background = {
paths = (
{
closed = 1;
nodes = (
"129 -9 OFFCURVE",
"172 -19 OFFCURVE",
"216 -19 CURVE SMOOTH",
"279 -19 OFFCURVE",
"357 18 OFFCURVE",
"357 98 CURVE SMOOTH",
"357 245 OFFCURVE",
"149 219 OFFCURVE",
"149 303 CURVE SMOOTH",
"149 346 OFFCURVE",
"193 354 OFFCURVE",
"222 354 CURVE SMOOTH",
"336 354 OFFCURVE",
"287 258 OFFCURVE",
"341 258 CURVE SMOOTH",
"356 258 OFFCURVE",
"378 281 OFFCURVE",
"378 320 CURVE SMOOTH",
"378 345 OFFCURVE",
"366 372 OFFCURVE",
"342 392 CURVE SMOOTH",
"316 415 OFFCURVE",
"261 425 OFFCURVE",
"222 425 CURVE SMOOTH",
"134 425 OFFCURVE",
"70 374 OFFCURVE",
"70 303 CURVE SMOOTH",
"70 156 OFFCURVE",
"278 183 OFFCURVE",
"278 98 CURVE SMOOTH",
"278 66 OFFCURVE",
"245 52 OFFCURVE",
"216 52 CURVE SMOOTH",
"173 52 OFFCURVE",
"137 62 OFFCURVE",
"118 83 CURVE",
"118 83 OFFCURVE",
"156 10 OFFCURVE",
"156 10 CURVE",
"137 116 LINE SMOOTH",
"135 130 OFFCURVE",
"127 138 OFFCURVE",
"113 138 CURVE SMOOTH",
"101 138 OFFCURVE",
"92 130 OFFCURVE",
"91 116 CURVE SMOOTH",
"81 9 LINE SMOOTH",
"73 -39 OFFCURVE",
"95 -48 OFFCURVE",
"117 -48 CURVE SMOOTH",
"138 -48 OFFCURVE",
"148 -35 OFFCURVE",
"153 1 CURVE",
"153 1 OFFCURVE",
"101 7 OFFCURVE",
"101 7 CURVE"
);
}
);
};
guideLines = (
{
angle = 90;
position = "{83, 109}";
},
{
angle = 90;
position = "{334, 249}";
}
);
layerId = "D34FCF88-AF1D-4520-8FB0-498E26D42FBC";
paths = (
{
closed = 1;
nodes = (
"298 415 OFFCURVE",
"255 425 OFFCURVE",
"211 425 CURVE SMOOTH",
"148 425 OFFCURVE",
"70 388 OFFCURVE",
"70 308 CURVE SMOOTH",
"70 161 OFFCURVE",
"278 187 OFFCURVE",
"278 103 CURVE SMOOTH",
"278 60 OFFCURVE",
"234 52 OFFCURVE",
"205 52 CURVE SMOOTH",
"91 52 OFFCURVE",
"140 148 OFFCURVE",
"86 148 CURVE SMOOTH",
"71 148 OFFCURVE",
"49 125 OFFCURVE",
"49 86 CURVE SMOOTH",
"49 61 OFFCURVE",
"61 34 OFFCURVE",
"85 14 CURVE SMOOTH",
"111 -9 OFFCURVE",
"166 -19 OFFCURVE",
"205 -19 CURVE SMOOTH",
"293 -19 OFFCURVE",
"357 32 OFFCURVE",
"357 103 CURVE SMOOTH",
"357 250 OFFCURVE",
"149 223 OFFCURVE",
"149 308 CURVE SMOOTH",
"149 340 OFFCURVE",
"182 354 OFFCURVE",
"211 354 CURVE SMOOTH",
"254 354 OFFCURVE",
"290 344 OFFCURVE",
"309 323 CURVE",
"309 323 OFFCURVE",
"271 396 OFFCURVE",
"271 396 CURVE",
"290 290 LINE SMOOTH",
"292 276 OFFCURVE",
"300 268 OFFCURVE",
"314 268 CURVE SMOOTH",
"326 268 OFFCURVE",
"335 276 OFFCURVE",
"336 290 CURVE SMOOTH",
"346 397 LINE SMOOTH",
"354 445 OFFCURVE",
"332 454 OFFCURVE",
"310 454 CURVE SMOOTH",
"289 454 OFFCURVE",
"279 441 OFFCURVE",
"274 405 CURVE",
"274 405 OFFCURVE",
"326 399 OFFCURVE",
"326 399 CURVE"
);
}
);
width = 418;
}
);
unicode = 0073;
},
{
color = 0;
glyphname = germandbls;
lastChange = "2016-01-21 18:28:31 +0000";
layers = (
{
background = {
paths = (
{
closed = 1;
nodes = (
"164 -238 OFFCURVE",
"179 -212 OFFCURVE",
"179 -189 CURVE SMOOTH",
"179 -100 OFFCURVE",
"192 6 OFFCURVE",
"192 95 CURVE SMOOTH",
"193 376 LINE SMOOTH",
"194 557 OFFCURVE",
"223 610 OFFCURVE",
"296 610 CURVE SMOOTH",
"332 610 OFFCURVE",
"342 596 OFFCURVE",
"364 596 CURVE SMOOTH",
"386 596 OFFCURVE",
"397 612 OFFCURVE",
"397 631 CURVE SMOOTH",
"397 654 OFFCURVE",
"382 666 OFFCURVE",
"362 674 CURVE SMOOTH",
"344 681 OFFCURVE",
"321 687 OFFCURVE",
"296 687 CURVE",
"241 687 OFFCURVE",
"206 671 OFFCURVE",
"180 648 CURVE SMOOTH",
"118 593 OFFCURVE",
"103 474 OFFCURVE",
"106 376 CURVE SMOOTH",
"115 95 LINE SMOOTH",
"117 23 OFFCURVE",
"88 -113 OFFCURVE",
"88 -175 CURVE SMOOTH",
"88 -205 OFFCURVE",
"129 -238 OFFCURVE",
"149 -238 CURVE SMOOTH"
);
},
{
closed = 1;
nodes = (
"378 -122 OFFCURVE",
"491 -41 OFFCURVE",
"491 59 CURVE SMOOTH",
"491 160 OFFCURVE",
"421 204 OFFCURVE",
"347 233 CURVE",
"347 193 LINE",
"397 233 OFFCURVE",
"443 274 OFFCURVE",
"443 324 CURVE SMOOTH",
"443 380 OFFCURVE",
"392 428 OFFCURVE",
"333 428 CURVE SMOOTH",
"270 428 OFFCURVE",
"220 393 OFFCURVE",
"163 346 CURVE",
"163 267 LINE",
"220 315 OFFCURVE",
"298 351 OFFCURVE",
"333 351 CURVE SMOOTH",
"351 351 OFFCURVE",
"364 341 OFFCURVE",
"364 324 CURVE SMOOTH",
"364 299 OFFCURVE",
"351 279 OFFCURVE",
"325 256 CURVE SMOOTH",
"303 237 OFFCURVE",
"286 227 OFFCURVE",
"286 209 CURVE SMOOTH",
"286 181 OFFCURVE",
"313 169 OFFCURVE",
"345 155 CURVE SMOOTH",
"379 140 OFFCURVE",
"414 121 OFFCURVE",
"414 59 CURVE SMOOTH",
"414 -53 OFFCURVE",
"261 -20 OFFCURVE",
"261 -78 CURVE SMOOTH",
"261 -97 OFFCURVE",
"285 -122 OFFCURVE",
"314 -122 CURVE SMOOTH"
);
}
);
};
layerId = "D34FCF88-AF1D-4520-8FB0-498E26D42FBC";
paths = (
{
closed = 1;
nodes = (
"164 -238 OFFCURVE",
"179 -212 OFFCURVE",
"179 -189 CURVE SMOOTH",
"179 -100 OFFCURVE",
"192 6 OFFCURVE",
"192 95 CURVE SMOOTH",
"193 376 LINE SMOOTH",
"194 557 OFFCURVE",
"223 610 OFFCURVE",
"296 610 CURVE SMOOTH",
"332 610 OFFCURVE",
"342 596 OFFCURVE",
"364 596 CURVE SMOOTH",
"386 596 OFFCURVE",
"397 612 OFFCURVE",
"397 631 CURVE SMOOTH",
"397 654 OFFCURVE",
"382 666 OFFCURVE",
"362 674 CURVE SMOOTH",
"344 681 OFFCURVE",
"321 687 OFFCURVE",
"296 687 CURVE",
"241 687 OFFCURVE",
"206 671 OFFCURVE",
"180 648 CURVE SMOOTH",
"118 593 OFFCURVE",
"103 474 OFFCURVE",
"106 376 CURVE SMOOTH",
"115 95 LINE SMOOTH",
"117 23 OFFCURVE",
"88 -113 OFFCURVE",
"88 -175 CURVE SMOOTH",
"88 -205 OFFCURVE",
"129 -238 OFFCURVE",
"149 -238 CURVE SMOOTH"
);
},
{
closed = 1;
nodes = (
"393 -19 OFFCURVE",
"491 33 OFFCURVE",
"491 119 CURVE SMOOTH",
"491 191 OFFCURVE",
"421 222 OFFCURVE",
"347 243 CURVE",
"347 203 LINE",
"397 243 OFFCURVE",
"443 278 OFFCURVE",
"443 324 CURVE SMOOTH",
"443 380 OFFCURVE",
"392 428 OFFCURVE",
"333 428 CURVE SMOOTH",
"279 428 OFFCURVE",
"216 395 OFFCURVE",
"163 356 CURVE",
"163 267 LINE",
"216 315 OFFCURVE",
"293 351 OFFCURVE",
"333 351 CURVE SMOOTH",
"351 351 OFFCURVE",
"364 341 OFFCURVE",
"364 324 CURVE SMOOTH",
"364 303 OFFCURVE",
"351 289 OFFCURVE",
"325 266 CURVE SMOOTH",
"303 247 OFFCURVE",
"286 237 OFFCURVE",
"286 219 CURVE SMOOTH",
"286 194 OFFCURVE",
"312 182 OFFCURVE",
"345 170 CURVE SMOOTH",
"376 159 OFFCURVE",
"414 152 OFFCURVE",
"414 119 CURVE SMOOTH",
"414 42 OFFCURVE",
"256 76 OFFCURVE",
"256 25 CURVE SMOOTH",
"256 6 OFFCURVE",
"280 -19 OFFCURVE",
"309 -19 CURVE SMOOTH"
);
}
);
width = 552;
}
);
unicode = 00DF;
},
{
color = 0;
glyphname = t;
lastChange = "2016-01-21 13:57:44 +0000";
layers = (
{
background = {
paths = (
{
closed = 1;
nodes = (
"200 324 OFFCURVE",
"256 327 OFFCURVE",
"320 340 CURVE SMOOTH",
"330 342 OFFCURVE",
"337 349 OFFCURVE",
"337 363 CURVE SMOOTH",
"337 386 OFFCURVE",
"326 407 OFFCURVE",
"311 407 CURVE SMOOTH",
"22 407 LINE SMOOTH",
"13 407 OFFCURVE",
"9 399 OFFCURVE",
"9 388 CURVE SMOOTH",
"9 373 OFFCURVE",
"16 350 OFFCURVE",
"29 345 CURVE SMOOTH",
"72 329 OFFCURVE",
"120 324 OFFCURVE",
"151 324 CURVE"
);
},
{
closed = 1;
nodes = (
"164 -238 OFFCURVE",
"179 -212 OFFCURVE",
"179 -189 CURVE SMOOTH",
"179 -100 OFFCURVE",
"192 6 OFFCURVE",
"192 95 CURVE SMOOTH",
"193 376 LINE SMOOTH",
"194 557 OFFCURVE",
"223 610 OFFCURVE",
"296 610 CURVE SMOOTH",
"332 610 OFFCURVE",
"342 596 OFFCURVE",
"364 596 CURVE SMOOTH",
"386 596 OFFCURVE",
"397 612 OFFCURVE",
"397 631 CURVE SMOOTH",
"397 654 OFFCURVE",
"382 666 OFFCURVE",
"362 674 CURVE SMOOTH",
"344 681 OFFCURVE",
"321 687 OFFCURVE",
"296 687 CURVE",
"241 687 OFFCURVE",
"206 671 OFFCURVE",
"180 648 CURVE SMOOTH",
"118 593 OFFCURVE",
"103 474 OFFCURVE",
"106 376 CURVE SMOOTH",
"115 95 LINE SMOOTH",
"117 23 OFFCURVE",
"88 -113 OFFCURVE",
"88 -175 CURVE SMOOTH",
"88 -205 OFFCURVE",
"129 -238 OFFCURVE",
"149 -238 CURVE SMOOTH"
);
}
);
};
layerId = "D34FCF88-AF1D-4520-8FB0-498E26D42FBC";
paths = (
{
closed = 1;
nodes = (
"213 324 OFFCURVE",
"290 331 OFFCURVE",
"364 342 CURVE SMOOTH",
"371 343 OFFCURVE",
"381 348 OFFCURVE",
"381 365 CURVE SMOOTH",
"381 386 OFFCURVE",
"370 407 OFFCURVE",
"355 407 CURVE SMOOTH",
"22 407 LINE SMOOTH",
"13 407 OFFCURVE",
"9 399 OFFCURVE",
"9 388 CURVE SMOOTH",
"9 373 OFFCURVE",
"16 350 OFFCURVE",
"29 345 CURVE SMOOTH",
"72 329 OFFCURVE",
"120 324 OFFCURVE",
"151 324 CURVE"
);
},
{
closed = 1;
nodes = (
"196 387 OFFCURVE",
"209 448 OFFCURVE",
"209 486 CURVE SMOOTH",
"209 542 OFFCURVE",
"178 566 OFFCURVE",
"132 556 CURVE",
"109 342 LINE",
"109 146 LINE SMOOTH",
"109 39 OFFCURVE",
"159 -19 OFFCURVE",
"256 -19 CURVE SMOOTH",
"333 -19 OFFCURVE",
"396 31 OFFCURVE",
"396 77 CURVE SMOOTH",
"396 106 OFFCURVE",
"372 130 OFFCURVE",
"365 130 CURVE SMOOTH",
"357 130 OFFCURVE",
"321 58 OFFCURVE",
"256 58 CURVE SMOOTH",
"205 58 OFFCURVE",
"186 85 OFFCURVE",
"186 166 CURVE SMOOTH",
"186 342 LINE"
);
}
);
width = 423;
}
);
unicode = 0074;
},
{
color = 1;
glyphname = u;
lastChange = "2016-01-19 20:30:32 +0000";
layers = (
{
anchors = (
{
name = top;
position = "{280, 407}";
}
);
background = {
paths = (
{
closed = 1;
nodes = (
"200 -19 OFFCURVE",
"253 351 OFFCURVE",
"340 351 CURVE SMOOTH",
"361 351 OFFCURVE",
"373 320 OFFCURVE",
"373 281 CURVE SMOOTH",
"373 105 LINE SMOOTH",
"373 20 OFFCURVE",
"409 -19 OFFCURVE",
"471 -19 CURVE SMOOTH",
"505 -19 OFFCURVE",
"541 -6 OFFCURVE",
"541 26 CURVE",
"541 50 OFFCURVE",
"527 62 OFFCURVE",
"511 62 CURVE",
"496 62 OFFCURVE",
"491 58 OFFCURVE",
"475 58 CURVE SMOOTH",
"459 58 OFFCURVE",
"450 71 OFFCURVE",
"450 105 CURVE SMOOTH",
"450 281 LINE SMOOTH",
"450 390 OFFCURVE",
"393 428 OFFCURVE",
"340 428 CURVE SMOOTH",
"223 428 OFFCURVE",
"153 132 OFFCURVE",
"153 132 CURVE",
"153 132 OFFCURVE",
"163 135 OFFCURVE",
"163 135 CURVE",
"158 322 OFFCURVE",
"114 428 OFFCURVE",
"59 428 CURVE SMOOTH",
"38 428 OFFCURVE",
"17 409 OFFCURVE",
"17 385 CURVE SMOOTH",
"17 338 OFFCURVE",
"89 276 OFFCURVE",
"89 206 CURVE SMOOTH",
"89 104 LINE SMOOTH",
"89 55 OFFCURVE",
"85 53 OFFCURVE",
"85 27 CURVE SMOOTH",
"85 -3 OFFCURVE",
"103 -19 OFFCURVE",
"124 -19 CURVE SMOOTH"
);
}
);
};
layerId = "D34FCF88-AF1D-4520-8FB0-498E26D42FBC";
paths = (
{
closed = 1;
nodes = (
"256 -19 OFFCURVE",
"330 92 OFFCURVE",
"369 168 CURVE SMOOTH",
"401 230 OFFCURVE",
"466 321 OFFCURVE",
"466 392 CURVE SMOOTH",
"466 414 OFFCURVE",
"440 428 OFFCURVE",
"423 428 CURVE SMOOTH",
"402 428 OFFCURVE",
"345 389 OFFCURVE",
"345 312 CURVE SMOOTH",
"345 257 OFFCURVE",
"361 214 OFFCURVE",
"370 140 CURVE SMOOTH",
"374 106 LINE SMOOTH",
"384 19 OFFCURVE",
"422 -19 OFFCURVE",
"469 -19 CURVE SMOOTH",
"490 -19 OFFCURVE",
"511 0 OFFCURVE",
"511 24 CURVE SMOOTH",
"511 71 OFFCURVE",
"450 46 OFFCURVE",
"442 138 CURVE SMOOTH",
"432 249 LINE",
"432 249 OFFCURVE",
"438 354 OFFCURVE",
"438 354 CURVE",
"438 354 OFFCURVE",
"393 373 OFFCURVE",
"393 373 CURVE",
"312 194 LINE SMOOTH",
"279 120 OFFCURVE",
"219 58 OFFCURVE",
"180 58 CURVE SMOOTH",
"159 58 OFFCURVE",
"139 74 OFFCURVE",
"139 186 CURVE SMOOTH",
"139 286 OFFCURVE",
"163 377 OFFCURVE",
"163 409 CURVE SMOOTH",
"163 431 OFFCURVE",
"150 444 OFFCURVE",
"122 444 CURVE SMOOTH",
"75 444 OFFCURVE",
"60 327 OFFCURVE",
"60 189 CURVE SMOOTH",
"60 13 OFFCURVE",
"126 -19 OFFCURVE",
"180 -19 CURVE SMOOTH"
);
}
);
width = 544;
}
);
unicode = 0075;
},
{
color = 0;
glyphname = v;
lastChange = "2016-01-18 13:53:44 +0000";
layers = (
{
background = {
paths = (
{
closed = 1;
nodes = (
"23 972 OFFCURVE",
"11 948 OFFCURVE",
"12 942 CURVE",
"13 935 OFFCURVE",
"43 880 OFFCURVE",
"46 873 CURVE",
"55 850 OFFCURVE",
"123 657 OFFCURVE",
"132 634 CURVE",
"145 600 OFFCURVE",
"155 581 OFFCURVE",
"191 581 CURVE",
"216 581 OFFCURVE",
"220 578 OFFCURVE",
"234 600 CURVE",
"262 641 OFFCURVE",
"370 808 OFFCURVE",
"389 839 CURVE",
"396 853 OFFCURVE",
"420 901 OFFCURVE",
"422 908 CURVE",
"423 909 OFFCURVE",
"425 928 OFFCURVE",
"425 935 CURVE",
"425 941 OFFCURVE",
"423 957 OFFCURVE",
"422 959 CURVE",
"415 977 OFFCURVE",
"399 994 OFFCURVE",
"379 994 CURVE",
"348 994 OFFCURVE",
"344 941 OFFCURVE",
"337 925 CURVE",
"331 911 OFFCURVE",
"308 863 OFFCURVE",
"303 857 CURVE",
"291 837 OFFCURVE",
"231 753 OFFCURVE",
"217 737 CURVE",
"143 785 OFFCURVE",
"161 977 OFFCURVE",
"45 977 CURVE",
"40 977 OFFCURVE",
"29 977 OFFCURVE",
"29 976 CURVE"
);
},
{
closed = 1;
nodes = (
"331 302 OFFCURVE",
"337 342 OFFCURVE",
"361 383 CURVE SMOOTH",
"373 404 OFFCURVE",
"409 403 OFFCURVE",
"427 394 CURVE SMOOTH",
"450 380 OFFCURVE",
"456 353 OFFCURVE",
"434 314 CURVE SMOOTH",
"420 292 OFFCURVE",
"398 265 OFFCURVE",
"389 248 CURVE SMOOTH",
"295 91 LINE SMOOTH",
"248 12 OFFCURVE",
"195 12 OFFCURVE",
"149 38 CURVE SMOOTH",
"117 59 OFFCURVE",
"94 100 OFFCURVE",
"109 127 CURVE SMOOTH",
"121 147 OFFCURVE",
"139 150 OFFCURVE",
"153 141 CURVE SMOOTH",
"172 131 OFFCURVE",
"170 116 OFFCURVE",
"185 106 CURVE SMOOTH",
"199 98 OFFCURVE",
"216 108 OFFCURVE",
"228 131 CURVE SMOOTH",
"300 248 LINE SMOOTH"
);
}
);
};
layerId = "D34FCF88-AF1D-4520-8FB0-498E26D42FBC";
paths = (
{
closed = 1;
nodes = (
"218 -19 OFFCURVE",
"234 -2 OFFCURVE",
"252 26 CURVE SMOOTH",
"331 151 LINE SMOOTH",
"398 257 OFFCURVE",
"425 324 OFFCURVE",
"425 365 CURVE SMOOTH",
"425 402 OFFCURVE",
"408 428 OFFCURVE",
"383 428 CURVE SMOOTH",
"335 428 OFFCURVE",
"353 332 OFFCURVE",
"303 249 CURVE SMOOTH",
"195 72 LINE",
"216 77 LINE",
"161 209 LINE SMOOTH",
"129 285 OFFCURVE",
"124 324 OFFCURVE",
"112 363 CURVE SMOOTH",
"96 412 OFFCURVE",
"61 428 OFFCURVE",
"32 428 CURVE SMOOTH",
"20 428 OFFCURVE",
"9 411 OFFCURVE",
"9 392 CURVE SMOOTH",
"9 363 OFFCURVE",
"25 345 OFFCURVE",
"40 306 CURVE SMOOTH",
"150 30 LINE SMOOTH",
"164 -6 OFFCURVE",
"177 -19 OFFCURVE",
"191 -19 CURVE"
);
}
);
width = 441;
}
);
unicode = 0076;
},
{
color = 0;
glyphname = w;
lastChange = "2016-01-18 13:54:21 +0000";
layers = (
{
background = {
paths = (
{
closed = 1;
nodes = (
"208 -19 OFFCURVE",
"224 -2 OFFCURVE",
"242 26 CURVE SMOOTH",
"321 151 LINE SMOOTH",
"388 257 OFFCURVE",
"415 324 OFFCURVE",
"415 365 CURVE SMOOTH",
"415 402 OFFCURVE",
"398 428 OFFCURVE",
"373 428 CURVE SMOOTH",
"325 428 OFFCURVE",
"343 332 OFFCURVE",
"293 249 CURVE SMOOTH",
"185 72 LINE",
"206 77 LINE",
"151 209 LINE SMOOTH",
"119 285 OFFCURVE",
"114 324 OFFCURVE",
"102 363 CURVE SMOOTH",
"87 412 OFFCURVE",
"51 428 OFFCURVE",
"22 428 CURVE SMOOTH",
"10 428 OFFCURVE",
"-1 411 OFFCURVE",
"-1 392 CURVE SMOOTH",
"-1 363 OFFCURVE",
"15 345 OFFCURVE",
"30 306 CURVE SMOOTH",
"140 30 LINE SMOOTH",
"154 -6 OFFCURVE",
"167 -19 OFFCURVE",
"181 -19 CURVE"
);
},
{
closed = 1;
nodes = (
"516 -19 OFFCURVE",
"532 -2 OFFCURVE",
"550 26 CURVE SMOOTH",
"629 151 LINE SMOOTH",
"696 257 OFFCURVE",
"723 324 OFFCURVE",
"723 365 CURVE SMOOTH",
"723 402 OFFCURVE",
"706 428 OFFCURVE",
"681 428 CURVE SMOOTH",
"633 428 OFFCURVE",
"651 332 OFFCURVE",
"601 249 CURVE SMOOTH",
"493 72 LINE",
"514 77 LINE",
"459 209 LINE SMOOTH",
"427 285 OFFCURVE",
"422 324 OFFCURVE",
"410 363 CURVE SMOOTH",
"395 412 OFFCURVE",
"359 428 OFFCURVE",
"330 428 CURVE SMOOTH",
"318 428 OFFCURVE",
"307 411 OFFCURVE",
"307 392 CURVE SMOOTH",
"307 363 OFFCURVE",
"323 345 OFFCURVE",
"338 306 CURVE SMOOTH",
"448 30 LINE SMOOTH",
"462 -6 OFFCURVE",
"475 -19 OFFCURVE",
"489 -19 CURVE"
);
}
);
};
guideLines = (
{
position = "{344, 90}";
}
);
layerId = "D34FCF88-AF1D-4520-8FB0-498E26D42FBC";
paths = (
{
closed = 1;
nodes = (
"436 387 OFFCURVE",
"413 425 OFFCURVE",
"373 425 CURVE SMOOTH",
"341 425 OFFCURVE",
"363 364 OFFCURVE",
"293 249 CURVE SMOOTH",
"185 72 LINE",
"202 81 LINE",
"189 209 LINE SMOOTH",
"177 332 OFFCURVE",
"137 428 OFFCURVE",
"81 428 CURVE SMOOTH",
"60 428 OFFCURVE",
"39 409 OFFCURVE",
"39 385 CURVE SMOOTH",
"39 339 OFFCURVE",
"105 278 OFFCURVE",
"112 216 CURVE SMOOTH",
"131 46 LINE SMOOTH",
"135 11 OFFCURVE",
"168 -19 OFFCURVE",
"184 -19 CURVE SMOOTH",
"204 -19 OFFCURVE",
"223 -4 OFFCURVE",
"242 26 CURVE SMOOTH",
"321 151 LINE SMOOTH",
"364 220 OFFCURVE",
"390 270 OFFCURVE",
"404 310 CURVE",
"380 290 LINE",
"430 43 LINE SMOOTH",
"436 11 OFFCURVE",
"479 -19 OFFCURVE",
"500 -19 CURVE SMOOTH",
"517 -19 OFFCURVE",
"534 -1 OFFCURVE",
"551 26 CURVE SMOOTH",
"628 151 LINE SMOOTH",
"690 252 OFFCURVE",
"732 324 OFFCURVE",
"732 365 CURVE SMOOTH",
"732 402 OFFCURVE",
"715 428 OFFCURVE",
"690 428 CURVE SMOOTH",
"636 428 OFFCURVE",
"645 324 OFFCURVE",
"600 249 CURVE SMOOTH",
"486 58 LINE",
"511 40 LINE",
"453 310 LINE SMOOTH"
);
}
);
width = 746;
}
);
unicode = 0077;
},
{
color = 0;
glyphname = x;
lastChange = "2016-01-21 11:03:01 +0000";
layers = (
{
background = {
paths = (
{
closed = 1;
nodes = (
"54 323 OFFCURVE",
"94 318 OFFCURVE",
"146 269 CURVE",
"226 195 LINE",
"253 170 OFFCURVE",
"269 151 OFFCURVE",
"292 156 CURVE",
"317 160 OFFCURVE",
"328 184 OFFCURVE",
"350 212 CURVE",
"398 274 LINE",
"452 344 OFFCURVE",
"506 335 OFFCURVE",
"497 387 CURVE",
"492 411 OFFCURVE",
"471 424 OFFCURVE",
"441 419 CURVE",
"402 413 OFFCURVE",
"368 360 OFFCURVE",
"334 318 CURVE",
"274 243 LINE",
"293 222 LINE SMOOTH",
"325 187 OFFCURVE",
"228 299 OFFCURVE",
"202 323 CURVE",
"158 362 LINE",
"120 398 OFFCURVE",
"89 431 OFFCURVE",
"70 428 CURVE",
"54 425 OFFCURVE",
"39 402 OFFCURVE",
"44 373 CURVE"
);
}
);
};
layerId = "D34FCF88-AF1D-4520-8FB0-498E26D42FBC";
paths = (
{
closed = 1;
nodes = (
"435 -19 OFFCURVE",
"456 -8 OFFCURVE",
"456 8 CURVE SMOOTH",
"456 39 OFFCURVE",
"341 170 OFFCURVE",
"280 238 CURVE SMOOTH",
"216 311 OFFCURVE",
"110 428 OFFCURVE",
"70 428 CURVE SMOOTH",
"57 428 OFFCURVE",
"43 409 OFFCURVE",
"43 381 CURVE SMOOTH",
"43 335 OFFCURVE",
"106 307 OFFCURVE",
"149 266 CURVE SMOOTH",
"228 192 LINE",
"305 93 LINE SMOOTH",
"356 27 OFFCURVE",
"365 -19 OFFCURVE",
"414 -19 CURVE"
);
},
{
closed = 1;
nodes = (
"122 -19 OFFCURVE",
"139 41 OFFCURVE",
"180 87 CURVE SMOOTH",
"271 188 LINE",
"219 247 LINE",
"93 107 LINE SMOOTH",
"67 78 OFFCURVE",
"35 56 OFFCURVE",
"35 22 CURVE SMOOTH",
"35 -2 OFFCURVE",
"53 -19 OFFCURVE",
"76 -19 CURVE"
);
},
{
closed = 1;
nodes = (
"350 257 LINE SMOOTH",
"393 302 OFFCURVE",
"445 351 OFFCURVE",
"445 387 CURVE SMOOTH",
"445 409 OFFCURVE",
"428 428 OFFCURVE",
"405 428 CURVE SMOOTH",
"369 428 OFFCURVE",
"349 370 OFFCURVE",
"298 315 CURVE SMOOTH",
"241 256 LINE",
"287 191 LINE"
);
}
);
width = 488;
}
);
unicode = 0078;
},
{
color = 0;
glyphname = y;
lastChange = "2016-01-10 19:29:40 +0000";
layers = (
{
anchors = (
{
name = top;
position = "{292, 407}";
}
);
background = {
paths = (
{
closed = 0;
nodes = (
"192 -119 LINE SMOOTH",
"129 -119 OFFCURVE",
"106 -79 OFFCURVE",
"75 -79 CURVE SMOOTH",
"50 -79 OFFCURVE",
"36 -96 OFFCURVE",
"36 -118 CURVE SMOOTH",
"36 -134 OFFCURVE",
"45 -149 OFFCURVE",
"68 -163 CURVE SMOOTH",
"96 -180 OFFCURVE",
"137 -196 OFFCURVE",
"192 -196 CURVE SMOOTH"
);
}
);
};
layerId = "D34FCF88-AF1D-4520-8FB0-498E26D42FBC";
paths = (
{
closed = 1;
nodes = (
"406 -41 OFFCURVE",
"386 -161 OFFCURVE",
"250 -161 CURVE SMOOTH",
"155 -161 OFFCURVE",
"132 -79 OFFCURVE",
"75 -79 CURVE SMOOTH",
"49 -79 OFFCURVE",
"36 -97 OFFCURVE",
"36 -118 CURVE SMOOTH",
"36 -141 OFFCURVE",
"57 -166 OFFCURVE",
"98 -192 CURVE SMOOTH",
"136 -216 OFFCURVE",
"192 -238 OFFCURVE",
"250 -238 CURVE SMOOTH",
"390 -238 OFFCURVE",
"483 -145 OFFCURVE",
"460 89 CURVE SMOOTH",
"444 249 LINE",
"444 249 OFFCURVE",
"450 354 OFFCURVE",
"450 354 CURVE",
"450 354 OFFCURVE",
"405 373 OFFCURVE",
"405 373 CURVE",
"334 234 LINE SMOOTH",
"295 157 OFFCURVE",
"234 88 OFFCURVE",
"192 88 CURVE SMOOTH",
"171 88 OFFCURVE",
"151 103 OFFCURVE",
"151 206 CURVE SMOOTH",
"151 297 OFFCURVE",
"175 380 OFFCURVE",
"175 409 CURVE SMOOTH",
"175 431 OFFCURVE",
"162 444 OFFCURVE",
"134 444 CURVE SMOOTH",
"87 444 OFFCURVE",
"72 336 OFFCURVE",
"72 209 CURVE SMOOTH",
"72 41 OFFCURVE",
"138 11 OFFCURVE",
"192 11 CURVE SMOOTH",
"272 11 OFFCURVE",
"350 126 OFFCURVE",
"391 208 CURVE",
"417 231 LINE",
"443 280 OFFCURVE",
"478 338 OFFCURVE",
"478 392 CURVE SMOOTH",
"478 414 OFFCURVE",
"452 428 OFFCURVE",
"435 428 CURVE SMOOTH",
"414 428 OFFCURVE",
"357 389 OFFCURVE",
"357 312 CURVE SMOOTH",
"357 257 OFFCURVE",
"373 214 OFFCURVE",
"382 140 CURVE"
);
}
);
width = 556;
}
);
unicode = 0079;
},
{
color = 1;
glyphname = z;
lastChange = "2015-11-23 12:37:49 +0000";
layers = (
{
layerId = "D34FCF88-AF1D-4520-8FB0-498E26D42FBC";
paths = (
{
closed = 1;
nodes = (
"137 -19 OFFCURVE",
"180 14 OFFCURVE",
"252 14 CURVE SMOOTH",
"296 14 OFFCURVE",
"342 -14 OFFCURVE",
"376 -14 CURVE SMOOTH",
"425 -14 OFFCURVE",
"465 38 OFFCURVE",
"465 67 CURVE SMOOTH",
"465 90 OFFCURVE",
"452 120 OFFCURVE",
"426 120 CURVE SMOOTH",
"409 120 OFFCURVE",
"394 63 OFFCURVE",
"368 63 CURVE SMOOTH",
"338 63 OFFCURVE",
"292 91 OFFCURVE",
"252 91 CURVE SMOOTH",
"215 91 OFFCURVE",
"183 79 OFFCURVE",
"138 52 CURVE",
"138 52 OFFCURVE",
"139 52 OFFCURVE",
"139 41 CURVE",
"391 395 LINE",
"355 380 LINE",
"165 407 LINE SMOOTH",
"136 411 OFFCURVE",
"106 428 OFFCURVE",
"86 428 CURVE SMOOTH",
"69 428 OFFCURVE",
"44 419 OFFCURVE",
"44 388 CURVE SMOOTH",
"44 366 OFFCURVE",
"60 346 OFFCURVE",
"93 341 CURVE SMOOTH",
"296 308 LINE SMOOTH",
"373 295 OFFCURVE",
"431 359 OFFCURVE",
"431 385 CURVE SMOOTH",
"431 402 OFFCURVE",
"417 428 OFFCURVE",
"395 428 CURVE SMOOTH",
"339 428 OFFCURVE",
"296 368 OFFCURVE",
"267 331 CURVE SMOOTH",
"92 102 LINE SMOOTH",
"72 75 OFFCURVE",
"55 54 OFFCURVE",
"55 29 CURVE SMOOTH",
"55 -8 OFFCURVE",
"82 -19 OFFCURVE",
"103 -19 CURVE SMOOTH"
);
}
);
width = 482;
}
);
unicode = 007A;
},
{
color = 1;
glyphname = z.001;
layers = (
{
layerId = "D34FCF88-AF1D-4520-8FB0-498E26D42FBC";
paths = (
{
closed = 1;
nodes = (
"137 -19 OFFCURVE",
"180 14 OFFCURVE",
"252 14 CURVE SMOOTH",
"296 14 OFFCURVE",
"342 -14 OFFCURVE",
"376 -14 CURVE SMOOTH",
"425 -14 OFFCURVE",
"465 38 OFFCURVE",
"465 67 CURVE SMOOTH",
"465 90 OFFCURVE",
"452 120 OFFCURVE",
"426 120 CURVE SMOOTH",
"409 120 OFFCURVE",
"394 63 OFFCURVE",
"368 63 CURVE SMOOTH",
"338 63 OFFCURVE",
"292 91 OFFCURVE",
"252 91 CURVE SMOOTH",
"215 91 OFFCURVE",
"183 79 OFFCURVE",
"138 52 CURVE",
"138 52 OFFCURVE",
"139 52 OFFCURVE",
"139 41 CURVE",
"391 395 LINE",
"355 380 LINE",
"165 407 LINE SMOOTH",
"136 411 OFFCURVE",
"106 428 OFFCURVE",
"86 428 CURVE SMOOTH",
"69 428 OFFCURVE",
"44 419 OFFCURVE",
"44 388 CURVE SMOOTH",
"44 366 OFFCURVE",
"60 346 OFFCURVE",
"93 341 CURVE SMOOTH",
"296 308 LINE SMOOTH",
"373 295 OFFCURVE",
"431 359 OFFCURVE",
"431 385 CURVE SMOOTH",
"431 402 OFFCURVE",
"417 428 OFFCURVE",
"395 428 CURVE SMOOTH",
"339 428 OFFCURVE",
"296 368 OFFCURVE",
"267 331 CURVE SMOOTH",
"92 102 LINE SMOOTH",
"72 75 OFFCURVE",
"55 54 OFFCURVE",
"55 29 CURVE SMOOTH",
"55 -8 OFFCURVE",
"82 -19 OFFCURVE",
"103 -19 CURVE SMOOTH"
);
}
);
width = 482;
}
);
},
{
glyphname = f.alt01;
layers = (
{
layerId = "D34FCF88-AF1D-4520-8FB0-498E26D42FBC";
paths = (
{
closed = 1;
nodes = (
"17 326 CURVE",
"17 323 OFFCURVE",
"29 300 OFFCURVE",
"34 292 CURVE",
"56 258 OFFCURVE",
"137 270 OFFCURVE",
"137 241 CURVE",
"137 2 LINE",
"137 -20 OFFCURVE",
"170 -18 OFFCURVE",
"180 -18 CURVE",
"232 -18 OFFCURVE",
"219 7 OFFCURVE",
"222 53 CURVE",
"226 117 OFFCURVE",
"238 267 OFFCURVE",
"239 267 CURVE",
"394 267 LINE",
"410 267 OFFCURVE",
"411 300 OFFCURVE",
"411 310 CURVE",
"411 314 OFFCURVE",
"411 326 OFFCURVE",
"410 326 CURVE",
"405 337 OFFCURVE",
"381 361 OFFCURVE",
"376 361 CURVE",
"251 361 LINE",
"251 381 OFFCURVE",
"236 477 OFFCURVE",
"239 498 CURVE",
"241 505 OFFCURVE",
"264 553 OFFCURVE",
"274 566 CURVE",
"281 577 OFFCURVE",
"317 613 OFFCURVE",
"325 618 CURVE",
"326 618 OFFCURVE",
"336 618 OFFCURVE",
"339 618 CURVE",
"381 618 OFFCURVE",
"427 607 OFFCURVE",
"462 583 CURVE",
"486 566 OFFCURVE",
"502 546 OFFCURVE",
"535 546 CURVE",
"535 679 OFFCURVE",
"426 704 OFFCURVE",
"313 704 CURVE",
"222 704 OFFCURVE",
"167 614 OFFCURVE",
"154 532 CURVE",
"150 506 OFFCURVE",
"138 387 OFFCURVE",
"137 361 CURVE",
"121 360 OFFCURVE",
"49 349 OFFCURVE",
"34 344 CURVE",
"29 342 OFFCURVE",
"17 330 OFFCURVE"
);
}
);
width = 553;
}
);
},
{
glyphname = k.alt01;
layers = (
{
layerId = "D34FCF88-AF1D-4520-8FB0-498E26D42FBC";
paths = (
{
closed = 1;
nodes = (
"24 49 CURVE",
"30 33 OFFCURVE",
"58 -15 OFFCURVE",
"83 -10 CURVE",
"95 -8 OFFCURVE",
"120 13 OFFCURVE",
"120 19 CURVE",
"120 167 LINE",
"182 113 OFFCURVE",
"248 62 OFFCURVE",
"319 19 CURVE",
"332 11 OFFCURVE",
"373 -9 OFFCURVE",
"378 -10 CURVE",
"381 -11 OFFCURVE",
"402 0 OFFCURVE",
"407 5 CURVE",
"407 5 OFFCURVE",
"408 10 OFFCURVE",
"408 12 CURVE",
"408 13 OFFCURVE",
"407 18 OFFCURVE",
"407 19 CURVE",
"394 34 OFFCURVE",
"332 96 OFFCURVE",
"319 108 CURVE",
"314 111 OFFCURVE",
"278 134 OFFCURVE",
"274 137 CURVE",
"270 141 OFFCURVE",
"249 161 OFFCURVE",
"245 167 CURVE",
"272 208 OFFCURVE",
"333 251 OFFCURVE",
"333 306 CURVE",
"333 377 OFFCURVE",
"270 406 OFFCURVE",
"209 406 CURVE",
"209 363 OFFCURVE",
"246 354 OFFCURVE",
"246 321 CURVE",
"246 319 OFFCURVE",
"245 314 OFFCURVE",
"245 313 CURVE",
"216 280 OFFCURVE",
"171 232 OFFCURVE",
"128 210 CURVE",
"128 222 OFFCURVE",
"127 273 OFFCURVE",
"127 284 CURVE",
"127 381 OFFCURVE",
"142 477 OFFCURVE",
"142 573 CURVE",
"142 596 OFFCURVE",
"137 609 OFFCURVE",
"112 609 CURVE",
"69 609 OFFCURVE",
"56 553 OFFCURVE",
"54 519 CURVE",
"50 449 OFFCURVE",
"29 119 OFFCURVE"
);
}
);
width = 421;
}
);
},
{
glyphname = m.alt01;
layers = (
{
layerId = "D34FCF88-AF1D-4520-8FB0-498E26D42FBC";
paths = (
{
closed = 1;
nodes = (
"614 245 CURVE",
"627 245 OFFCURVE",
"680 25 OFFCURVE",
"725 4 CURVE",
"737 -2 OFFCURVE",
"797 -27 OFFCURVE",
"810 -31 CURVE",
"829 -24 OFFCURVE",
"829 -9 OFFCURVE",
"829 5 CURVE",
"829 65 OFFCURVE",
"746 59 OFFCURVE",
"741 141 CURVE",
"739 177 OFFCURVE",
"739 344 OFFCURVE",
"741 380 CURVE",
"737 404 OFFCURVE",
"701 400 OFFCURVE",
"688 400 CURVE",
"679 400 OFFCURVE",
"657 397 OFFCURVE",
"656 397 CURVE",
"644 393 OFFCURVE",
"572 345 OFFCURVE",
"553 329 CURVE",
"537 314 OFFCURVE",
"465 242 OFFCURVE",
"451 226 CURVE",
"449 242 OFFCURVE",
"436 313 OFFCURVE",
"433 329 CURVE",
"430 348 OFFCURVE",
"418 395 OFFCURVE",
"417 397 CURVE",
"408 409 OFFCURVE",
"360 445 OFFCURVE",
"348 449 CURVE",
"340 451 OFFCURVE",
"304 439 OFFCURVE",
"297 431 CURVE",
"143 277 LINE",
"145 299 OFFCURVE",
"133 394 OFFCURVE",
"125 414 CURVE",
"124 420 OFFCURVE",
"88 456 OFFCURVE",
"74 465 CURVE",
"73 466 OFFCURVE",
"68 467 OFFCURVE",
"66 467 CURVE",
"54 467 OFFCURVE",
"47 462 OFFCURVE",
"40 449 CURVE",
"37 390 OFFCURVE",
"25 115 OFFCURVE",
"23 55 CURVE",
"23 54 OFFCURVE",
"23 47 OFFCURVE",
"23 45 CURVE",
"23 5 OFFCURVE",
"58 -15 OFFCURVE",
"93 -15 CURVE",
"128 -15 OFFCURVE",
"135 49 OFFCURVE",
"143 72 CURVE",
"151 96 OFFCURVE",
"175 155 OFFCURVE",
"177 157 CURVE",
"181 164 OFFCURVE",
"277 284 OFFCURVE",
"314 329 CURVE",
"316 332 OFFCURVE",
"328 344 OFFCURVE",
"331 346 CURVE",
"355 342 OFFCURVE",
"349 310 OFFCURVE",
"349 297 CURVE",
"349 211 OFFCURVE",
"328 113 OFFCURVE",
"314 38 CURVE",
"321 29 OFFCURVE",
"357 -7 OFFCURVE",
"365 -14 CURVE",
"366 -14 OFFCURVE",
"371 -15 OFFCURVE",
"374 -15 CURVE",
"394 -15 OFFCURVE",
"404 6 OFFCURVE",
"417 21 CURVE",
"468 83 OFFCURVE",
"534 186 OFFCURVE",
"605 243 CURVE",
"605 244 OFFCURVE",
"611 245 OFFCURVE"
);
}
);
width = 861;
}
);
},
{
glyphname = n.alt01;
layers = (
{
layerId = "D34FCF88-AF1D-4520-8FB0-498E26D42FBC";
paths = (
{
closed = 1;
nodes = (
"23 63 CURVE",
"23 54 OFFCURVE",
"35 18 OFFCURVE",
"40 11 CURVE",
"48 1 OFFCURVE",
"84 -23 OFFCURVE",
"92 -23 CURVE",
"96 -23 OFFCURVE",
"119 1 OFFCURVE",
"125 11 CURVE",
"128 16 OFFCURVE",
"141 58 OFFCURVE",
"143 63 CURVE",
"160 99 OFFCURVE",
"244 267 OFFCURVE",
"262 302 CURVE",
"266 309 OFFCURVE",
"290 333 OFFCURVE",
"297 336 CURVE",
"298 337 OFFCURVE",
"310 339 OFFCURVE",
"314 339 CURVE",
"319 339 OFFCURVE",
"330 337 OFFCURVE",
"331 336 CURVE",
"336 333 OFFCURVE",
"348 309 OFFCURVE",
"348 302 CURVE",
"348 97 LINE",
"348 53 OFFCURVE",
"416 8 OFFCURVE",
"456 8 CURVE",
"456 18 OFFCURVE",
"452 70 OFFCURVE",
"451 79 CURVE",
"450 85 OFFCURVE",
"434 126 OFFCURVE",
"433 131 CURVE",
"431 160 OFFCURVE",
"431 290 OFFCURVE",
"433 319 CURVE",
"421 368 OFFCURVE",
"345 431 OFFCURVE",
"297 439 CURVE",
"264 444 OFFCURVE",
"161 323 OFFCURVE",
"143 285 CURVE",
"125 319 OFFCURVE",
"91 378 OFFCURVE",
"44 378 CURVE",
"44 356 OFFCURVE",
"41 239 OFFCURVE",
"40 216 CURVE",
"40 201 OFFCURVE",
"23 78 OFFCURVE"
);
}
);
width = 491;
}
);
},
{
glyphname = o.alt01;
layers = (
{
layerId = "D34FCF88-AF1D-4520-8FB0-498E26D42FBC";
paths = (
{
closed = 1;
nodes = (
"22 177 CURVE",
"22 83 OFFCURVE",
"77 23 OFFCURVE",
"160 -10 CURVE",
"161 -10 OFFCURVE",
"166 -11 OFFCURVE",
"168 -11 CURVE",
"302 -11 OFFCURVE",
"434 119 OFFCURVE",
"434 255 CURVE",
"434 258 OFFCURVE",
"433 263 OFFCURVE",
"433 264 CURVE",
"431 272 OFFCURVE",
"420 308 OFFCURVE",
"417 315 CURVE",
"381 399 OFFCURVE",
"356 436 OFFCURVE",
"264 436 CURVE",
"91 436 OFFCURVE",
"22 351 OFFCURVE"
);
},
{
closed = 1;
nodes = (
"125 110 CURVE",
"125 120 OFFCURVE",
"124 168 OFFCURVE",
"124 178 CURVE",
"124 228 OFFCURVE",
"123 288 OFFCURVE",
"177 315 CURVE",
"187 320 OFFCURVE",
"259 344 OFFCURVE",
"280 349 CURVE",
"281 350 OFFCURVE",
"295 351 OFFCURVE",
"299 351 CURVE",
"303 351 OFFCURVE",
"314 350 OFFCURVE",
"314 349 CURVE",
"332 331 OFFCURVE",
"332 288 OFFCURVE",
"332 263 CURVE",
"332 181 OFFCURVE",
"252 92 OFFCURVE",
"168 92 CURVE",
"153 92 OFFCURVE",
"131 89 OFFCURVE"
);
}
);
width = 456;
}
);
},
{
glyphname = p.alt01;
layers = (
{
layerId = "D34FCF88-AF1D-4520-8FB0-498E26D42FBC";
paths = (
{
closed = 1;
nodes = (
"24 -198 CURVE",
"29 -228 OFFCURVE",
"60 -247 OFFCURVE",
"83 -257 CURVE",
"86 -256 OFFCURVE",
"97 -245 OFFCURVE",
"98 -242 CURVE",
"100 -232 OFFCURVE",
"111 -160 OFFCURVE",
"112 -139 CURVE",
"113 -133 OFFCURVE",
"112 -86 OFFCURVE",
"112 -80 CURVE",
"114 -73 OFFCURVE",
"124 -21 OFFCURVE",
"128 -7 CURVE",
"131 8 OFFCURVE",
"137 42 OFFCURVE",
"157 52 CURVE",
"190 31 OFFCURVE",
"241 8 OFFCURVE",
"282 8 CURVE",
"296 8 OFFCURVE",
"306 11 OFFCURVE",
"319 22 CURVE",
"378 73 OFFCURVE",
"423 148 OFFCURVE",
"423 227 CURVE",
"423 277 OFFCURVE",
"419 340 OFFCURVE",
"378 375 CURVE",
"355 394 OFFCURVE",
"331 406 OFFCURVE",
"303 406 CURVE",
"300 406 OFFCURVE",
"290 405 OFFCURVE",
"289 404 CURVE",
"279 400 OFFCURVE",
"248 380 OFFCURVE",
"245 375 CURVE",
"112 170 LINE",
"112 404 LINE",
"69 449 LINE",
"39 420 LINE",
"36 416 OFFCURVE",
"25 313 OFFCURVE",
"24 272 CURVE",
"24 264 OFFCURVE",
"23 99 OFFCURVE",
"23 37 CURVE",
"23 2 OFFCURVE",
"24 -163 OFFCURVE"
);
},
{
closed = 1;
nodes = (
"185 141 CURVE",
"185 144 OFFCURVE",
"186 154 OFFCURVE",
"186 154 CURVE",
"207 208 OFFCURVE",
"277 280 OFFCURVE",
"319 316 CURVE",
"342 313 OFFCURVE",
"335 264 OFFCURVE",
"335 259 CURVE",
"335 199 OFFCURVE",
"316 130 OFFCURVE",
"260 96 CURVE",
"259 96 OFFCURVE",
"250 95 OFFCURVE",
"246 95 CURVE",
"219 95 OFFCURVE",
"185 111 OFFCURVE"
);
}
);
width = 446;
}
);
},
{
glyphname = q.alt01;
layers = (
{
layerId = "D34FCF88-AF1D-4520-8FB0-498E26D42FBC";
paths = (
{
closed = 1;
nodes = (
"297 15 CURVE",
"297 -206 LINE",
"297 -213 OFFCURVE",
"309 -238 OFFCURVE",
"314 -240 CURVE",
"315 -241 OFFCURVE",
"339 -242 OFFCURVE",
"348 -242 CURVE",
"353 -242 OFFCURVE",
"377 -241 OFFCURVE",
"382 -240 CURVE",
"384 -201 OFFCURVE",
"396 -21 OFFCURVE",
"400 17 CURVE",
"409 121 OFFCURVE",
"434 221 OFFCURVE",
"434 326 CURVE",
"434 369 OFFCURVE",
"424 397 OFFCURVE",
"382 410 CURVE",
"381 411 OFFCURVE",
"367 410 OFFCURVE",
"365 410 CURVE",
"330 422 OFFCURVE",
"302 446 OFFCURVE",
"263 446 CURVE",
"183 446 OFFCURVE",
"113 410 OFFCURVE",
"74 342 CURVE",
"44 288 OFFCURVE",
"22 241 OFFCURVE",
"22 180 CURVE",
"22 76 OFFCURVE",
"66 -2 OFFCURVE",
"177 -2 CURVE",
"220 -2 OFFCURVE",
"255 15 OFFCURVE"
);
},
{
closed = 1;
nodes = (
"108 127 CURVE",
"108 129 OFFCURVE",
"109 136 OFFCURVE",
"109 137 CURVE",
"135 299 OFFCURVE",
"173 346 OFFCURVE",
"340 346 CURVE",
"340 339 OFFCURVE",
"334 298 OFFCURVE",
"331 290 CURVE",
"323 271 OFFCURVE",
"276 174 OFFCURVE",
"262 154 CURVE",
"238 115 OFFCURVE",
"197 85 OFFCURVE",
"150 85 CURVE",
"148 85 OFFCURVE",
"143 86 OFFCURVE",
"143 86 CURVE",
"137 89 OFFCURVE",
"112 113 OFFCURVE",
"109 120 CURVE",
"109 120 OFFCURVE",
"108 125 OFFCURVE"
);
}
);
width = 456;
}
);
},
{
glyphname = v.alt01;
layers = (
{
layerId = "D34FCF88-AF1D-4520-8FB0-498E26D42FBC";
paths = (
{
closed = 1;
nodes = (
"22 420 CURVE",
"22 371 OFFCURVE",
"64 322 OFFCURVE",
"74 274 CURVE",
"76 261 OFFCURVE",
"89 166 OFFCURVE",
"92 154 CURVE",
"102 89 OFFCURVE",
"118 -34 OFFCURVE",
"211 -34 CURVE",
"217 -34 OFFCURVE",
"242 -22 OFFCURVE",
"245 -18 CURVE",
"267 16 OFFCURVE",
"362 171 OFFCURVE",
"382 205 CURVE",
"410 254 OFFCURVE",
"435 303 OFFCURVE",
"435 360 CURVE",
"435 391 OFFCURVE",
"428 445 OFFCURVE",
"382 445 CURVE",
"379 445 OFFCURVE",
"367 433 OFFCURVE",
"365 427 CURVE",
"362 420 OFFCURVE",
"351 350 OFFCURVE",
"348 342 CURVE",
"343 329 OFFCURVE",
"307 257 OFFCURVE",
"297 239 CURVE",
"283 216 OFFCURVE",
"211 108 OFFCURVE",
"194 86 CURVE",
"193 117 OFFCURVE",
"169 261 OFFCURVE",
"160 290 CURVE",
"157 300 OFFCURVE",
"109 396 OFFCURVE",
"92 427 CURVE",
"81 446 OFFCURVE",
"75 446 OFFCURVE",
"57 446 CURVE",
"40 446 OFFCURVE",
"22 440 OFFCURVE"
);
}
);
width = 456;
}
);
},
{
glyphname = w.alt01;
layers = (
{
layerId = "D34FCF88-AF1D-4520-8FB0-498E26D42FBC";
paths = (
{
closed = 1;
nodes = (
"342 247 CURVE",
"391 177 OFFCURVE",
"384 85 OFFCURVE",
"410 8 CURVE",
"416 -8 OFFCURVE",
"454 -24 OFFCURVE",
"462 -27 CURVE",
"475 -15 OFFCURVE",
"535 45 OFFCURVE",
"547 59 CURVE",
"554 66 OFFCURVE",
"578 102 OFFCURVE",
"582 110 CURVE",
"602 157 OFFCURVE",
"662 313 OFFCURVE",
"667 332 CURVE",
"668 336 OFFCURVE",
"670 371 OFFCURVE",
"670 384 CURVE",
"670 392 OFFCURVE",
"668 428 OFFCURVE",
"667 435 CURVE",
"654 444 OFFCURVE",
"639 453 OFFCURVE",
"623 453 CURVE",
"621 453 OFFCURVE",
"616 453 OFFCURVE",
"616 452 CURVE",
"513 161 LINE",
"478 127 LINE",
"474 140 OFFCURVE",
"449 199 OFFCURVE",
"445 212 CURVE",
"429 255 OFFCURVE",
"359 402 OFFCURVE",
"316 402 CURVE",
"279 402 OFFCURVE",
"258 223 OFFCURVE",
"188 179 CURVE",
"185 183 OFFCURVE",
"173 208 OFFCURVE",
"170 212 CURVE",
"169 218 OFFCURVE",
"156 259 OFFCURVE",
"154 264 CURVE",
"144 285 OFFCURVE",
"96 381 OFFCURVE",
"86 401 CURVE",
"72 410 OFFCURVE",
"58 420 OFFCURVE",
"41 420 CURVE",
"40 420 OFFCURVE",
"34 419 OFFCURVE",
"34 418 CURVE",
"28 413 OFFCURVE",
"16 388 OFFCURVE",
"17 384 CURVE",
"18 375 OFFCURVE",
"47 307 OFFCURVE",
"51 298 CURVE",
"64 264 OFFCURVE",
"79 213 OFFCURVE",
"86 179 CURVE",
"88 167 OFFCURVE",
"98 70 OFFCURVE",
"102 59 CURVE",
"105 53 OFFCURVE",
"141 17 OFFCURVE",
"154 8 CURVE",
"154 7 OFFCURVE",
"160 6 OFFCURVE",
"162 6 CURVE",
"164 6 OFFCURVE",
"170 7 OFFCURVE",
"170 8 CURVE",
"247 69 OFFCURVE",
"306 157 OFFCURVE"
);
}
);
width = 702;
}
);
},
{
glyphname = f.alt02;
layers = (
{
layerId = "D34FCF88-AF1D-4520-8FB0-498E26D42FBC";
paths = (
{
closed = 1;
nodes = (
"142 332 CURVE",
"142 -65 LINE",
"142 -66 OFFCURVE",
"153 -76 OFFCURVE",
"157 -79 CURVE",
"164 -84 OFFCURVE",
"184 -94 OFFCURVE",
"186 -94 CURVE",
"191 -94 OFFCURVE",
"201 -84 OFFCURVE",
"201 -79 CURVE",
"203 -20 OFFCURVE",
"214 258 OFFCURVE",
"216 317 CURVE",
"216 319 OFFCURVE",
"216 330 OFFCURVE",
"216 332 CURVE",
"271 345 OFFCURVE",
"322 349 OFFCURVE",
"378 362 CURVE",
"378 364 OFFCURVE",
"379 374 OFFCURVE",
"379 376 CURVE",
"379 381 OFFCURVE",
"378 390 OFFCURVE",
"378 391 CURVE",
"372 402 OFFCURVE",
"352 428 OFFCURVE",
"348 428 CURVE",
"233 428 LINE",
"233 428 OFFCURVE",
"229 454 OFFCURVE",
"230 465 CURVE",
"238 521 OFFCURVE",
"264 624 OFFCURVE",
"333 641 CURVE",
"340 643 OFFCURVE",
"400 640 OFFCURVE",
"407 641 CURVE",
"418 643 OFFCURVE",
"423 654 OFFCURVE",
"423 663 CURVE",
"423 665 OFFCURVE",
"422 670 OFFCURVE",
"421 670 CURVE",
"413 682 OFFCURVE",
"382 712 OFFCURVE",
"378 715 CURVE",
"376 715 OFFCURVE",
"353 716 OFFCURVE",
"345 716 CURVE",
"225 716 OFFCURVE",
"169 600 OFFCURVE",
"157 494 CURVE",
"156 485 OFFCURVE",
"161 438 OFFCURVE",
"161 430 CURVE",
"144 430 OFFCURVE",
"70 436 OFFCURVE",
"54 435 CURVE",
"51 435 OFFCURVE",
"31 424 OFFCURVE",
"24 420 CURVE",
"20 417 OFFCURVE",
"10 407 OFFCURVE",
"10 406 CURVE",
"10 353 OFFCURVE",
"110 339 OFFCURVE"
);
}
);
width = 441;
}
);
},
{
glyphname = o.alt02;
layers = (
{
layerId = "D34FCF88-AF1D-4520-8FB0-498E26D42FBC";
paths = (
{
closed = 1;
nodes = (
"23 206 CURVE",
"23 121 OFFCURVE",
"86 38 OFFCURVE",
"160 1 CURVE",
"171 -5 OFFCURVE",
"207 -17 OFFCURVE",
"211 -16 CURVE",
"216 -15 OFFCURVE",
"288 8 OFFCURVE",
"314 18 CURVE",
"358 34 OFFCURVE",
"376 63 OFFCURVE",
"400 104 CURVE",
"409 121 OFFCURVE",
"433 169 OFFCURVE",
"433 172 CURVE",
"434 174 OFFCURVE",
"436 225 OFFCURVE",
"436 245 CURVE",
"436 287 OFFCURVE",
"444 327 OFFCURVE",
"417 361 CURVE",
"407 371 OFFCURVE",
"359 420 OFFCURVE",
"348 429 CURVE",
"319 454 OFFCURVE",
"291 448 OFFCURVE",
"254 448 CURVE",
"238 448 OFFCURVE",
"196 446 OFFCURVE",
"194 446 CURVE",
"192 446 OFFCURVE",
"168 434 OFFCURVE",
"160 429 CURVE",
"79 381 OFFCURVE",
"23 306 OFFCURVE"
);
},
{
closed = 1;
nodes = (
"124 190 CURVE",
"124 225 OFFCURVE",
"123 271 OFFCURVE",
"160 292 CURVE",
"183 305 OFFCURVE",
"255 341 OFFCURVE",
"262 343 CURVE",
"264 344 OFFCURVE",
"287 345 OFFCURVE",
"295 345 CURVE",
"345 345 OFFCURVE",
"349 335 OFFCURVE",
"349 284 CURVE",
"349 185 OFFCURVE",
"287 86 OFFCURVE",
"177 86 CURVE",
"123 86 OFFCURVE",
"124 156 OFFCURVE"
);
}
);
width = 468;
}
);
},
{
glyphname = s.alt02;
layers = (
{
layerId = "D34FCF88-AF1D-4520-8FB0-498E26D42FBC";
paths = (
{
closed = 1;
nodes = (
"22 144 CURVE",
"22 49 OFFCURVE",
"69 -39 OFFCURVE",
"168 -39 CURVE",
"199 -39 OFFCURVE",
"219 -43 OFFCURVE",
"245 -21 CURVE",
"268 -2 OFFCURVE",
"328 59 OFFCURVE",
"331 65 CURVE",
"332 67 OFFCURVE",
"336 103 OFFCURVE",
"336 116 CURVE",
"336 129 OFFCURVE",
"332 165 OFFCURVE",
"331 167 CURVE",
"326 177 OFFCURVE",
"267 237 OFFCURVE",
"245 253 CURVE",
"215 276 OFFCURVE",
"141 268 OFFCURVE",
"141 322 CURVE",
"141 364 OFFCURVE",
"177 358 OFFCURVE",
"211 358 CURVE",
"266 358 OFFCURVE",
"297 333 OFFCURVE",
"353 333 CURVE",
"353 449 OFFCURVE",
"280 461 OFFCURVE",
"178 461 CURVE",
"164 461 OFFCURVE",
"127 459 OFFCURVE",
"125 459 CURVE",
"112 453 OFFCURVE",
"63 405 OFFCURVE",
"57 390 CURVE",
"57 389 OFFCURVE",
"55 358 OFFCURVE",
"55 345 CURVE",
"55 308 OFFCURVE",
"50 281 OFFCURVE",
"74 253 CURVE",
"87 238 OFFCURVE",
"135 190 OFFCURVE",
"143 184 CURVE",
"150 180 OFFCURVE",
"220 154 OFFCURVE",
"229 151 CURVE",
"232 148 OFFCURVE",
"244 137 OFFCURVE",
"245 133 CURVE",
"238 121 OFFCURVE",
"190 73 OFFCURVE",
"177 65 CURVE",
"177 64 OFFCURVE",
"165 63 OFFCURVE",
"161 63 CURVE",
"92 63 OFFCURVE",
"126 186 OFFCURVE",
"57 186 CURVE",
"28 186 OFFCURVE",
"22 170 OFFCURVE"
);
}
);
width = 382;
}
);
},
{
glyphname = v.alt02;
layers = (
{
layerId = "D34FCF88-AF1D-4520-8FB0-498E26D42FBC";
paths = (
{
closed = 1;
nodes = (
"154 19 CURVE",
"158 14 OFFCURVE",
"182 -11 OFFCURVE",
"188 -15 CURVE",
"196 -21 OFFCURVE",
"220 -33 OFFCURVE",
"222 -32 CURVE",
"230 -29 OFFCURVE",
"266 7 OFFCURVE",
"274 19 CURVE",
"287 44 OFFCURVE",
"360 187 OFFCURVE",
"376 225 CURVE",
"379 231 OFFCURVE",
"391 287 OFFCURVE",
"394 293 CURVE",
"413 344 OFFCURVE",
"446 367 OFFCURVE",
"446 413 CURVE",
"446 417 OFFCURVE",
"445 430 OFFCURVE",
"445 430 CURVE",
"440 439 OFFCURVE",
"416 462 OFFCURVE",
"410 464 CURVE",
"404 465 OFFCURVE",
"380 454 OFFCURVE",
"376 447 CURVE",
"371 438 OFFCURVE",
"346 354 OFFCURVE",
"342 345 CURVE",
"336 330 OFFCURVE",
"287 235 OFFCURVE",
"274 207 CURVE",
"267 194 OFFCURVE",
"231 135 OFFCURVE",
"222 122 CURVE",
"146 173 OFFCURVE",
"162 414 OFFCURVE",
"60 414 CURVE",
"50 414 OFFCURVE",
"17 417 OFFCURVE",
"17 396 CURVE",
"17 365 OFFCURVE",
"41 338 OFFCURVE",
"51 310 CURVE",
"67 267 OFFCURVE",
"139 63 OFFCURVE"
);
}
);
width = 462;
}
);
},
{
glyphname = y.alt02;
layers = (
{
layerId = "D34FCF88-AF1D-4520-8FB0-498E26D42FBC";
paths = (
{
closed = 1;
nodes = (
"-28 -89 LINE",
"-28 -145 OFFCURVE",
"-21 -193 OFFCURVE",
"28 -226 CURVE",
"77 -258 OFFCURVE",
"131 -278 OFFCURVE",
"190 -278 CURVE",
"200 -278 OFFCURVE",
"232 -278 OFFCURVE",
"234 -277 CURVE",
"259 -275 OFFCURVE",
"331 -263 OFFCURVE",
"336 -261 CURVE",
"345 -256 OFFCURVE",
"394 -208 OFFCURVE",
"405 -192 CURVE",
"426 -161 OFFCURVE",
"423 -112 OFFCURVE",
"423 -79 CURVE",
"423 -64 OFFCURVE",
"423 -23 OFFCURVE",
"422 -21 CURVE",
"420 -7 OFFCURVE",
"389 102 OFFCURVE",
"388 116 CURVE",
"384 162 OFFCURVE",
"384 378 OFFCURVE",
"388 424 CURVE",
"374 434 OFFCURVE",
"360 443 OFFCURVE",
"344 443 CURVE",
"342 443 OFFCURVE",
"336 442 OFFCURVE",
"336 441 CURVE",
"277 381 OFFCURVE",
"319 295 OFFCURVE",
"268 236 CURVE",
"256 222 OFFCURVE",
"196 162 OFFCURVE",
"183 151 CURVE",
"178 146 OFFCURVE",
"154 135 OFFCURVE",
"148 133 CURVE",
"144 138 OFFCURVE",
"132 162 OFFCURVE",
"131 167 CURVE",
"125 203 OFFCURVE",
"100 371 OFFCURVE",
"97 407 CURVE",
"96 411 OFFCURVE",
"84 423 OFFCURVE",
"79 424 CURVE",
"72 426 OFFCURVE",
"31 430 OFFCURVE",
"23 430 CURVE",
"23 322 OFFCURVE",
"41 203 OFFCURVE",
"63 99 CURVE",
"84 63 OFFCURVE",
"127 47 OFFCURVE",
"167 47 CURVE",
"171 47 OFFCURVE",
"182 47 OFFCURVE",
"183 47 CURVE",
"199 57 OFFCURVE",
"271 104 OFFCURVE",
"285 116 CURVE",
"316 70 OFFCURVE",
"338 11 OFFCURVE",
"338 -45 CURVE",
"338 -175 OFFCURVE",
"280 -193 OFFCURVE",
"164 -193 CURVE",
"130 -193 OFFCURVE",
"107 -198 OFFCURVE",
"79 -175 CURVE",
"66 -163 OFFCURVE",
"6 -103 OFFCURVE",
"-6 -89 CURVE"
);
}
);
width = 428;
}
);
},
{
glyphname = z.alt02;
layers = (
{
layerId = "D34FCF88-AF1D-4520-8FB0-498E26D42FBC";
paths = (
{
closed = 1;
nodes = (
"107 35 CURVE",
"107 11 OFFCURVE",
"122 -24 OFFCURVE",
"152 -24 CURVE",
"156 -24 OFFCURVE",
"179 -10 OFFCURVE",
"182 -9 CURVE",
"192 -5 OFFCURVE",
"222 5 OFFCURVE",
"225 5 CURVE",
"228 6 OFFCURVE",
"274 7 OFFCURVE",
"290 7 CURVE",
"308 7 OFFCURVE",
"355 6 OFFCURVE",
"358 5 CURVE",
"365 5 OFFCURVE",
"424 -8 OFFCURVE",
"431 -9 CURVE",
"433 -9 OFFCURVE",
"443 -9 OFFCURVE",
"447 -9 CURVE",
"481 -9 OFFCURVE",
"537 30 OFFCURVE",
"537 64 CURVE",
"537 68 OFFCURVE",
"535 78 OFFCURVE",
"534 79 CURVE",
"530 88 OFFCURVE",
"509 109 OFFCURVE",
"505 109 CURVE",
"498 109 OFFCURVE",
"452 81 OFFCURVE",
"446 79 CURVE",
"445 79 OFFCURVE",
"431 78 OFFCURVE",
"426 78 CURVE",
"369 78 OFFCURVE",
"300 97 OFFCURVE",
"255 109 CURVE",
"262 117 OFFCURVE",
"293 158 OFFCURVE",
"299 167 CURVE",
"301 170 OFFCURVE",
"312 194 OFFCURVE",
"314 196 CURVE",
"323 210 OFFCURVE",
"394 316 OFFCURVE",
"402 329 CURVE",
"415 349 OFFCURVE",
"418 354 OFFCURVE",
"418 375 CURVE",
"418 399 OFFCURVE",
"398 418 OFFCURVE",
"374 418 CURVE",
"330 418 OFFCURVE",
"297 387 OFFCURVE",
"251 387 CURVE",
"190 387 OFFCURVE",
"132 403 OFFCURVE",
"71 403 CURVE",
"66 403 OFFCURVE",
"40 403 OFFCURVE",
"34 403 CURVE",
"30 399 OFFCURVE",
"20 378 OFFCURVE",
"20 373 CURVE",
"20 350 OFFCURVE",
"44 333 OFFCURVE",
"64 329 CURVE",
"95 323 OFFCURVE",
"239 303 OFFCURVE",
"270 300 CURVE",
"271 299 OFFCURVE",
"271 293 OFFCURVE",
"271 292 CURVE",
"271 290 OFFCURVE",
"271 285 OFFCURVE",
"270 285 CURVE",
"265 274 OFFCURVE",
"234 223 OFFCURVE",
"225 212 CURVE",
"209 187 OFFCURVE",
"126 74 OFFCURVE",
"108 50 CURVE",
"108 48 OFFCURVE",
"107 37 OFFCURVE"
);
}
);
width = 563;
}
);
},
{
glyphname = m.alt03;
layers = (
{
layerId = "D34FCF88-AF1D-4520-8FB0-498E26D42FBC";
paths = (
{
closed = 1;
nodes = (
"656 163 CURVE",
"656 59 OFFCURVE",
"689 7 OFFCURVE",
"776 -42 CURVE",
"821 -68 OFFCURVE",
"840 -82 OFFCURVE",
"888 -82 CURVE",
"888 -5 OFFCURVE",
"845 2 OFFCURVE",
"793 44 CURVE",
"783 51 OFFCURVE",
"759 76 OFFCURVE",
"759 77 CURVE",
"759 420 LINE",
"759 423 OFFCURVE",
"747 447 OFFCURVE",
"741 454 CURVE",
"734 464 OFFCURVE",
"710 488 OFFCURVE",
"708 488 CURVE",
"701 489 OFFCURVE",
"665 478 OFFCURVE",
"656 471 CURVE",
"647 464 OFFCURVE",
"586 404 OFFCURVE",
"570 385 CURVE",
"549 361 OFFCURVE",
"453 241 OFFCURVE",
"433 215 CURVE",
"433 216 OFFCURVE",
"433 222 OFFCURVE",
"433 223 CURVE",
"433 270 OFFCURVE",
"451 314 OFFCURVE",
"451 362 CURVE",
"451 411 OFFCURVE",
"420 456 OFFCURVE",
"368 456 CURVE",
"252 456 OFFCURVE",
"220 328 OFFCURVE",
"143 266 CURVE",
"114 339 OFFCURVE",
"151 412 OFFCURVE",
"92 471 CURVE",
"86 476 OFFCURVE",
"62 488 OFFCURVE",
"57 488 CURVE",
"50 488 OFFCURVE",
"25 476 OFFCURVE",
"23 471 CURVE",
"23 471 OFFCURVE",
"22 456 OFFCURVE",
"22 449 CURVE",
"22 382 OFFCURVE",
"41 316 OFFCURVE",
"41 248 CURVE",
"41 179 OFFCURVE",
"22 110 OFFCURVE",
"22 41 CURVE",
"22 37 OFFCURVE",
"23 26 OFFCURVE",
"23 26 CURVE",
"28 17 OFFCURVE",
"64 -19 OFFCURVE",
"74 -25 CURVE",
"76 -26 OFFCURVE",
"87 -28 OFFCURVE",
"92 -28 CURVE",
"94 -28 OFFCURVE",
"106 -26 OFFCURVE",
"109 -25 CURVE",
"159 94 OFFCURVE",
"219 196 OFFCURVE",
"297 300 CURVE",
"303 309 OFFCURVE",
"339 345 OFFCURVE",
"348 352 CURVE",
"348 349 OFFCURVE",
"348 337 OFFCURVE",
"348 334 CURVE",
"348 244 OFFCURVE",
"330 154 OFFCURVE",
"330 64 CURVE",
"330 33 OFFCURVE",
"323 26 OFFCURVE",
"348 9 CURVE",
"355 4 OFFCURVE",
"379 -8 OFFCURVE",
"382 -8 CURVE",
"417 -8 OFFCURVE",
"439 41 OFFCURVE",
"451 60 CURVE",
"458 73 OFFCURVE",
"511 170 OFFCURVE",
"519 180 CURVE",
"524 186 OFFCURVE",
"608 282 OFFCURVE",
"639 317 CURVE",
"644 323 OFFCURVE",
"668 346 OFFCURVE",
"673 352 CURVE",
"673 346 OFFCURVE",
"673 323 OFFCURVE",
"673 317 CURVE",
"673 264 OFFCURVE",
"656 215 OFFCURVE"
);
}
);
width = 901;
}
);
},
{
glyphname = n.alt03;
layers = (
{
layerId = "D34FCF88-AF1D-4520-8FB0-498E26D42FBC";
paths = (
{
closed = 1;
nodes = (
"314 336 CURVE",
"312 311 OFFCURVE",
"312 191 OFFCURVE",
"314 165 CURVE",
"315 149 OFFCURVE",
"327 89 OFFCURVE",
"331 79 CURVE",
"332 77 OFFCURVE",
"368 29 OFFCURVE",
"382 11 CURVE",
"400 -11 OFFCURVE",
"424 -24 OFFCURVE",
"452 -24 CURVE",
"456 -24 OFFCURVE",
"467 -24 OFFCURVE",
"468 -23 CURVE",
"484 -15 OFFCURVE",
"503 1 OFFCURVE",
"503 20 CURVE",
"503 62 OFFCURVE",
"436 66 OFFCURVE",
"417 97 CURVE",
"418 131 OFFCURVE",
"418 286 OFFCURVE",
"417 319 CURVE",
"413 379 OFFCURVE",
"381 442 OFFCURVE",
"316 442 CURVE",
"235 442 OFFCURVE",
"186 358 OFFCURVE",
"143 302 CURVE",
"140 318 OFFCURVE",
"116 390 OFFCURVE",
"109 405 CURVE",
"91 441 OFFCURVE",
"57 449 OFFCURVE",
"21 449 CURVE",
"21 443 OFFCURVE",
"22 410 OFFCURVE",
"23 405 CURVE",
"24 397 OFFCURVE",
"40 328 OFFCURVE",
"40 319 CURVE",
"42 275 OFFCURVE",
"42 72 OFFCURVE",
"40 28 CURVE",
"51 11 OFFCURVE",
"62 -7 OFFCURVE",
"83 -7 CURVE",
"94 -7 OFFCURVE",
"103 -2 OFFCURVE",
"109 11 CURVE",
"113 23 OFFCURVE",
"138 119 OFFCURVE",
"143 131 CURVE",
"161 185 OFFCURVE",
"251 320 OFFCURVE"
);
}
);
width = 525;
}
);
},
{
glyphname = o.alt03;
layers = (
{
layerId = "D34FCF88-AF1D-4520-8FB0-498E26D42FBC";
paths = (
{
closed = 1;
nodes = (
"23 186 CURVE",
"23 145 OFFCURVE",
"26 78 OFFCURVE",
"57 41 CURVE",
"70 25 OFFCURVE",
"118 -23 OFFCURVE",
"125 -28 CURVE",
"134 -32 OFFCURVE",
"181 -44 OFFCURVE",
"194 -44 CURVE",
"260 -44 OFFCURVE",
"352 -6 OFFCURVE",
"400 41 CURVE",
"413 55 OFFCURVE",
"449 103 OFFCURVE",
"451 109 CURVE",
"452 112 OFFCURVE",
"455 166 OFFCURVE",
"455 186 CURVE",
"455 206 OFFCURVE",
"452 261 OFFCURVE",
"451 264 CURVE",
"449 268 OFFCURVE",
"413 340 OFFCURVE",
"400 366 CURVE",
"358 441 OFFCURVE",
"295 469 OFFCURVE",
"211 486 CURVE",
"209 487 OFFCURVE",
"186 488 OFFCURVE",
"177 488 CURVE",
"40 488 OFFCURVE",
"34 292 OFFCURVE",
"23 195 CURVE",
"23 195 OFFCURVE",
"23 188 OFFCURVE"
);
},
{
closed = 1;
nodes = (
"280 366 CURVE",
"344 366 OFFCURVE",
"366 255 OFFCURVE",
"366 212 CURVE",
"366 116 OFFCURVE",
"260 57 OFFCURVE",
"173 57 CURVE",
"165 57 OFFCURVE",
"143 58 OFFCURVE",
"143 58 CURVE",
"138 60 OFFCURVE",
"125 85 OFFCURVE",
"125 92 CURVE",
"125 280 LINE",
"125 297 OFFCURVE",
"209 342 OFFCURVE",
"229 349 CURVE",
"242 355 OFFCURVE",
"277 366 OFFCURVE"
);
}
);
width = 485;
}
);
},
{
glyphname = s.alt03;
layers = (
{
layerId = "D34FCF88-AF1D-4520-8FB0-498E26D42FBC";
paths = (
{
closed = 1;
nodes = (
"16 108 CURVE",
"16 35 OFFCURVE",
"117 -56 OFFCURVE",
"186 -56 CURVE",
"273 -56 OFFCURVE",
"361 20 OFFCURVE",
"361 108 CURVE",
"361 152 OFFCURVE",
"324 193 OFFCURVE",
"290 219 CURVE",
"276 230 OFFCURVE",
"204 277 OFFCURVE",
"188 287 CURVE",
"187 291 OFFCURVE",
"186 309 OFFCURVE",
"186 313 CURVE",
"186 319 OFFCURVE",
"187 337 OFFCURVE",
"188 339 CURVE",
"190 342 OFFCURVE",
"213 366 OFFCURVE",
"222 373 CURVE",
"270 408 OFFCURVE",
"360 364 OFFCURVE",
"360 415 CURVE",
"360 479 OFFCURVE",
"292 477 OFFCURVE",
"248 477 CURVE",
"208 477 OFFCURVE",
"185 483 OFFCURVE",
"154 459 CURVE",
"139 447 OFFCURVE",
"103 411 OFFCURVE",
"102 407 CURVE",
"102 406 OFFCURVE",
"100 368 OFFCURVE",
"100 353 CURVE",
"100 337 OFFCURVE",
"102 290 OFFCURVE",
"102 287 CURVE",
"110 216 OFFCURVE",
"258 160 OFFCURVE",
"258 125 CURVE",
"258 88 OFFCURVE",
"209 42 OFFCURVE",
"170 47 CURVE",
"157 50 OFFCURVE",
"110 73 OFFCURVE",
"102 82 CURVE",
"92 92 OFFCURVE",
"69 153 OFFCURVE",
"68 167 CURVE",
"67 168 OFFCURVE",
"60 169 OFFCURVE",
"60 169 CURVE",
"36 169 OFFCURVE",
"16 127 OFFCURVE"
);
}
);
width = 388;
}
);
},
{
glyphname = t.alt03;
layers = (
{
layerId = "D34FCF88-AF1D-4520-8FB0-498E26D42FBC";
paths = (
{
closed = 1;
nodes = (
"131 294 CURVE",
"131 89 LINE",
"131 87 OFFCURVE",
"143 63 OFFCURVE",
"148 55 CURVE",
"177 7 OFFCURVE",
"215 -31 OFFCURVE",
"277 -31 CURVE",
"352 -31 OFFCURVE",
"365 58 OFFCURVE",
"365 112 CURVE",
"320 112 OFFCURVE",
"290 99 OFFCURVE",
"251 72 CURVE",
"234 89 LINE",
"233 92 OFFCURVE",
"231 141 OFFCURVE",
"231 158 CURVE",
"231 198 OFFCURVE",
"225 271 OFFCURVE",
"251 312 CURVE",
"267 315 OFFCURVE",
"339 327 OFFCURVE",
"354 329 CURVE",
"391 333 OFFCURVE",
"407 326 OFFCURVE",
"407 371 CURVE",
"407 447 OFFCURVE",
"312 426 OFFCURVE",
"262 426 CURVE",
"262 431 OFFCURVE",
"270 461 OFFCURVE",
"268 465 CURVE",
"262 482 OFFCURVE",
"238 530 OFFCURVE",
"234 534 CURVE",
"233 535 OFFCURVE",
"215 539 OFFCURVE",
"208 539 CURVE",
"204 539 OFFCURVE",
"186 535 OFFCURVE",
"183 534 CURVE",
"179 518 OFFCURVE",
"154 446 OFFCURVE",
"148 431 CURVE",
"126 380 OFFCURVE",
"11 433 OFFCURVE",
"11 372 CURVE",
"11 313 OFFCURVE",
"89 302 OFFCURVE"
);
}
);
width = 439;
}
);
},
{
glyphname = v.alt03;
layers = (
{
layerId = "D34FCF88-AF1D-4520-8FB0-498E26D42FBC";
paths = (
{
closed = 1;
nodes = (
"16 418 CURVE",
"16 416 OFFCURVE",
"17 410 OFFCURVE",
"17 409 CURVE",
"20 399 OFFCURVE",
"48 316 OFFCURVE",
"51 306 CURVE",
"55 293 OFFCURVE",
"81 183 OFFCURVE",
"86 170 CURVE",
"88 161 OFFCURVE",
"117 92 OFFCURVE",
"119 84 CURVE",
"122 77 OFFCURVE",
"134 21 OFFCURVE",
"137 15 CURVE",
"141 8 OFFCURVE",
"164 -16 OFFCURVE",
"170 -19 CURVE",
"172 -19 OFFCURVE",
"189 -21 OFFCURVE",
"196 -21 CURVE",
"250 -21 OFFCURVE",
"246 21 OFFCURVE",
"274 66 CURVE",
"288 91 OFFCURVE",
"413 282 OFFCURVE",
"427 306 CURVE",
"433 315 OFFCURVE",
"445 351 OFFCURVE",
"445 358 CURVE",
"445 363 OFFCURVE",
"433 399 OFFCURVE",
"427 409 CURVE",
"417 430 OFFCURVE",
"402 428 OFFCURVE",
"381 428 CURVE",
"375 428 OFFCURVE",
"360 426 OFFCURVE",
"359 426 CURVE",
"354 421 OFFCURVE",
"344 364 OFFCURVE",
"342 358 CURVE",
"310 273 OFFCURVE",
"233 215 OFFCURVE",
"205 135 CURVE",
"129 186 OFFCURVE",
"151 445 OFFCURVE",
"52 445 CURVE",
"34 445 OFFCURVE",
"16 439 OFFCURVE"
);
}
);
width = 468;
}
);
},
{
glyphname = z.alt03;
layers = (
{
layerId = "D34FCF88-AF1D-4520-8FB0-498E26D42FBC";
paths = (
{
closed = 1;
nodes = (
"225 41 CURVE",
"292 41 OFFCURVE",
"335 -19 OFFCURVE",
"402 -19 CURVE",
"407 -19 OFFCURVE",
"448 -9 OFFCURVE",
"461 -5 CURVE",
"467 -2 OFFCURVE",
"488 8 OFFCURVE",
"490 10 CURVE",
"502 20 OFFCURVE",
"533 50 OFFCURVE",
"534 54 CURVE",
"535 57 OFFCURVE",
"525 77 OFFCURVE",
"520 84 CURVE",
"514 92 OFFCURVE",
"492 113 OFFCURVE",
"490 113 CURVE",
"485 113 OFFCURVE",
"450 86 OFFCURVE",
"446 84 CURVE",
"438 79 OFFCURVE",
"396 58 OFFCURVE",
"388 54 CURVE",
"369 62 OFFCURVE",
"287 103 OFFCURVE",
"270 113 CURVE",
"267 115 OFFCURVE",
"257 125 OFFCURVE",
"255 128 CURVE",
"290 209 OFFCURVE",
"348 279 OFFCURVE",
"402 349 CURVE",
"403 352 OFFCURVE",
"404 367 OFFCURVE",
"404 371 CURVE",
"404 402 OFFCURVE",
"385 423 OFFCURVE",
"354 423 CURVE",
"295 423 OFFCURVE",
"240 406 OFFCURVE",
"181 406 CURVE",
"130 406 OFFCURVE",
"100 405 OFFCURVE",
"49 422 CURVE",
"31 417 OFFCURVE",
"33 395 OFFCURVE",
"33 383 CURVE",
"33 378 OFFCURVE",
"34 364 OFFCURVE",
"34 363 CURVE",
"38 358 OFFCURVE",
"79 338 OFFCURVE",
"93 334 CURVE",
"103 331 OFFCURVE",
"175 321 OFFCURVE",
"196 319 CURVE",
"208 318 OFFCURVE",
"259 318 OFFCURVE",
"270 319 CURVE",
"256 293 OFFCURVE",
"184 180 OFFCURVE",
"167 157 CURVE",
"141 122 OFFCURVE",
"78 92 OFFCURVE",
"78 39 CURVE",
"78 9 OFFCURVE",
"99 9 OFFCURVE",
"124 9 CURVE",
"166 9 OFFCURVE",
"183 41 OFFCURVE"
);
}
);
width = 559;
}
);
},
{
glyphname = e.alt04;
layers = (
{
layerId = "D34FCF88-AF1D-4520-8FB0-498E26D42FBC";
paths = (
{
closed = 1;
nodes = (
"22 219 CURVE",
"22 57 OFFCURVE",
"132 -13 OFFCURVE",
"280 -13 CURVE",
"290 -13 OFFCURVE",
"338 -12 OFFCURVE",
"348 -12 CURVE",
"357 -5 OFFCURVE",
"393 31 OFFCURVE",
"400 40 CURVE",
"404 46 OFFCURVE",
"417 70 OFFCURVE",
"417 73 CURVE",
"417 89 OFFCURVE",
"393 125 OFFCURVE",
"374 125 CURVE",
"327 125 OFFCURVE",
"294 73 OFFCURVE",
"245 73 CURVE",
"240 73 OFFCURVE",
"193 86 OFFCURVE",
"177 91 CURVE",
"161 96 OFFCURVE",
"141 98 OFFCURVE",
"141 116 CURVE",
"141 118 OFFCURVE",
"142 124 OFFCURVE",
"143 125 CURVE",
"263 180 OFFCURVE",
"378 253 OFFCURVE",
"485 330 CURVE",
"505 345 OFFCURVE",
"520 352 OFFCURVE",
"520 372 CURVE",
"520 404 OFFCURVE",
"507 417 OFFCURVE",
"478 417 CURVE",
"435 417 OFFCURVE",
"398 371 OFFCURVE",
"365 348 CURVE",
"358 358 OFFCURVE",
"322 406 OFFCURVE",
"314 416 CURVE",
"285 452 OFFCURVE",
"251 452 OFFCURVE",
"206 452 CURVE",
"86 452 OFFCURVE",
"22 326 OFFCURVE"
);
},
{
closed = 1;
nodes = (
"247 365 CURVE",
"251 365 OFFCURVE",
"262 365 OFFCURVE",
"262 365 CURVE",
"280 356 OFFCURVE",
"298 342 OFFCURVE",
"298 322 CURVE",
"298 310 OFFCURVE",
"293 305 OFFCURVE",
"280 296 CURVE",
"235 267 OFFCURVE",
"175 233 OFFCURVE",
"125 210 CURVE",
"125 215 OFFCURVE",
"125 232 OFFCURVE",
"125 236 CURVE",
"125 296 OFFCURVE",
"186 365 OFFCURVE"
);
}
);
width = 536;
}
);
},
{
glyphname = o.alt04;
layers = (
{
layerId = "D34FCF88-AF1D-4520-8FB0-498E26D42FBC";
paths = (
{
closed = 1;
nodes = (
"22 199 CURVE",
"22 170 OFFCURVE",
"22 137 OFFCURVE",
"40 112 CURVE",
"50 98 OFFCURVE",
"99 50 OFFCURVE",
"109 44 CURVE",
"123 35 OFFCURVE",
"195 11 OFFCURVE",
"211 9 CURVE",
"226 8 OFFCURVE",
"286 20 OFFCURVE",
"297 26 CURVE",
"307 33 OFFCURVE",
"368 92 OFFCURVE",
"382 112 CURVE",
"386 116 OFFCURVE",
"410 164 OFFCURVE",
"417 180 CURVE",
"425 200 OFFCURVE",
"434 219 OFFCURVE",
"434 240 CURVE",
"434 261 OFFCURVE",
"425 280 OFFCURVE",
"417 300 CURVE",
"373 400 OFFCURVE",
"345 421 OFFCURVE",
"237 421 CURVE",
"167 421 OFFCURVE",
"85 409 OFFCURVE",
"57 334 CURVE",
"49 311 OFFCURVE",
"24 239 OFFCURVE",
"23 232 CURVE",
"22 230 OFFCURVE",
"22 207 OFFCURVE"
);
},
{
closed = 1;
nodes = (
"125 129 CURVE",
"125 136 OFFCURVE",
"123 172 OFFCURVE",
"123 180 CURVE",
"123 193 OFFCURVE",
"125 229 OFFCURVE",
"125 232 CURVE",
"128 242 OFFCURVE",
"152 290 OFFCURVE",
"160 300 CURVE",
"163 303 OFFCURVE",
"186 316 OFFCURVE",
"194 317 CURVE",
"209 321 OFFCURVE",
"281 333 OFFCURVE",
"297 334 CURVE",
"319 319 OFFCURVE",
"332 291 OFFCURVE",
"332 265 CURVE",
"332 199 OFFCURVE",
"255 111 OFFCURVE",
"186 111 CURVE",
"161 111 OFFCURVE",
"146 111 OFFCURVE"
);
}
);
width = 456;
}
);
},
{
glyphname = y.alt04;
layers = (
{
layerId = "D34FCF88-AF1D-4520-8FB0-498E26D42FBC";
paths = (
{
closed = 1;
nodes = (
"33 -92 CURVE",
"33 -102 OFFCURVE",
"34 -130 OFFCURVE",
"34 -131 CURVE",
"37 -138 OFFCURVE",
"78 -179 OFFCURVE",
"93 -190 CURVE",
"138 -224 OFFCURVE",
"200 -235 OFFCURVE",
"255 -235 CURVE",
"296 -235 OFFCURVE",
"368 -233 OFFCURVE",
"402 -205 CURVE",
"493 -128 OFFCURVE",
"507 -57 OFFCURVE",
"507 57 CURVE",
"507 73 OFFCURVE",
"505 117 OFFCURVE",
"505 119 CURVE",
"504 129 OFFCURVE",
"478 212 OFFCURVE",
"475 222 CURVE",
"475 223 OFFCURVE",
"475 243 OFFCURVE",
"475 250 CURVE",
"475 303 OFFCURVE",
"506 347 OFFCURVE",
"506 400 CURVE",
"506 424 OFFCURVE",
"486 444 OFFCURVE",
"462 444 CURVE",
"434 444 OFFCURVE",
"426 420 OFFCURVE",
"417 398 CURVE",
"413 391 OFFCURVE",
"391 332 OFFCURVE",
"388 325 CURVE",
"384 317 OFFCURVE",
"352 276 OFFCURVE",
"343 266 CURVE",
"333 254 OFFCURVE",
"281 203 OFFCURVE",
"270 193 CURVE",
"210 248 OFFCURVE",
"225 314 OFFCURVE",
"182 368 CURVE",
"158 398 OFFCURVE",
"141 421 OFFCURVE",
"103 421 CURVE",
"103 325 OFFCURVE",
"158 247 OFFCURVE",
"196 163 CURVE",
"212 127 OFFCURVE",
"215 86 OFFCURVE",
"264 86 CURVE",
"269 86 OFFCURVE",
"284 89 OFFCURVE",
"284 89 CURVE",
"388 177 LINE",
"388 178 OFFCURVE",
"393 179 OFFCURVE",
"394 179 CURVE",
"397 179 OFFCURVE",
"401 178 OFFCURVE",
"402 177 CURVE",
"426 153 OFFCURVE",
"418 102 OFFCURVE",
"418 76 CURVE",
"418 57 OFFCURVE",
"417 5 OFFCURVE",
"417 2 CURVE",
"416 -15 OFFCURVE",
"405 -66 OFFCURVE",
"402 -72 CURVE",
"397 -80 OFFCURVE",
"356 -122 OFFCURVE",
"343 -131 CURVE",
"340 -134 OFFCURVE",
"309 -144 OFFCURVE",
"299 -146 CURVE",
"277 -150 OFFCURVE",
"205 -161 OFFCURVE",
"196 -161 CURVE",
"165 -161 OFFCURVE",
"124 -148 OFFCURVE",
"108 -116 CURVE",
"105 -111 OFFCURVE",
"96 -63 OFFCURVE",
"93 -57 CURVE",
"86 -42 OFFCURVE",
"74 -27 OFFCURVE",
"57 -27 CURVE",
"24 -27 OFFCURVE",
"33 -76 OFFCURVE"
);
}
);
width = 534;
}
);
},
{
glyphname = h.alt05;
layers = (
{
layerId = "D34FCF88-AF1D-4520-8FB0-498E26D42FBC";
paths = (
{
closed = 1;
nodes = (
"314 183 CURVE",
"314 97 OFFCURVE",
"350 -31 OFFCURVE",
"460 -31 CURVE",
"462 -31 OFFCURVE",
"468 -31 OFFCURVE",
"468 -31 CURVE",
"475 -25 OFFCURVE",
"500 -2 OFFCURVE",
"502 4 CURVE",
"503 5 OFFCURVE",
"504 16 OFFCURVE",
"504 21 CURVE",
"504 63 OFFCURVE",
"451 86 OFFCURVE",
"417 89 CURVE",
"417 363 LINE",
"417 410 OFFCURVE",
"362 433 OFFCURVE",
"323 433 CURVE",
"253 433 OFFCURVE",
"194 391 OFFCURVE",
"143 346 CURVE",
"143 362 OFFCURVE",
"143 433 OFFCURVE",
"143 449 CURVE",
"141 482 OFFCURVE",
"129 638 OFFCURVE",
"125 671 CURVE",
"127 678 OFFCURVE",
"115 702 OFFCURVE",
"109 705 CURVE",
"107 706 OFFCURVE",
"89 708 OFFCURVE",
"83 708 CURVE",
"79 708 OFFCURVE",
"61 706 OFFCURVE",
"57 705 CURVE",
"23 55 LINE",
"74 4 LINE",
"82 7 OFFCURVE",
"105 31 OFFCURVE",
"109 38 CURVE",
"114 51 OFFCURVE",
"138 161 OFFCURVE",
"143 175 CURVE",
"170 264 OFFCURVE",
"250 314 OFFCURVE",
"331 346 CURVE",
"331 342 OFFCURVE",
"332 324 OFFCURVE",
"332 320 CURVE",
"332 274 OFFCURVE",
"314 229 OFFCURVE"
);
}
);
width = 525;
}
);
},
{
glyphname = o.alt05;
layers = (
{
layerId = "D34FCF88-AF1D-4520-8FB0-498E26D42FBC";
paths = (
{
closed = 1;
nodes = (
"22 227 CURVE",
"22 92 OFFCURVE",
"75 2 OFFCURVE",
"216 2 CURVE",
"257 2 OFFCURVE",
"283 -4 OFFCURVE",
"314 21 CURVE",
"377 72 OFFCURVE",
"417 137 OFFCURVE",
"417 217 CURVE",
"417 365 OFFCURVE",
"362 433 OFFCURVE",
"207 433 CURVE",
"199 433 OFFCURVE",
"177 433 OFFCURVE",
"177 432 CURVE",
"169 430 OFFCURVE",
"109 394 OFFCURVE",
"92 381 CURVE",
"44 347 OFFCURVE",
"22 283 OFFCURVE"
);
},
{
closed = 1;
nodes = (
"107 202 CURVE",
"107 292 OFFCURVE",
"161 348 OFFCURVE",
"253 348 CURVE",
"278 348 OFFCURVE",
"300 355 OFFCURVE",
"314 329 CURVE",
"330 297 OFFCURVE",
"332 283 OFFCURVE",
"332 252 CURVE",
"332 164 OFFCURVE",
"275 88 OFFCURVE",
"185 88 CURVE",
"164 88 OFFCURVE",
"136 80 OFFCURVE",
"125 107 CURVE",
"111 143 OFFCURVE",
"107 167 OFFCURVE"
);
}
);
width = 445;
}
);
},
{
glyphname = s.alt05;
layers = (
{
layerId = "D34FCF88-AF1D-4520-8FB0-498E26D42FBC";
paths = (
{
closed = 1;
nodes = (
"21 55 CURVE",
"21 22 OFFCURVE",
"67 -14 OFFCURVE",
"99 -14 CURVE",
"193 -14 OFFCURVE",
"298 22 OFFCURVE",
"298 128 CURVE",
"298 137 OFFCURVE",
"297 157 OFFCURVE",
"297 158 CURVE",
"290 169 OFFCURVE",
"231 229 OFFCURVE",
"211 244 CURVE",
"188 261 OFFCURVE",
"125 254 OFFCURVE",
"125 293 CURVE",
"125 310 OFFCURVE",
"128 337 OFFCURVE",
"143 346 CURVE",
"151 352 OFFCURVE",
"199 364 OFFCURVE",
"211 364 CURVE",
"233 364 OFFCURVE",
"247 278 OFFCURVE",
"297 278 CURVE",
"321 278 OFFCURVE",
"316 328 OFFCURVE",
"316 332 CURVE",
"316 341 OFFCURVE",
"314 362 OFFCURVE",
"314 364 CURVE",
"303 383 OFFCURVE",
"243 443 OFFCURVE",
"229 449 CURVE",
"226 450 OFFCURVE",
"186 453 OFFCURVE",
"170 453 CURVE",
"83 453 OFFCURVE",
"39 408 OFFCURVE",
"39 321 CURVE",
"39 222 OFFCURVE",
"126 171 OFFCURVE",
"211 141 CURVE",
"186 103 OFFCURVE",
"148 72 OFFCURVE",
"100 72 CURVE",
"98 72 OFFCURVE",
"92 73 OFFCURVE",
"92 73 CURVE",
"86 73 OFFCURVE",
"45 89 OFFCURVE",
"40 89 CURVE",
"22 89 OFFCURVE",
"21 64 OFFCURVE"
);
}
);
width = 348;
}
);
},
{
glyphname = g.alt06;
layers = (
{
layerId = "D34FCF88-AF1D-4520-8FB0-498E26D42FBC";
paths = (
{
closed = 1;
nodes = (
"-92 -93 CURVE",
"-92 -128 OFFCURVE",
"-83 -169 OFFCURVE",
"-74 -197 CURVE",
"-34 -315 OFFCURVE",
"60 -335 OFFCURVE",
"175 -335 CURVE",
"222 -335 OFFCURVE",
"314 -329 OFFCURVE",
"354 -300 CURVE",
"371 -287 OFFCURVE",
"420 -239 OFFCURVE",
"423 -232 CURVE",
"423 -230 OFFCURVE",
"424 -194 OFFCURVE",
"424 -180 CURVE",
"424 -66 OFFCURVE",
"370 32 OFFCURVE",
"370 146 CURVE",
"370 164 OFFCURVE",
"371 211 OFFCURVE",
"371 213 CURVE",
"371 218 OFFCURVE",
"384 254 OFFCURVE",
"388 265 CURVE",
"391 272 OFFCURVE",
"420 326 OFFCURVE",
"423 333 CURVE",
"425 349 OFFCURVE",
"433 416 OFFCURVE",
"433 431 CURVE",
"420 431 OFFCURVE",
"350 434 OFFCURVE",
"337 436 CURVE",
"332 436 OFFCURVE",
"290 452 OFFCURVE",
"286 453 CURVE",
"284 454 OFFCURVE",
"265 454 OFFCURVE",
"258 454 CURVE",
"171 454 OFFCURVE",
"116 395 OFFCURVE",
"63 333 CURVE",
"31 297 OFFCURVE",
"27 238 OFFCURVE",
"27 193 CURVE",
"27 105 OFFCURVE",
"74 41 OFFCURVE",
"167 41 CURVE",
"199 41 OFFCURVE",
"251 65 OFFCURVE",
"268 94 CURVE",
"272 92 OFFCURVE",
"284 80 OFFCURVE",
"286 76 CURVE",
"313 13 OFFCURVE",
"338 -67 OFFCURVE",
"338 -138 CURVE",
"338 -239 OFFCURVE",
"207 -250 OFFCURVE",
"131 -250 CURVE",
"54 -250 OFFCURVE",
"-7 -232 OFFCURVE",
"-7 -146 CURVE",
"-7 -109 OFFCURVE",
"13 -79 OFFCURVE",
"13 -42 CURVE",
"13 -18 OFFCURVE",
"0 -7 OFFCURVE",
"-23 -7 CURVE",
"-61 -7 OFFCURVE",
"-92 -59 OFFCURVE"
);
},
{
closed = 1;
nodes = (
"113 178 CURVE",
"113 285 OFFCURVE",
"191 336 OFFCURVE",
"286 368 CURVE",
"288 368 OFFCURVE",
"303 371 OFFCURVE",
"306 371 CURVE",
"306 332 OFFCURVE",
"297 304 OFFCURVE",
"286 265 CURVE",
"274 226 OFFCURVE",
"277 218 OFFCURVE",
"251 196 CURVE",
"238 186 OFFCURVE",
"190 151 OFFCURVE",
"183 145 CURVE",
"167 135 OFFCURVE",
"157 128 OFFCURVE",
"139 128 CURVE",
"110 128 OFFCURVE",
"113 158 OFFCURVE"
);
}
);
width = 456;
}
);
},
{
glyphname = g.alt07;
layers = (
{
layerId = "D34FCF88-AF1D-4520-8FB0-498E26D42FBC";
paths = (
{
closed = 1;
nodes = (
"-63 -185 CURVE",
"-63 -226 OFFCURVE",
"-15 -280 OFFCURVE",
"6 -305 CURVE",
"66 -375 OFFCURVE",
"145 -408 OFFCURVE",
"238 -408 CURVE",
"305 -408 OFFCURVE",
"381 -379 OFFCURVE",
"433 -339 CURVE",
"475 -308 OFFCURVE",
"487 -246 OFFCURVE",
"487 -200 CURVE",
"487 -188 OFFCURVE",
"485 -153 OFFCURVE",
"485 -151 CURVE",
"482 -132 OFFCURVE",
"436 18 OFFCURVE",
"433 37 CURVE",
"433 42 OFFCURVE",
"431 118 OFFCURVE",
"431 147 CURVE",
"431 176 OFFCURVE",
"433 255 OFFCURVE",
"433 260 CURVE",
"435 271 OFFCURVE",
"465 352 OFFCURVE",
"468 362 CURVE",
"469 365 OFFCURVE",
"469 388 OFFCURVE",
"469 397 CURVE",
"469 410 OFFCURVE",
"475 443 OFFCURVE",
"451 448 CURVE",
"438 449 OFFCURVE",
"378 449 OFFCURVE",
"365 449 CURVE",
"233 449 OFFCURVE",
"112 431 OFFCURVE",
"57 294 CURVE",
"49 273 OFFCURVE",
"24 201 OFFCURVE",
"23 192 CURVE",
"22 190 OFFCURVE",
"21 161 OFFCURVE",
"21 151 CURVE",
"21 50 OFFCURVE",
"57 -16 OFFCURVE",
"168 -16 CURVE",
"235 -16 OFFCURVE",
"292 18 OFFCURVE",
"331 72 CURVE",
"341 44 OFFCURVE",
"377 -87 OFFCURVE",
"382 -116 CURVE",
"383 -120 OFFCURVE",
"385 -159 OFFCURVE",
"385 -171 CURVE",
"385 -277 OFFCURVE",
"282 -307 OFFCURVE",
"193 -307 CURVE",
"143 -307 OFFCURVE",
"86 -304 OFFCURVE",
"57 -254 CURVE",
"49 -238 OFFCURVE",
"13 -167 OFFCURVE",
"6 -151 CURVE",
"2 -150 OFFCURVE",
"-16 -148 OFFCURVE",
"-20 -148 CURVE",
"-27 -148 OFFCURVE",
"-44 -150 OFFCURVE",
"-46 -151 CURVE",
"-50 -154 OFFCURVE",
"-63 -177 OFFCURVE"
);
},
{
closed = 1;
nodes = (
"107 122 CURVE",
"107 164 OFFCURVE",
"129 206 OFFCURVE",
"143 243 CURVE",
"172 322 OFFCURVE",
"236 343 OFFCURVE",
"314 362 CURVE",
"319 364 OFFCURVE",
"344 367 OFFCURVE",
"349 367 CURVE",
"349 365 OFFCURVE",
"349 348 OFFCURVE",
"348 345 CURVE",
"345 328 OFFCURVE",
"333 256 OFFCURVE",
"331 243 CURVE",
"327 224 OFFCURVE",
"315 176 OFFCURVE",
"314 174 CURVE",
"305 164 OFFCURVE",
"233 104 OFFCURVE",
"211 89 CURVE",
"208 86 OFFCURVE",
"172 75 OFFCURVE",
"160 72 CURVE",
"159 72 OFFCURVE",
"152 71 OFFCURVE",
"150 71 CURVE",
"148 71 OFFCURVE",
"143 72 OFFCURVE",
"143 72 CURVE",
"135 77 OFFCURVE",
"112 101 OFFCURVE",
"109 106 CURVE",
"108 106 OFFCURVE",
"107 118 OFFCURVE"
);
}
);
width = 502;
}
);
},
{
glyphname = e.alt08;
layers = (
{
layerId = "D34FCF88-AF1D-4520-8FB0-498E26D42FBC";
paths = (
{
closed = 1;
nodes = (
"17 245 CURVE",
"17 99 OFFCURVE",
"110 -13 OFFCURVE",
"258 -13 CURVE",
"261 -13 OFFCURVE",
"273 -12 OFFCURVE",
"274 -12 CURVE",
"285 -8 OFFCURVE",
"332 16 OFFCURVE",
"342 22 CURVE",
"425 81 OFFCURVE",
"438 169 OFFCURVE",
"438 265 CURVE",
"360 265 OFFCURVE",
"335 89 OFFCURVE",
"213 89 CURVE",
"184 89 OFFCURVE",
"154 99 OFFCURVE",
"137 125 CURVE",
"155 135 OFFCURVE",
"238 182 OFFCURVE",
"256 193 CURVE",
"280 207 OFFCURVE",
"352 255 OFFCURVE",
"359 261 CURVE",
"381 280 OFFCURVE",
"453 352 OFFCURVE",
"462 365 CURVE",
"474 381 OFFCURVE",
"479 423 OFFCURVE",
"479 450 CURVE",
"479 471 OFFCURVE",
"476 507 OFFCURVE",
"462 518 CURVE",
"454 524 OFFCURVE",
"423 535 OFFCURVE",
"416 535 CURVE",
"416 498 OFFCURVE",
"420 448 OFFCURVE",
"394 416 CURVE",
"384 404 OFFCURVE",
"336 356 OFFCURVE",
"325 347 CURVE",
"321 352 OFFCURVE",
"309 375 OFFCURVE",
"308 381 CURVE",
"306 387 OFFCURVE",
"310 428 OFFCURVE",
"308 433 CURVE",
"297 453 OFFCURVE",
"258 451 OFFCURVE",
"241 451 CURVE",
"146 451 OFFCURVE",
"58 427 OFFCURVE",
"34 330 CURVE",
"29 310 OFFCURVE",
"17 250 OFFCURVE"
);
},
{
closed = 1;
nodes = (
"222 359 CURVE",
"222 279 LINE",
"119 227 LINE",
"118 232 OFFCURVE",
"116 256 OFFCURVE",
"116 261 CURVE",
"116 319 OFFCURVE",
"166 359 OFFCURVE"
);
}
);
width = 502;
}
);
},
{
color = 0;
glyphname = f.calt;
lastChange = "2016-01-18 13:34:22 +0000";
layers = (
{
background = {
paths = (
{
closed = 1;
nodes = (
"200 324 OFFCURVE",
"256 329 OFFCURVE",
"320 340 CURVE SMOOTH",
"330 342 OFFCURVE",
"337 349 OFFCURVE",
"337 363 CURVE SMOOTH",
"337 386 OFFCURVE",
"326 407 OFFCURVE",
"311 407 CURVE SMOOTH",
"22 407 LINE SMOOTH",
"13 407 OFFCURVE",
"9 399 OFFCURVE",
"9 388 CURVE SMOOTH",
"9 373 OFFCURVE",
"16 350 OFFCURVE",
"29 345 CURVE SMOOTH",
"72 329 OFFCURVE",
"120 324 OFFCURVE",
"151 324 CURVE"
);
},
{
closed = 1;
nodes = (
"164 -238 OFFCURVE",
"179 -212 OFFCURVE",
"179 -189 CURVE SMOOTH",
"179 -100 OFFCURVE",
"192 6 OFFCURVE",
"192 95 CURVE SMOOTH",
"193 376 LINE SMOOTH",
"194 557 OFFCURVE",
"223 610 OFFCURVE",
"296 610 CURVE SMOOTH",
"332 610 OFFCURVE",
"342 596 OFFCURVE",
"364 596 CURVE SMOOTH",
"386 596 OFFCURVE",
"397 612 OFFCURVE",
"397 631 CURVE SMOOTH",
"397 654 OFFCURVE",
"382 666 OFFCURVE",
"362 674 CURVE SMOOTH",
"344 681 OFFCURVE",
"321 687 OFFCURVE",
"296 687 CURVE",
"241 687 OFFCURVE",
"206 671 OFFCURVE",
"180 648 CURVE SMOOTH",
"118 593 OFFCURVE",
"103 474 OFFCURVE",
"106 376 CURVE SMOOTH",
"115 95 LINE SMOOTH",
"117 23 OFFCURVE",
"88 -113 OFFCURVE",
"88 -175 CURVE SMOOTH",
"88 -205 OFFCURVE",
"129 -238 OFFCURVE",
"149 -238 CURVE SMOOTH"
);
}
);
};
layerId = "D34FCF88-AF1D-4520-8FB0-498E26D42FBC";
paths = (
{
closed = 1;
nodes = (
"200 324 OFFCURVE",
"256 329 OFFCURVE",
"320 340 CURVE SMOOTH",
"330 342 OFFCURVE",
"337 349 OFFCURVE",
"337 363 CURVE SMOOTH",
"337 386 OFFCURVE",
"326 407 OFFCURVE",
"311 407 CURVE SMOOTH",
"22 407 LINE SMOOTH",
"13 407 OFFCURVE",
"9 399 OFFCURVE",
"9 388 CURVE SMOOTH",
"9 373 OFFCURVE",
"16 350 OFFCURVE",
"29 345 CURVE SMOOTH",
"72 329 OFFCURVE",
"120 324 OFFCURVE",
"151 324 CURVE"
);
},
{
closed = 1;
nodes = (
"164 -238 OFFCURVE",
"179 -212 OFFCURVE",
"179 -189 CURVE SMOOTH",
"179 -100 OFFCURVE",
"192 6 OFFCURVE",
"192 95 CURVE SMOOTH",
"193 376 LINE SMOOTH",
"194 550 OFFCURVE",
"222 609 OFFCURVE",
"278 609 CURVE SMOOTH",
"298 609 OFFCURVE",
"303 607 OFFCURVE",
"315 607 CURVE SMOOTH",
"336 607 OFFCURVE",
"347 621 OFFCURVE",
"347 642 CURVE SMOOTH",
"347 672 OFFCURVE",
"319 686 OFFCURVE",
"276 686 CURVE SMOOTH",
"244 686 OFFCURVE",
"201 672 OFFCURVE",
"169 637 CURVE SMOOTH",
"123 587 OFFCURVE",
"102 486 OFFCURVE",
"106 376 CURVE SMOOTH",
"115 95 LINE SMOOTH",
"117 23 OFFCURVE",
"88 -113 OFFCURVE",
"88 -175 CURVE SMOOTH",
"88 -205 OFFCURVE",
"129 -238 OFFCURVE",
"149 -238 CURVE SMOOTH"
);
}
);
width = 316;
}
);
},
{
color = 0;
glyphname = a.ss01;
lastChange = "2016-01-12 21:55:17 +0000";
layers = (
{
anchors = (
{
name = top;
position = "{302, 407}";
}
);
background = {
paths = (
{
closed = 1;
nodes = (
"250 -19 OFFCURVE",
"323 77 OFFCURVE",
"380 190 CURVE",
"360 201 LINE",
"373 106 LINE SMOOTH",
"386 8 OFFCURVE",
"426 -19 OFFCURVE",
"469 -19 CURVE SMOOTH",
"490 -19 OFFCURVE",
"511 0 OFFCURVE",
"511 24 CURVE SMOOTH",
"511 71 OFFCURVE",
"437 46 OFFCURVE",
"441 138 CURVE SMOOTH",
"450 359 LINE",
"460 497 LINE SMOOTH",
"464 550 OFFCURVE",
"476 597 OFFCURVE",
"476 644 CURVE SMOOTH",
"476 668 OFFCURVE",
"446 687 OFFCURVE",
"425 687 CURVE SMOOTH",
"398 687 OFFCURVE",
"379 667 OFFCURVE",
"379 622 CURVE SMOOTH",
"379 596 OFFCURVE",
"386 568 OFFCURVE",
"384 542 CURVE SMOOTH",
"375 404 LINE",
"340 419 OFFCURVE",
"298 428 OFFCURVE",
"262 428 CURVE SMOOTH",
"103 428 OFFCURVE",
"60 302 OFFCURVE",
"60 159 CURVE SMOOTH",
"60 8 OFFCURVE",
"126 -19 OFFCURVE",
"180 -19 CURVE SMOOTH"
);
},
{
closed = 1;
nodes = (
"159 59 OFFCURVE",
"139 72 OFFCURVE",
"139 156 CURVE SMOOTH",
"139 274 OFFCURVE",
"171 351 OFFCURVE",
"262 351 CURVE SMOOTH",
"309 351 OFFCURVE",
"343 338 OFFCURVE",
"369 321 CURVE",
"312 194 LINE SMOOTH",
"279 121 OFFCURVE",
"219 59 OFFCURVE",
"180 59 CURVE SMOOTH"
);
},
{
closed = 1;
nodes = (
"255 -19 OFFCURVE",
"329 92 OFFCURVE",
"368 168 CURVE SMOOTH",
"400 230 OFFCURVE",
"465 321 OFFCURVE",
"465 392 CURVE SMOOTH",
"465 414 OFFCURVE",
"439 428 OFFCURVE",
"422 428 CURVE SMOOTH",
"401 428 OFFCURVE",
"344 389 OFFCURVE",
"344 312 CURVE SMOOTH",
"344 257 OFFCURVE",
"360 214 OFFCURVE",
"369 140 CURVE SMOOTH",
"373 106 LINE SMOOTH",
"383 19 OFFCURVE",
"421 -19 OFFCURVE",
"468 -19 CURVE SMOOTH",
"489 -19 OFFCURVE",
"510 0 OFFCURVE",
"510 24 CURVE SMOOTH",
"510 71 OFFCURVE",
"449 46 OFFCURVE",
"441 138 CURVE SMOOTH",
"431 249 LINE",
"431 249 OFFCURVE",
"437 354 OFFCURVE",
"437 354 CURVE",
"437 354 OFFCURVE",
"392 373 OFFCURVE",
"392 373 CURVE",
"311 194 LINE SMOOTH",
"278 120 OFFCURVE",
"218 58 OFFCURVE",
"179 58 CURVE SMOOTH",
"158 58 OFFCURVE",
"138 74 OFFCURVE",
"138 186 CURVE SMOOTH",
"138 286 OFFCURVE",
"162 377 OFFCURVE",
"162 409 CURVE SMOOTH",
"162 431 OFFCURVE",
"149 444 OFFCURVE",
"121 444 CURVE SMOOTH",
"74 444 OFFCURVE",
"59 327 OFFCURVE",
"59 189 CURVE SMOOTH",
"59 13 OFFCURVE",
"125 -19 OFFCURVE",
"179 -19 CURVE SMOOTH"
);
}
);
};
layerId = "D34FCF88-AF1D-4520-8FB0-498E26D42FBC";
paths = (
{
closed = 1;
nodes = (
"312 194 LINE SMOOTH",
"281 120 OFFCURVE",
"219 59 OFFCURVE",
"180 59 CURVE SMOOTH",
"159 59 OFFCURVE",
"139 72 OFFCURVE",
"139 156 CURVE SMOOTH",
"139 274 OFFCURVE",
"171 351 OFFCURVE",
"262 351 CURVE SMOOTH",
"277 351 OFFCURVE",
"292 349 OFFCURVE",
"304 347 CURVE SMOOTH",
"333 342 OFFCURVE",
"352 357 OFFCURVE",
"352 381 CURVE SMOOTH",
"352 408 OFFCURVE",
"339 417 OFFCURVE",
"318 422 CURVE SMOOTH",
"299 426 OFFCURVE",
"280 428 OFFCURVE",
"262 428 CURVE SMOOTH",
"103 428 OFFCURVE",
"60 302 OFFCURVE",
"60 159 CURVE SMOOTH",
"60 8 OFFCURVE",
"126 -19 OFFCURVE",
"180 -19 CURVE SMOOTH",
"250 -19 OFFCURVE",
"323 77 OFFCURVE",
"380 190 CURVE",
"360 201 LINE",
"373 106 LINE SMOOTH",
"386 8 OFFCURVE",
"426 -19 OFFCURVE",
"469 -19 CURVE SMOOTH",
"490 -19 OFFCURVE",
"511 0 OFFCURVE",
"511 24 CURVE SMOOTH",
"511 71 OFFCURVE",
"440 46 OFFCURVE",
"441 138 CURVE SMOOTH",
"442 206 OFFCURVE",
"461 293 OFFCURVE",
"461 351 CURVE SMOOTH",
"461 392 OFFCURVE",
"427 418 OFFCURVE",
"406 418 CURVE SMOOTH",
"398 418 OFFCURVE",
"388 399 OFFCURVE",
"380 348 CURVE"
);
}
);
width = 550;
}
);
},
{
color = 0;
glyphname = e.ss01;
lastChange = "2016-01-10 19:28:55 +0000";
layers = (
{
anchors = (
{
name = top;
position = "{246, 407}";
}
);
background = {
paths = (
{
closed = 1;
nodes = (
"372 -18 OFFCURVE",
"449 52 OFFCURVE",
"449 98 CURVE SMOOTH",
"449 119 OFFCURVE",
"437 138 OFFCURVE",
"412 138 CURVE SMOOTH",
"367 138 OFFCURVE",
"367 58 OFFCURVE",
"265 58 CURVE SMOOTH",
"192 58 OFFCURVE",
"139 115 OFFCURVE",
"139 199 CURVE SMOOTH",
"139 277 OFFCURVE",
"197 351 OFFCURVE",
"271 351 CURVE SMOOTH",
"319 351 OFFCURVE",
"340 328 OFFCURVE",
"340 306 CURVE SMOOTH",
"340 265 OFFCURVE",
"242 229 OFFCURVE",
"97 213 CURVE",
"134 145 LINE",
"310 169 OFFCURVE",
"436 227 OFFCURVE",
"432 306 CURVE SMOOTH",
"429 367 OFFCURVE",
"364 428 OFFCURVE",
"271 428 CURVE SMOOTH",
"154 428 OFFCURVE",
"60 320 OFFCURVE",
"60 199 CURVE SMOOTH",
"60 71 OFFCURVE",
"142 -20 OFFCURVE",
"265 -19 CURVE SMOOTH"
);
}
);
};
guideLines = (
{
angle = 90;
position = "{439, 535}";
}
);
layerId = "D34FCF88-AF1D-4520-8FB0-498E26D42FBC";
paths = (
{
closed = 1;
nodes = (
"366 -18 OFFCURVE",
"439 48 OFFCURVE",
"439 98 CURVE SMOOTH",
"439 119 OFFCURVE",
"427 138 OFFCURVE",
"402 138 CURVE SMOOTH",
"355 138 OFFCURVE",
"358 58 OFFCURVE",
"259 58 CURVE SMOOTH",
"193 58 OFFCURVE",
"139 122 OFFCURVE",
"139 199 CURVE SMOOTH",
"139 277 OFFCURVE",
"195 351 OFFCURVE",
"266 351 CURVE SMOOTH",
"298 351 OFFCURVE",
"321 321 OFFCURVE",
"321 259 CURVE",
"387 323 LINE",
"387 404 OFFCURVE",
"320 428 OFFCURVE",
"266 428 CURVE SMOOTH",
"152 428 OFFCURVE",
"60 320 OFFCURVE",
"60 199 CURVE SMOOTH",
"60 71 OFFCURVE",
"143 -20 OFFCURVE",
"259 -19 CURVE SMOOTH"
);
},
{
closed = 1;
nodes = (
"248 146 OFFCURVE",
"337 190 OFFCURVE",
"415 250 CURVE SMOOTH",
"455 281 OFFCURVE",
"493 325 OFFCURVE",
"493 356 CURVE SMOOTH",
"493 380 OFFCURVE",
"479 392 OFFCURVE",
"463 392 CURVE SMOOTH",
"442 392 OFFCURVE",
"435 375 OFFCURVE",
"417 356 CURVE SMOOTH",
"333 268 OFFCURVE",
"228 214 OFFCURVE",
"97 193 CURVE",
"97 193 OFFCURVE",
"134 125 OFFCURVE",
"134 125 CURVE"
);
}
);
width = 513;
}
);
},
{
color = 0;
glyphname = g.ss01;
lastChange = "2016-01-13 08:01:34 +0000";
layers = (
{
anchors = (
{
name = top;
position = "{302, 407}";
}
);
background = {
paths = (
{
closed = 1;
nodes = (
"406 -41 OFFCURVE",
"386 -161 OFFCURVE",
"250 -161 CURVE SMOOTH",
"155 -161 OFFCURVE",
"132 -79 OFFCURVE",
"75 -79 CURVE SMOOTH",
"49 -79 OFFCURVE",
"36 -97 OFFCURVE",
"36 -118 CURVE SMOOTH",
"36 -141 OFFCURVE",
"57 -166 OFFCURVE",
"98 -192 CURVE SMOOTH",
"136 -216 OFFCURVE",
"192 -238 OFFCURVE",
"250 -238 CURVE SMOOTH",
"390 -238 OFFCURVE",
"483 -145 OFFCURVE",
"460 89 CURVE SMOOTH",
"444 249 LINE",
"444 249 OFFCURVE",
"450 354 OFFCURVE",
"450 354 CURVE",
"450 354 OFFCURVE",
"405 373 OFFCURVE",
"405 373 CURVE",
"334 234 LINE SMOOTH",
"295 157 OFFCURVE",
"234 88 OFFCURVE",
"192 88 CURVE SMOOTH",
"171 88 OFFCURVE",
"151 103 OFFCURVE",
"151 206 CURVE SMOOTH",
"151 297 OFFCURVE",
"175 380 OFFCURVE",
"175 409 CURVE SMOOTH",
"175 431 OFFCURVE",
"162 444 OFFCURVE",
"134 444 CURVE SMOOTH",
"87 444 OFFCURVE",
"72 336 OFFCURVE",
"72 209 CURVE SMOOTH",
"72 41 OFFCURVE",
"138 11 OFFCURVE",
"192 11 CURVE SMOOTH",
"272 11 OFFCURVE",
"350 126 OFFCURVE",
"391 208 CURVE",
"417 231 LINE",
"443 280 OFFCURVE",
"478 338 OFFCURVE",
"478 392 CURVE SMOOTH",
"478 414 OFFCURVE",
"452 428 OFFCURVE",
"435 428 CURVE SMOOTH",
"414 428 OFFCURVE",
"357 389 OFFCURVE",
"357 312 CURVE SMOOTH",
"357 257 OFFCURVE",
"373 214 OFFCURVE",
"382 140 CURVE"
);
}
);
};
layerId = "D34FCF88-AF1D-4520-8FB0-498E26D42FBC";
paths = (
{
closed = 1;
nodes = (
"295 157 OFFCURVE",
"234 88 OFFCURVE",
"192 88 CURVE SMOOTH",
"172 88 OFFCURVE",
"152 101 OFFCURVE",
"152 186 CURVE SMOOTH",
"152 286 OFFCURVE",
"181 351 OFFCURVE",
"262 351 CURVE SMOOTH",
"277 351 OFFCURVE",
"292 349 OFFCURVE",
"304 347 CURVE SMOOTH",
"333 342 OFFCURVE",
"352 357 OFFCURVE",
"352 381 CURVE SMOOTH",
"352 408 OFFCURVE",
"339 417 OFFCURVE",
"318 422 CURVE SMOOTH",
"299 426 OFFCURVE",
"280 428 OFFCURVE",
"262 428 CURVE SMOOTH",
"113 428 OFFCURVE",
"73 316 OFFCURVE",
"73 189 CURVE SMOOTH",
"73 38 OFFCURVE",
"139 11 OFFCURVE",
"193 11 CURVE SMOOTH",
"263 11 OFFCURVE",
"336 102 OFFCURVE",
"393 210 CURVE",
"417 231 LINE",
"443 280 OFFCURVE",
"478 338 OFFCURVE",
"478 392 CURVE SMOOTH",
"478 414 OFFCURVE",
"452 428 OFFCURVE",
"435 428 CURVE SMOOTH",
"414 428 OFFCURVE",
"357 389 OFFCURVE",
"357 312 CURVE SMOOTH",
"357 257 OFFCURVE",
"373 214 OFFCURVE",
"382 140 CURVE SMOOTH",
"406 -41 OFFCURVE",
"386 -161 OFFCURVE",
"250 -161 CURVE SMOOTH",
"155 -161 OFFCURVE",
"132 -79 OFFCURVE",
"75 -79 CURVE SMOOTH",
"49 -79 OFFCURVE",
"36 -97 OFFCURVE",
"36 -118 CURVE SMOOTH",
"36 -141 OFFCURVE",
"57 -166 OFFCURVE",
"98 -192 CURVE SMOOTH",
"136 -216 OFFCURVE",
"192 -238 OFFCURVE",
"250 -238 CURVE SMOOTH",
"390 -238 OFFCURVE",
"483 -144 OFFCURVE",
"460 89 CURVE SMOOTH",
"444 249 LINE",
"444 249 OFFCURVE",
"450 354 OFFCURVE",
"450 354 CURVE",
"450 354 OFFCURVE",
"405 373 OFFCURVE",
"405 373 CURVE",
"334 234 LINE"
);
}
);
width = 556;
}
);
},
{
color = 0;
glyphname = s.ss01;
lastChange = "2016-01-11 12:20:38 +0000";
layers = (
{
background = {
guideLines = (
{
angle = 90;
position = "{357, 180}";
},
{
angle = 90;
position = "{70, 180}";
}
);
paths = (
{
closed = 1;
nodes = (
"298 415 OFFCURVE",
"255 425 OFFCURVE",
"211 425 CURVE SMOOTH",
"148 425 OFFCURVE",
"70 388 OFFCURVE",
"70 308 CURVE SMOOTH",
"70 161 OFFCURVE",
"278 187 OFFCURVE",
"278 103 CURVE SMOOTH",
"278 60 OFFCURVE",
"234 52 OFFCURVE",
"205 52 CURVE SMOOTH",
"91 52 OFFCURVE",
"140 148 OFFCURVE",
"86 148 CURVE SMOOTH",
"71 148 OFFCURVE",
"49 125 OFFCURVE",
"49 86 CURVE SMOOTH",
"49 61 OFFCURVE",
"61 34 OFFCURVE",
"85 14 CURVE SMOOTH",
"111 -9 OFFCURVE",
"166 -19 OFFCURVE",
"205 -19 CURVE SMOOTH",
"293 -19 OFFCURVE",
"357 32 OFFCURVE",
"357 103 CURVE SMOOTH",
"357 250 OFFCURVE",
"149 223 OFFCURVE",
"149 308 CURVE SMOOTH",
"149 340 OFFCURVE",
"182 354 OFFCURVE",
"211 354 CURVE SMOOTH",
"254 354 OFFCURVE",
"290 344 OFFCURVE",
"309 323 CURVE",
"309 323 OFFCURVE",
"271 396 OFFCURVE",
"271 396 CURVE",
"290 290 LINE SMOOTH",
"292 276 OFFCURVE",
"300 268 OFFCURVE",
"314 268 CURVE SMOOTH",
"326 268 OFFCURVE",
"335 276 OFFCURVE",
"336 290 CURVE SMOOTH",
"346 397 LINE SMOOTH",
"354 445 OFFCURVE",
"332 454 OFFCURVE",
"310 454 CURVE SMOOTH",
"289 454 OFFCURVE",
"279 441 OFFCURVE",
"274 405 CURVE",
"274 405 OFFCURVE",
"326 399 OFFCURVE",
"326 399 CURVE"
);
}
);
};
layerId = "D34FCF88-AF1D-4520-8FB0-498E26D42FBC";
paths = (
{
closed = 1;
nodes = (
"281 357 OFFCURVE",
"273 318 OFFCURVE",
"312 318 CURVE SMOOTH",
"336 318 OFFCURVE",
"347 337 OFFCURVE",
"347 358 CURVE SMOOTH",
"347 401 OFFCURVE",
"291 427 OFFCURVE",
"211 428 CURVE SMOOTH",
"148 428 OFFCURVE",
"70 391 OFFCURVE",
"70 311 CURVE SMOOTH",
"70 233 OFFCURVE",
"133 205 OFFCURVE",
"191 182 CURVE SMOOTH",
"237 164 OFFCURVE",
"278 150 OFFCURVE",
"278 105 CURVE SMOOTH",
"278 60 OFFCURVE",
"234 52 OFFCURVE",
"205 52 CURVE SMOOTH",
"91 52 OFFCURVE",
"140 148 OFFCURVE",
"86 148 CURVE SMOOTH",
"71 148 OFFCURVE",
"49 125 OFFCURVE",
"49 86 CURVE SMOOTH",
"49 61 OFFCURVE",
"61 34 OFFCURVE",
"85 14 CURVE SMOOTH",
"111 -9 OFFCURVE",
"166 -19 OFFCURVE",
"205 -19 CURVE SMOOTH",
"293 -19 OFFCURVE",
"357 33 OFFCURVE",
"357 105 CURVE SMOOTH",
"357 194 OFFCURVE",
"298 222 OFFCURVE",
"231 248 CURVE SMOOTH",
"188 265 OFFCURVE",
"149 280 OFFCURVE",
"149 311 CURVE SMOOTH",
"149 343 OFFCURVE",
"182 357 OFFCURVE",
"211 357 CURVE SMOOTH"
);
}
);
width = 403;
}
);
},
